<svg width="24" height="24" viewBox="0 0 24 24" fill="none" xmlns="http://www.w3.org/2000/svg">
<path d="M7 13.23C6.66133 13.23 6.37133 13.11 6.13 12.87C5.89 12.6287 5.77 12.3387 5.77 12C5.77 11.6613 5.89 11.3713 6.13 11.13C6.37133 10.89 6.66133 10.77 7 10.77C7.33867 10.77 7.62867 10.89 7.87 11.13C8.11 11.3713 8.23 11.6613 8.23 12C8.23 12.3387 8.11 12.6287 7.87 12.87C7.62867 13.11 7.33867 13.23 7 13.23ZM7 17C5.61133 17 4.43067 16.5143 3.458 15.543C2.486 14.5717 2 13.3923 2 12.005C2 10.617 2.486 9.436 3.458 8.462C4.43067 7.48733 5.61133 7 7 7C8.02667 7 8.95267 7.27833 9.778 7.835C10.6027 8.391 11.205 9.11267 11.585 10H20.46C20.562 10 20.6607 10.0187 20.756 10.056C20.852 10.0933 20.9437 10.1553 21.031 10.242L22.223 11.435C22.3097 11.5217 22.371 11.6117 22.407 11.705C22.4423 11.7977 22.46 11.897 22.46 12.003C22.46 12.109 22.4423 12.2073 22.407 12.298C22.3717 12.3893 22.3103 12.4783 22.223 12.565L20.106 14.663C20.0393 14.735 19.9593 14.7927 19.866 14.836C19.7727 14.8787 19.6807 14.902 19.59 14.906C19.4993 14.91 19.4083 14.8983 19.317 14.871C19.2263 14.8443 19.1373 14.802 19.05 14.744L17.885 13.865L16.517 14.863C16.447 14.917 16.3747 14.9543 16.3 14.975C16.2253 14.995 16.1447 15.005 16.058 15.005C15.9707 15.005 15.889 14.9917 15.813 14.965C15.7363 14.9383 15.663 14.9043 15.593 14.863L14.297 14H11.584C11.204 14.8747 10.6017 15.5933 9.777 16.156C8.95233 16.7187 8.02667 17 7 17ZM7 16C7.98467 16 8.82467 15.704 9.52 15.112C10.2153 14.5193 10.6607 13.8153 10.856 13H14.616L16.046 13.967C16.0327 13.967 16.0293 13.968 16.036 13.97C16.0427 13.972 16.046 13.971 16.046 13.967L17.904 12.635L19.525 13.855V13.846V13.856L21.381 12L20.381 11H10.856C10.6607 10.1847 10.2153 9.48067 9.52 8.888C8.82467 8.296 7.98467 8 7 8C5.9 8 4.95833 8.39167 4.175 9.175C3.39167 9.95833 3 10.9 3 12C3 13.1 3.39167 14.0417 4.175 14.825C4.95833 15.6083 5.9 16 7 16Z" fill="#868C98"/>
</svg>
