<svg width="193" height="304" viewBox="0 0 193 304" fill="none" xmlns="http://www.w3.org/2000/svg">
<path d="M83.2405 197.017L83.6008 198.924L83.8916 200.834L84.1824 202.744L84.4124 204.658C84.5256 205.584 84.7341 206.51 84.795 207.44C85.1096 210.728 85.2066 214.032 85.2349 217.33C85.2336 218.8 85.2323 220.27 85.2324 221.724C85.2454 222.192 85.2146 222.665 85.1667 223.137L85.023 224.552C84.9493 225.022 84.7976 225.494 84.6723 225.959C84.5564 226.416 84.3431 226.9 84.0998 227.33C83.7032 227.833 83.6968 227.703 83.4934 227.132C83.3795 226.837 83.3044 226.494 83.1833 226.077C83.038 225.641 82.8969 225.154 82.8603 224.658L82.7147 221.938C82.696 221.019 82.7281 220.114 82.693 219.185C82.6477 217.339 82.6382 215.479 82.6824 213.597C82.6722 212.471 82.5948 211.323 82.4737 210.18C82.3268 209.034 82.1628 207.887 82.0417 206.744L81.5244 202.982L80.8934 199.235C80.561 197.72 80.3182 196.169 79.8978 194.672C79.327 192.384 78.6868 190.099 77.8196 187.942C77.4652 187.108 77.0828 186.298 76.6905 185.504L75.3501 183.212C75.1711 182.869 74.937 182.564 74.7215 182.243C73.9754 181.022 74.004 180.471 74.3769 179.836C74.4671 179.688 74.5415 179.521 74.6374 179.408C74.9652 179.002 75.6511 179.284 76.4816 180.115C77.0959 180.737 77.6078 181.445 78.0481 182.183C78.4971 182.921 78.9524 183.685 79.3634 184.463C80.0967 186.047 80.807 187.698 81.324 189.384L81.9291 191.26L82.4197 193.16L82.901 195.069L83.3035 196.988L83.2326 197.008L83.2405 197.017Z" fill="#231F20"/>
<path opacity="0.15" d="M99.4124 48.4566C99.0589 49.2749 87.3539 74.0262 87.4964 88.527C87.6389 103.028 93.4922 112.935 104.068 117.656C114.635 122.376 128.326 117.72 133.112 114.26C137.907 110.793 145.073 102.54 145.073 102.54L148.858 97.8036C148.858 97.8036 158.971 102.469 162.91 99.2153C162.91 99.2153 169.88 94.9773 169.674 89.3462C169.468 83.7151 168.235 79.6161 163.875 79.8242C159.515 80.0322 154.544 88.8309 150.986 87.2026C147.429 85.5658 142.971 81.1378 146.909 75.0818C150.847 69.0257 154.295 62.6176 154.295 62.6176C154.295 62.6176 120.266 58.557 115.789 44.9063L111.544 40.6086L99.4117 48.4652L99.4124 48.4566Z" fill="#231F20"/>
<path opacity="0.15" d="M29.4213 165.714C29.4213 165.714 15.09 150.932 14.425 151.023C13.7599 151.115 12.5418 154.214 14.6185 160.131C16.6865 166.047 22.3004 172.387 22.3004 172.387L29.4299 165.715L29.4213 165.714Z" fill="#231F20"/>
<path opacity="0.15" d="M19.3651 171.512C19.3651 171.512 6.46316 161.277 5.2792 162.303C4.09524 163.329 4.71917 167.369 7.20932 170.5C9.70806 173.632 17.4258 179.222 17.4258 179.222L21.8744 173.476L19.3651 171.512Z" fill="#231F20"/>
<path opacity="0.15" d="M15.0831 179.191C15.0831 179.191 4.52365 176.876 2.69774 179.899C0.872557 182.913 14.6655 184.208 14.6655 184.208L15.0831 179.191Z" fill="#231F20"/>
<path opacity="0.15" d="M10.9437 184.547C10.865 184.558 4.59174 184.892 5.10087 186.258C5.61 187.624 12.0695 188.585 12.0695 188.585L13.5467 184.764L10.9523 184.548L10.9437 184.547Z" fill="#231F20"/>
<path opacity="0.15" d="M93.1754 247.989C91.9656 247.975 79.6218 242.155 76.572 233.381C73.5222 224.607 70.0182 220.665 68.2493 221.132C66.4804 221.599 64.9689 225.729 66.1949 229.81C67.4124 233.89 69.7802 238.387 65.3384 240.102C60.8965 241.817 39.7198 245.988 39.7198 245.988C39.7198 245.988 49.1381 255.05 66.9487 257.648C84.7594 260.247 90.3292 263.582 90.3292 263.582L96.737 248.433L93.1654 248.006L93.1754 247.989Z" fill="#231F20"/>
<path d="M48.8792 245.193C50.0646 245.084 51.2558 244.907 52.4449 244.651C52.8758 244.566 53.2946 244.419 53.727 244.317C55.2597 243.986 56.788 243.603 58.2899 243.122C58.9556 242.918 59.6164 242.67 60.2764 242.431C61.1218 242.147 61.9837 241.872 62.8427 241.633C63.1169 241.56 63.0883 241.592 62.8864 241.731C62.6845 241.87 62.3245 242.143 61.8792 242.4L60.6652 243.06C60.2586 243.269 59.8291 243.44 59.4153 243.631C58.572 243.993 57.713 244.337 56.8332 244.618C55.7766 244.946 54.7157 245.428 53.6169 245.743C52.4114 246.093 51.1844 246.389 49.9467 246.606L48.7977 246.795L47.6358 246.932C47.0502 247.005 46.4618 247.008 45.8698 247.054C45.2806 247.065 44.6915 247.077 44.103 247.079C43.6456 247.067 43.1945 247.082 42.7335 247.113L41.359 247.102C41.1514 247.102 40.9524 247.103 40.7563 247.069C40.0039 246.963 39.7934 246.79 39.7597 246.259C39.7525 246.138 39.7367 246.015 39.7382 245.894C39.7718 245.491 40.1311 245.226 40.6415 245.226C42.1728 245.223 43.7091 245.369 45.294 245.345C45.8803 245.368 46.4738 245.305 47.0623 245.302C47.655 245.247 48.2535 245.228 48.8484 245.148L48.8455 245.182L48.8792 245.193Z" fill="#231F20"/>
<path opacity="0.55" d="M54.1569 141.857C54.6709 141.398 60.0489 137.789 62.4259 139.993C66.249 143.529 55.5264 155.854 55.5264 155.854C55.5264 155.854 44.7718 156.923 42.0468 153.08C39.3132 149.237 34.0012 133.449 36.4092 131.539C38.8172 129.629 44.7786 132.314 46.144 134.097C47.5094 135.88 51.5306 144.415 51.5306 144.415L54.1562 141.865L54.1569 141.857Z" fill="#231F20"/>
<path opacity="0.55" d="M53.0444 156.175C64.3792 166.011 86.4041 210.264 76.9903 231.08C76.9903 231.08 72.2737 220.61 69.504 220.631C66.7342 220.651 62.7484 229.462 65.2469 230.414C67.7454 231.366 66.0446 239.122 63.7009 240.155C61.3572 241.189 43.3698 246.015 30.0247 242.041C24.1414 240.288 4.64429 231.867 3.56302 221.993C2.48247 212.111 6.17089 200.222 9.73906 195.389C13.3079 190.548 24.5294 169.32 31.9066 163.308C39.2838 157.296 42.16 155.269 42.16 155.269L53.053 156.176L53.0444 156.175Z" fill="#231F20"/>
<path d="M188.27 246.891C188.512 246.055 188.789 245.221 188.982 244.364C189.208 243.517 189.367 242.648 189.525 241.779C189.656 241.15 189.666 240.502 189.763 239.861C190.046 237.61 190.184 235.32 190.115 233.031C190.122 232.011 190.016 230.999 189.936 229.989C189.784 228.696 189.638 227.438 189.48 226.11C189.444 225.709 189.537 225.743 189.709 226.06C189.882 226.377 190.161 226.971 190.368 227.706C190.692 229.013 190.953 230.341 191.136 231.68C191.336 233.02 191.395 234.383 191.317 235.743C191.292 236.563 191.275 237.392 191.249 238.22C191.248 239.059 191.179 239.893 191.11 240.726C191.042 241.637 190.863 242.548 190.744 243.455C190.565 244.357 190.395 245.26 190.174 246.15L189.718 247.781C189.552 248.321 189.352 248.849 189.169 249.388C188.919 250.206 188.535 250.978 188.218 251.774C187.876 252.558 187.476 253.312 187.117 254.087C186.792 254.665 186.502 255.247 186.21 255.837C185.894 256.416 185.545 256.966 185.205 257.526C185.054 257.773 184.913 258.021 184.721 258.247C184.053 259.1 183.742 259.299 183.283 259.2C183.182 259.174 183.061 259.164 182.969 259.131C182.661 258.992 182.728 258.488 183.12 257.837C183.726 256.893 184.252 255.873 184.82 254.873C185.088 254.359 185.363 253.854 185.647 253.35C185.899 252.826 186.15 252.294 186.402 251.77C186.778 250.988 187.08 250.165 187.416 249.354C187.684 248.52 188.02 247.709 188.23 246.853L188.273 246.856L188.27 246.891Z" fill="#231F20"/>
<path d="M21.5665 175.068C20.5185 176.123 19.5264 177.234 18.558 178.373C18.2036 178.785 17.9138 179.254 17.568 179.666C16.3541 181.157 15.1723 182.676 14.08 184.263C13.589 184.966 13.1639 185.709 12.7559 186.454C12.2513 187.424 11.7803 188.406 11.0767 189.273C10.8054 189.518 10.6264 189.382 10.4367 188.96C10.2634 188.547 10.1538 187.89 10.3692 187.276C10.8115 186.223 11.3705 185.223 11.9539 184.242C12.5458 183.262 13.1785 182.311 13.9265 181.43C14.7941 180.361 15.5442 179.143 16.406 178.038C17.3465 176.819 18.3608 175.649 19.3823 174.497C20.0279 173.807 20.6664 173.099 21.3278 172.428C22.3142 171.385 23.3815 170.41 24.3908 169.404C25.1817 168.631 25.8918 167.79 26.6742 167.016C26.8438 166.849 26.9984 166.654 27.1931 166.497C27.8989 165.916 28.2153 165.856 28.7072 166.182C28.8217 166.261 28.9377 166.322 29.0344 166.408C29.3565 166.695 29.2879 167.208 28.8741 167.71C27.643 169.199 26.1756 170.513 24.7439 171.916C23.6881 172.961 22.6072 173.996 21.6066 175.106L21.5658 175.077L21.5665 175.068Z" fill="#231F20"/>
<path d="M72.2076 173.591C72.5742 173.864 77.1611 176.331 79.409 169.797C80.8003 165.76 74.5921 179.655 74.5921 179.655L72.2076 173.591Z" fill="#231F20"/>
<path d="M68.8244 138.355C68.7507 139.032 68.6097 139.686 68.4623 140.314C68.4172 140.544 68.3979 140.776 68.3271 141.003C68.0881 141.797 67.7653 142.557 67.4525 143.301C67.3208 143.636 67.1984 143.963 67.0753 144.299C66.8935 144.716 66.7862 145.174 66.3968 145.488C66.2594 145.58 66.1283 145.492 65.9644 145.279C65.7754 145.056 65.6014 144.756 65.6558 144.518C65.8218 143.667 66.0522 142.873 66.4129 142.072C66.6262 141.589 66.6283 141.044 66.7056 140.531C66.7878 139.958 66.8522 139.393 66.8736 138.824C66.8765 138.478 66.8886 138.124 66.8478 137.784C66.8047 137.261 66.7181 136.743 66.5233 136.277C66.3536 135.926 66.0472 135.658 65.7543 135.435C65.6892 135.386 65.6241 135.338 65.5582 135.297C65.367 135.1 65.4415 134.933 65.8273 134.455L66.0878 134.131C66.3942 133.775 66.77 133.625 67.1036 133.774C68.068 134.243 68.5792 135.272 68.7855 136.224C68.9158 136.944 68.9245 137.671 68.8766 138.35L68.8251 138.346L68.8244 138.355Z" fill="#231F20"/>
<path d="M67.5748 259.076C68.6716 259.305 69.7862 259.528 70.903 259.725C71.3125 259.793 71.7263 259.811 72.1351 259.888C73.5733 260.172 75.0037 260.55 76.4376 260.886C77.0719 261.06 77.7083 261.208 78.3362 261.355C79.1415 261.552 79.9441 261.783 80.7122 262.116C80.9549 262.214 80.8977 262.278 80.6586 262.345C80.4202 262.403 79.9885 262.496 79.5139 262.483C77.833 262.412 76.1708 262.533 74.5263 262.128C73.5398 261.925 72.4818 261.958 71.4631 261.83C70.332 261.701 69.203 261.547 68.074 261.392L65.9801 261.088C64.9205 260.931 63.8653 260.722 62.8036 260.59C61.9825 260.479 61.15 260.505 60.3088 260.426C60.1198 260.41 59.9373 260.421 59.7504 260.379C59.0696 260.245 58.897 260.032 58.9349 259.369C58.9478 259.214 58.9428 259.067 58.9728 258.913C59.0579 258.41 59.4316 258.078 59.9177 258.058C61.3587 257.996 62.7841 258.227 64.2617 258.454C65.3549 258.623 66.463 258.819 67.5798 259.016L67.5748 259.076Z" fill="#231F20"/>
<path d="M60.1098 242.019C58.7748 242.47 57.3967 242.814 56.0302 243.124C55.5205 243.22 55.0337 243.353 54.5254 243.432C52.7329 243.663 50.9324 243.781 49.1506 243.78C48.7526 243.781 48.3617 243.801 47.963 243.811C47.5657 243.804 47.1762 243.806 46.7875 243.8C45.7838 243.803 44.7701 243.822 43.7958 243.473C43.5051 243.224 43.5431 243.287 43.8323 243.035C43.9733 242.899 44.1637 242.794 44.3906 242.666C44.6183 242.529 44.8853 242.439 45.1623 242.436C47.1109 242.304 49.0502 242.18 51.0597 242.045C51.6575 242.034 52.2466 241.918 52.8465 241.778C53.445 241.655 54.0305 241.479 54.614 241.328C55.904 241.003 57.1953 240.661 58.4674 240.239C59.2434 239.958 60.0265 239.694 60.781 239.359C61.9371 238.876 63.0889 238.34 64.1706 237.712C65.0081 237.211 65.7526 236.581 66.5199 235.987C66.6867 235.854 66.8463 235.703 67.0203 235.588C67.3503 235.364 67.5937 235.246 67.817 235.265C68.0561 235.302 68.253 235.431 68.485 235.658C68.5888 235.762 68.7105 235.858 68.7964 235.969C68.9453 236.155 68.9969 236.366 68.9762 236.616C68.9562 236.856 68.8538 237.15 68.6305 237.339C67.3592 238.583 65.7543 239.574 64.0578 240.419C62.7864 241.04 61.4692 241.587 60.132 242.064L60.1105 242.011L60.1098 242.019Z" fill="#231F20"/>
<path d="M64.3461 232.614C64.1864 231.727 64.0624 230.826 63.9908 229.921C63.9578 229.589 63.8804 229.271 63.874 228.933C63.8416 227.763 64.0176 226.584 64.233 225.451C64.3189 224.94 64.4119 224.446 64.497 223.942C64.5585 223.619 64.6029 223.294 64.7238 222.984C64.7797 222.833 64.8534 222.674 64.9257 222.533C64.9901 222.383 65.1891 222.278 65.3115 222.159C65.5048 222.019 65.6358 222.108 65.8477 222.368C65.9973 222.545 66.1384 222.721 66.2558 222.869C66.379 223.052 66.4334 223.23 66.4198 223.393C66.2638 224.539 66.1029 225.642 65.8997 226.836C65.7795 227.552 65.9335 228.3 66.0023 229.033C66.0818 229.844 66.1957 230.658 66.3612 231.476C66.4665 231.978 66.5803 232.48 66.7207 232.976C66.9348 233.73 67.1569 234.492 67.4776 235.211C67.7254 235.768 68.1084 236.258 68.4457 236.779C68.523 236.889 68.6096 236.992 68.6769 237.118C68.9347 237.555 68.7407 237.807 68.264 238.131C68.1537 238.208 68.0435 238.285 67.9254 238.353C67.5445 238.564 67.1057 238.536 66.7635 238.283C65.9423 237.444 65.416 236.388 65.0086 235.256C64.7064 234.418 64.4858 233.534 64.2738 232.652L64.3268 232.639L64.3461 232.614Z" fill="#231F20"/>
<path d="M90.1348 259.457C90.6243 258.564 91.0974 257.66 91.529 256.736C91.6865 256.403 91.7688 256.038 91.927 255.697C92.4845 254.506 93.0012 253.286 93.4843 252.055C93.7026 251.511 93.8286 250.933 93.9624 250.364C94.1012 249.632 94.1977 248.888 94.6 248.212C94.7217 247.997 95.0854 248.096 95.4347 248.368C95.7841 248.639 96.17 249.095 96.1665 249.553C95.9841 251.121 95.6643 252.677 94.9564 254.115C94.5298 254.979 94.3452 255.95 94.0103 256.856C93.6331 257.854 93.2144 258.831 92.7714 259.789L91.9318 261.562C91.511 262.461 91.0071 263.319 90.6213 264.212C90.3129 264.904 90.1461 265.66 89.8291 266.352C89.7647 266.502 89.7246 266.672 89.6351 266.811C89.2887 267.336 89.0231 267.409 88.4575 267.241C88.3308 267.205 88.1948 267.176 88.0781 267.123C87.6765 266.96 87.4674 266.562 87.491 266.071C87.5339 265.348 87.6848 264.677 87.8945 264.028C88.1293 263.39 88.4141 262.774 88.7076 262.158C89.1306 261.233 89.6287 260.341 90.0768 259.426L90.1355 259.449L90.1348 259.457Z" fill="#231F20"/>
<path d="M83.397 261.742C82.5825 263.526 71.6324 284.196 75.5432 284.392C78.8084 284.551 90.2432 264.708 90.2432 264.708L83.4049 261.752L83.397 261.742Z" fill="#231F20"/>
<path d="M148.07 220.976C147.662 219.74 147.22 218.51 146.741 217.302C146.579 216.856 146.337 216.438 146.166 216C145.552 214.435 144.895 212.875 144.12 211.375C143.796 210.699 143.4 210.052 143.011 209.423C142.471 208.634 141.996 207.798 141.603 206.909C141.487 206.632 141.658 206.551 141.989 206.63C142.32 206.71 142.857 206.91 143.265 207.307C144.63 208.779 145.754 210.455 146.551 212.312C147.038 213.417 147.721 214.46 148.269 215.569C148.878 216.779 149.37 218.04 149.862 219.292C150.161 220.069 150.442 220.845 150.723 221.63C151.153 222.807 151.518 224.023 151.95 225.183C152.28 226.093 152.746 226.945 153.077 227.855C153.155 228.052 153.252 228.241 153.304 228.445C153.465 229.219 153.354 229.513 152.853 229.817C152.743 229.886 152.633 229.963 152.516 230.023C152.129 230.198 151.697 229.98 151.349 229.493C150.838 228.767 150.47 227.993 150.131 227.186C149.817 226.381 149.549 225.554 149.264 224.717C148.856 223.481 148.459 222.228 148.007 221.006L148.06 220.984L148.07 220.976Z" fill="#231F20"/>
<path d="M128.496 138.919C127.606 139.735 126.7 140.542 125.769 141.33C125.433 141.622 125.138 141.952 124.794 142.235C123.594 143.242 122.355 144.212 121.108 145.163C120.561 145.594 120.015 146.032 119.485 146.473C118.782 147.02 118.11 147.613 117.229 147.903C116.946 147.974 116.898 147.832 116.935 147.489C116.966 147.119 117.112 146.604 117.485 146.28C118.116 145.667 118.802 145.118 119.48 144.561C120.157 144.003 120.844 143.446 121.555 142.9C122.414 142.253 123.15 141.406 123.932 140.641C124.798 139.796 125.656 138.95 126.546 138.125L128.171 136.582C128.989 135.794 129.832 135.025 130.617 134.216C131.232 133.584 131.756 132.893 132.339 132.232C132.464 132.087 132.58 131.932 132.721 131.797C133.247 131.304 133.511 131.248 133.963 131.537C134.069 131.606 134.177 131.658 134.275 131.736C134.591 131.995 134.588 132.436 134.293 132.87C133.415 134.164 132.276 135.28 131.125 136.421C130.251 137.257 129.377 138.101 128.511 138.937L128.479 138.909L128.496 138.919Z" fill="#231F20"/>
<path d="M110.558 132.46C110.558 132.46 110.477 132.402 110.459 132.513L110.418 132.587C110.418 132.587 110.417 132.604 110.379 132.636L110.211 132.786L109.546 133.397C109.218 133.698 108.939 134.038 108.612 134.331C107.461 135.377 106.294 136.405 105.088 137.385C104.566 137.835 104.067 138.321 103.586 138.8C102.988 139.442 102.326 140.019 101.591 140.528C101.362 140.682 101.278 140.554 101.303 140.254C101.327 139.962 101.413 139.45 101.675 139.004C102.147 138.222 102.747 137.554 103.315 136.857C103.9 136.179 104.5 135.511 105.182 134.911C106.033 134.238 106.746 133.363 107.529 132.58L108.837 131.314L109.846 130.316C110.195 129.965 110.544 129.622 110.862 129.337L112.031 128.275C112.031 128.275 112.06 128.243 112.068 128.252L112.063 128.304L112.088 128.418L112.113 128.645L112.163 129.082L112.273 129.947L112.585 132.43C112.651 132.989 112.725 133.549 112.826 134.102C112.98 134.963 113.248 135.79 113.464 136.629C113.509 136.815 113.58 136.994 113.617 137.178C113.758 137.873 113.651 138.124 113.121 138.357C113.004 138.408 112.886 138.476 112.762 138.509C112.345 138.638 111.958 138.407 111.748 137.914C111.144 136.445 110.836 134.845 110.589 133.233L110.523 132.786C110.505 132.681 110.512 132.699 110.512 132.699C110.512 132.699 110.522 132.682 110.533 132.666C110.534 132.649 110.568 132.556 110.543 132.545L110.568 132.452L110.558 132.46Z" fill="#231F20"/>
<path d="M95.0266 14.3474C85.5254 13.5566 76.2219 21.8216 77.9388 30.7098C79.9601 41.1371 89.6871 44.8272 98.6793 45.8092L113.191 41.3771C113.191 41.3771 123.026 57.6968 144.184 61.7587C165.341 65.8206 157.207 62.8426 157.207 62.8426C157.207 62.8426 145.509 72.4394 145.583 78.7256C145.656 85.0117 148.875 88.2207 150.986 87.1853C153.096 86.1499 159.229 79.9133 161.961 79.933C164.693 79.9528 169.091 78.5543 169.349 82.2088C169.608 85.8547 169.878 86.9672 169.878 86.9672C169.878 86.9672 181.967 79.3232 183.98 75.8231C185.993 72.323 189.885 64.8445 188.43 59.5679C186.975 54.2913 184.159 49.2475 180.51 47.8798C176.861 46.5121 168.018 45.3003 168.018 45.3003C168.018 45.3003 160.211 4.09865 129.037 12.4984C129.037 12.4984 123.411 4.43528 112.019 7.13745C104.501 8.91646 101.12 14.4047 100.616 16.9318L95.0259 14.356L95.0266 14.3474Z" fill="#231F20"/>
<path d="M13.1681 158.436C12.7785 157.296 12.4247 156.142 12.1648 154.901C12.149 154.779 12.0745 154.53 12.0366 154.259L11.9448 153.49C11.8976 153.227 11.9083 152.994 11.9111 152.752C11.9218 152.519 11.8917 152.257 11.9425 152.062C12.0434 151.163 12.3977 150.543 13.019 150.041C13.5394 149.713 14.0727 149.645 14.5803 149.782C15.0979 149.903 15.6606 150.209 16.1998 150.695C16.4432 150.889 16.6751 151.116 16.8971 151.359L17.2307 151.715L17.5064 152.041C17.7584 152.339 17.9925 152.644 18.2359 152.941C18.7049 153.542 19.1567 154.142 19.6077 154.751C20.4934 155.957 21.3705 157.164 22.2855 158.33C23.0903 159.365 23.9687 160.347 24.8787 161.262C26.0514 162.449 27.2507 163.526 28.4434 164.681C28.83 165.025 28.7176 165.128 28.1986 165.128C27.9302 165.131 27.5787 165.093 27.1348 165.022C26.9222 164.978 26.6838 164.933 26.4576 164.844C26.2321 164.748 26.0166 164.635 25.7954 164.487C24.2511 163.502 22.991 162.22 21.819 160.92C20.6391 159.611 19.5501 158.249 18.5248 156.849C17.9112 156.011 17.2346 155.202 16.5466 154.427L16.0232 153.855L15.6732 153.489C15.5536 153.366 15.434 153.244 15.2887 153.119C15.1519 152.996 14.8892 152.827 14.736 153.004C14.6107 153.158 14.6015 153.374 14.5922 153.589C14.5922 153.693 14.6001 153.806 14.6165 153.92C14.6201 153.981 14.6244 154.033 14.6445 154.104L14.7168 154.482C14.8364 155.019 14.9811 155.568 15.1437 156.109C15.5425 157.448 16.028 158.786 16.5593 160.093C17.3799 162.082 18.2614 164.067 19.2989 165.944C20.103 167.404 21.0739 168.73 22.019 170.054C22.2287 170.34 22.4299 170.625 22.639 170.919C23.3786 172.01 23.4925 172.409 23.199 173.024C23.1353 173.166 23.0795 173.317 23 173.44C22.7409 173.851 22.0386 173.663 21.2797 172.908C20.7206 172.351 20.2072 171.763 19.7132 171.151C19.2378 170.524 18.7896 169.881 18.3607 169.214C17.503 167.879 16.7282 166.483 15.9993 165.055C14.9217 162.933 13.9629 160.734 13.123 158.458L13.186 158.429L13.1681 158.436Z" fill="#231F20"/>
<path d="M6.94992 164.873L6.85901 164.822C6.85901 164.822 6.86043 164.805 6.85256 164.796C6.8454 164.778 6.82894 164.768 6.81319 164.749C6.78097 164.721 6.74875 164.692 6.70794 164.663C6.62561 164.612 6.49458 164.524 6.37861 164.566C6.2061 164.664 6.26554 164.885 6.33428 165.099C6.35576 165.152 6.36293 165.17 6.40804 165.252C6.50685 165.416 6.59706 165.579 6.71376 165.736L7.35887 166.715C8.85816 169.071 10.6288 171.39 12.6177 173.476C13.5005 174.406 14.4677 175.256 15.4586 176.031C16.0907 176.542 16.7437 177.011 17.3973 177.472L18.3782 178.159C18.7154 178.369 18.9523 178.743 19.2666 179.02C19.5996 179.489 19.5681 179.452 19.0104 179.605C18.7262 179.693 18.3311 179.764 17.8228 179.843C17.3546 179.856 16.8821 179.713 16.4347 179.477C15.6493 179.039 14.8933 178.561 14.1745 178.052C13.465 177.534 12.7856 176.967 12.1427 176.377C10.8389 175.205 9.64755 173.929 8.55069 172.558C7.26981 170.903 5.71979 169.364 4.55271 167.485L4.23337 166.957L3.86463 166.294L3.45148 165.438C3.32832 165.151 3.2474 164.876 3.14142 164.591C3.06049 164.316 3.02253 164.044 2.96666 163.78C2.97021 163.53 2.91434 163.266 2.96873 163.028C2.98875 162.787 3.05959 162.56 3.13044 162.332C3.24353 162.117 3.38168 161.912 3.54631 161.701C4.34374 161.058 5.2801 161.136 6.31028 161.438C7.27174 161.734 8.38788 162.354 8.88115 162.664C9.50687 163.044 10.114 163.441 10.7118 163.845C12.5216 165.069 14.2084 166.42 15.9381 167.671C17.2847 168.64 18.6951 169.466 20.0733 170.368C20.3768 170.566 20.6918 170.731 20.9854 170.946C22.022 171.793 22.2104 172.233 21.9635 173.017C21.9055 173.194 21.8719 173.39 21.7981 173.548C21.5541 174.09 20.7967 174.148 19.871 173.734C19.1687 173.442 18.5258 173.059 17.8929 172.661C17.26 172.262 16.6379 171.838 16.0165 171.406C14.7822 170.542 13.5701 169.619 12.3573 168.705C10.5575 167.362 8.75263 165.975 6.93777 164.915L6.96926 164.849L6.94992 164.873Z" fill="#231F20"/>
<path d="M5.40747 180.375L4.89702 180.376L4.66294 180.383C4.66294 180.383 4.63718 180.381 4.62 180.379C4.56917 180.366 4.50973 180.353 4.44101 180.347C4.30356 180.335 4.09669 180.327 3.91415 180.441C3.87621 180.482 3.85401 180.54 3.85903 180.584C3.88195 180.724 4.09387 180.776 4.17405 180.852C4.26283 180.929 4.36018 181.006 4.51697 181.097C4.96871 181.282 5.4627 181.479 5.95095 181.64C6.9346 181.982 7.94759 182.282 8.97276 182.541C9.88839 182.764 10.8169 182.936 11.7411 183.056L13.5244 183.248C13.8243 183.282 14.115 183.323 14.4049 183.373C14.6884 183.397 14.9698 183.654 15.2361 183.78C15.2927 183.828 15.385 183.861 15.3521 183.945C15.3199 184.02 15.3414 184.074 15.3808 184.121C15.4953 184.199 15.4381 184.368 15.2469 184.585C15.0823 184.796 14.8146 185.103 14.5047 185.397C14.1904 185.639 13.8461 185.723 13.4745 185.718C12.1824 185.654 10.9231 185.506 9.66959 185.289C8.4175 185.055 7.18614 184.676 5.97053 184.211C5.24173 183.925 4.49934 183.699 3.70827 183.435C2.51343 183.032 1.22623 182.493 0.63913 181.752C0.377089 181.471 0.1945 181.17 0.0835052 180.841C-0.0618521 180.508 0.0082637 180.082 0.0998584 179.709C0.263764 179.402 0.446993 179.175 0.68894 178.971C0.946638 178.784 1.23729 178.618 1.5859 178.483C2.26596 178.211 3.11568 178.083 3.9375 177.978C4.12077 177.959 4.36702 177.91 4.47941 177.911L4.87961 177.883L5.67851 177.846C6.20826 177.821 6.73588 177.822 7.26419 177.814C8.86633 177.791 10.4513 177.871 12.0334 177.882C13.2618 177.88 14.4745 177.757 15.7058 177.721C15.9743 177.717 16.2456 177.679 16.5212 177.693C17.5392 177.726 17.8406 178.054 17.918 178.891C17.9366 179.083 17.9725 179.276 17.966 179.457C17.9511 180.053 17.4836 180.576 16.7749 180.673C14.6674 180.947 12.479 180.843 10.2805 180.651C8.64753 180.524 6.99672 180.404 5.40103 180.453L5.40604 180.393L5.40747 180.375Z" fill="#231F20"/>
<path d="M4.49076 188.499C4.03544 188.254 3.68535 187.991 3.43262 187.702C3.17988 187.413 3.09252 187.111 2.97937 186.704C3.02229 186.396 3.10673 186.109 3.22841 185.894C3.39304 185.683 3.54837 185.48 3.79676 185.302C4.21194 184.99 4.76457 184.69 5.43677 184.513C5.72025 184.432 6.02878 184.363 6.31083 184.3L6.7332 184.214L7.0138 184.168C7.37245 184.12 7.73039 184.081 8.08833 184.041C8.79561 183.962 9.50792 183.926 10.2195 183.899C10.8445 183.873 11.4651 183.795 12.0858 183.717C12.8797 183.636 13.6772 183.615 14.4926 183.796C14.7467 183.86 14.716 184.126 14.5256 184.439C14.3352 184.751 13.9894 185.164 13.5621 185.31C13.1805 185.425 12.7968 185.566 12.4174 185.656L11.2527 185.827C10.4753 185.918 9.70499 186.027 8.90177 186.012C8.42643 186.007 7.95253 186.089 7.48578 186.188L7.0799 186.284C7.00044 186.303 6.92954 186.324 6.8329 186.341C6.70977 186.366 6.56875 186.397 6.4263 186.446C6.29243 186.495 6.09629 186.566 6.07483 186.72C6.11421 186.87 6.21946 186.956 6.35048 187.045C6.57241 187.185 6.84806 187.303 7.20314 187.402C8.12665 187.634 9.12316 187.821 10.0975 187.859C10.857 187.879 11.6022 187.759 12.3067 187.61L12.7577 187.492C13.3039 187.373 13.4635 187.43 13.7492 187.843C13.8108 187.934 13.8895 188.027 13.9511 188.119C14.1587 188.43 13.9855 188.848 13.4816 189.083C11.9912 189.738 10.4141 189.771 8.86849 189.634C8.29292 189.586 7.72165 189.486 7.14321 189.369L6.6342 189.249C6.38005 189.184 6.13377 189.129 5.88106 189.048C5.3649 188.909 4.91387 188.716 4.46213 188.532L4.50796 188.501L4.49076 188.499Z" fill="#231F20"/>
<path d="M59.3644 265.52L58.1392 268.913C57.9925 269.325 57.8959 269.758 57.7406 270.169C57.1616 271.617 56.5246 273.034 55.8712 274.442C55.5519 275.055 55.3165 275.702 55.0402 276.319C54.7382 277.142 54.2944 277.9 53.7433 278.598C53.5693 278.818 53.3818 278.681 53.2271 278.357C53.081 278.033 52.9256 277.51 53.0272 277.016C53.1696 276.137 53.5117 275.353 53.77 274.535C54.0456 273.719 54.3705 272.933 54.7649 272.144C55.2158 271.195 55.409 270.122 55.6931 269.099L56.6427 265.692L57.2259 263.569C57.5057 262.494 57.8371 261.423 58.066 260.335C58.2406 259.484 58.2613 258.612 58.3679 257.747C58.3836 257.558 58.3915 257.36 58.4244 257.172C58.6369 256.489 58.9003 256.338 59.6384 256.408C59.8016 256.422 59.9735 256.436 60.136 256.459C60.6815 256.556 61.0452 256.967 61.104 257.508C61.2315 259.093 60.805 260.58 60.4265 262.114C60.1245 263.248 59.7702 264.386 59.4403 265.544L59.3716 265.538L59.3644 265.52Z" fill="#231F20"/>
<path d="M68.6132 259.768C65.5198 259 62.4035 258.196 59.3115 257.307C58.1789 256.988 57.0342 256.711 55.9138 256.349C51.9742 255.044 48.0847 253.449 44.4822 251.315C42.8721 250.394 41.2856 249.397 39.8236 248.254C39.3618 247.879 38.8815 247.519 38.4383 247.127C38.0051 246.719 37.5534 246.327 37.1403 245.886C36.7551 245.421 36.3878 244.95 36.0205 244.478C35.6618 244.007 35.3689 243.472 35.056 242.97C34.6852 242.334 34.94 242.286 35.5643 242.58C35.8807 242.728 36.2866 242.943 36.7391 243.223C37.2002 243.503 37.7557 243.792 38.2411 244.196C39.1725 244.853 39.9823 245.621 40.9352 246.228C41.3833 246.559 41.8594 246.867 42.3455 247.158C42.8324 247.441 43.2791 247.789 43.7753 248.064C45.7004 249.254 47.7314 250.314 49.8369 251.311C52.3476 252.532 55.1604 253.346 57.9217 254.155C60.9607 255.057 64.0426 255.858 67.1546 256.61C69.0718 257.064 70.9975 257.518 72.9154 257.963C75.8349 258.639 78.7593 259.358 81.6616 260.136C83.9116 260.747 86.1696 261.264 88.3824 262.218C88.8671 262.422 89.3611 262.619 89.8307 262.901C90.0448 263.031 90.2517 263.143 90.4328 263.253C90.6039 263.38 90.7664 263.506 90.9039 263.621C91.1788 263.852 91.3872 264.051 91.5347 264.253C91.8103 264.683 91.849 265.049 91.7374 265.455C91.6873 265.641 91.6529 265.846 91.5713 265.995C91.4289 266.251 91.1276 266.339 90.7517 266.282C90.3759 266.224 89.9427 266.024 89.3772 265.752C87.7527 264.899 85.8935 264.268 83.9542 263.666C82.0141 263.072 79.9831 262.531 77.932 262.023C74.8723 261.266 71.7495 260.539 68.6089 259.819L68.6146 259.751L68.6132 259.768Z" fill="#231F20"/>
<path d="M77.4529 172.194L79.6174 168.949C79.875 168.555 80.0669 168.121 80.3331 167.728L81.7504 165.666C82.2392 164.989 82.7281 164.312 83.1912 163.632C83.6049 163.027 83.9621 162.373 84.3092 161.736C84.5497 161.341 84.7745 160.927 85.0321 160.533C85.2819 160.13 85.5554 159.755 85.9541 159.433C86.196 159.229 86.3249 159.343 86.4681 159.701C86.5397 159.88 86.6235 160.121 86.7037 160.404C86.7589 160.677 86.7532 160.953 86.6701 161.223L86.1999 162.611C86.0239 163.064 85.782 163.476 85.5644 163.908C85.1049 164.752 84.6031 165.584 84.0362 166.367C83.3355 167.303 82.838 168.395 82.2339 169.417L80.2098 172.744L78.9837 174.795C78.3782 175.835 77.7469 176.872 77.2409 177.963C76.8508 178.805 76.6196 179.711 76.3391 180.587C76.2797 180.781 76.2375 180.977 76.1609 181.169C75.8782 181.864 75.6069 182.005 74.8839 181.859C74.7221 181.828 74.551 181.805 74.3906 181.757C73.8587 181.6 73.5694 181.127 73.6445 180.536C73.867 178.798 74.6156 177.183 75.4216 175.606C76.0292 174.437 76.6863 173.298 77.3763 172.179L77.4343 172.21L77.4529 172.194Z" fill="#231F20"/>
<path d="M105.756 136.351C105.063 137.098 104.353 137.834 103.626 138.561C102.441 139.803 101.069 141.125 100.011 141.668C99.6211 141.887 99.2746 141.996 98.9475 142.081C98.6039 142.157 98.3741 142.112 97.9646 141.939L97.898 141.908L97.8808 141.906C97.8314 141.98 97.8629 141.913 97.8443 141.929L97.8199 141.91C97.8199 141.91 97.7641 141.853 97.7405 141.825C97.7018 141.77 97.6617 141.732 97.641 141.67C97.5987 141.554 97.5658 141.43 97.5321 141.315C97.4841 141.06 97.3889 140.853 97.3659 140.505C97.2735 139.849 97.6342 138.633 97.919 137.602L98.3505 136.054L98.6604 135.034C98.8407 134.426 99.0046 133.808 99.1592 133.198C99.4318 132.105 99.5856 130.985 99.6857 129.886L99.828 127.761C99.8694 127.055 99.9023 126.348 100.032 125.624C100.104 125.172 100.335 125.199 100.695 125.558C100.879 125.738 101.099 125.998 101.313 126.336C101.51 126.673 101.65 127.073 101.7 127.51C101.891 129.066 101.787 130.623 101.582 132.145C101.484 132.907 101.343 133.665 101.177 134.413C101.094 134.786 101.003 135.159 100.903 135.523L100.754 136.073C100.731 136.14 100.691 136.31 100.683 136.301L100.635 136.357C100.487 136.578 100.372 136.915 100.305 137.203C100.267 137.347 100.238 137.492 100.217 137.637C100.211 137.706 100.202 137.818 100.298 137.808C100.367 137.814 100.43 137.776 100.485 137.746C100.728 137.628 100.969 137.432 101.249 137.195L101.463 137.006L101.585 136.895L101.651 136.831L101.775 136.694L102.791 135.602C103.611 134.693 104.432 133.767 105.211 132.819C106.404 131.379 107.605 129.939 108.666 128.419C109.491 127.233 110.141 125.964 110.842 124.724C110.994 124.452 111.121 124.168 111.282 123.896C111.893 122.9 112.247 122.696 113.074 122.947C113.26 122.997 113.447 123.038 113.615 123.104C114.175 123.332 114.375 124.05 114.021 124.868C112.997 127.309 111.418 129.547 109.732 131.717C108.482 133.325 107.142 134.875 105.786 136.414L105.728 136.374L105.756 136.351Z" fill="#231F20"/>
<path d="M114.303 133.542L114.14 137.576C114.117 138.067 114.172 138.548 114.122 139.037C113.954 140.753 113.759 142.467 113.626 144.168C113.563 144.924 113.569 145.686 113.524 146.435C113.47 147.399 113.528 148.364 113.24 149.326C113.155 149.622 113.045 149.587 112.851 149.328C112.749 149.199 112.617 149.023 112.471 148.804C112.342 148.585 112.251 148.327 112.204 148.055C112.069 147.075 111.892 146.091 111.87 145.103C111.839 144.123 111.844 143.138 111.917 142.149C112.016 140.963 111.832 139.746 111.785 138.539L111.726 134.573C111.707 133.758 111.68 132.943 111.626 132.134C111.547 130.907 111.486 129.665 111.274 128.463C111.101 127.531 110.76 126.638 110.462 125.748C110.401 125.553 110.304 125.363 110.252 125.16C110.045 124.425 110.242 124.138 110.978 123.819C111.148 123.747 111.319 123.666 111.489 123.602C112.076 123.409 112.637 123.628 112.938 124.164C113.765 125.772 114.097 127.599 114.222 129.426C114.334 130.785 114.34 132.161 114.357 133.52L114.288 133.514L114.303 133.542Z" fill="#231F20"/>
<path d="M128.73 136.957L125.451 140.395C125.053 140.812 124.703 141.275 124.288 141.682C122.829 143.109 121.354 144.517 119.774 145.822C119.093 146.422 118.404 147.014 117.748 147.617L116.435 148.736C115.958 149.068 115.442 149.345 114.919 149.596C114.547 149.695 114.538 149.599 114.607 149.189C114.683 148.798 114.874 148.156 115.272 147.636C116.885 146.031 118.4 144.358 120.111 142.814C121.156 141.906 121.997 140.73 122.917 139.656C123.924 138.469 124.94 137.282 125.931 136.075C126.547 135.331 127.163 134.586 127.762 133.831C128.662 132.678 129.621 131.555 130.464 130.363C131.121 129.431 131.612 128.417 132.187 127.427C132.309 127.212 132.415 126.979 132.553 126.774C133.076 126.004 133.43 125.904 134.235 126.308C134.418 126.401 134.611 126.478 134.783 126.587C135.367 126.956 135.573 127.596 135.295 128.23C134.481 130.109 133.211 131.759 131.889 133.405C130.905 134.629 129.838 135.803 128.787 136.996L128.73 136.957Z" fill="#231F20"/>
<path d="M129.88 116.292C126.558 123.368 117.753 126.476 112.036 125.317C106.32 124.158 105.494 119.219 105.494 119.219C105.494 119.219 116.886 120.47 119.876 119.465C122.261 118.66 129.88 116.292 129.88 116.292Z" fill="#231F20"/>
<path d="M118.682 56.2626C119.649 55.7635 120.662 55.5537 121.688 55.5872C122.982 55.6343 124.066 55.9148 125.271 56.3958C127.616 57.3262 129.736 58.878 131.395 60.772C132.832 62.4141 135.428 60.2254 133.981 58.5826C130.117 54.1868 123.016 50.2395 117.215 53.2081C115.272 54.2055 116.73 57.2679 118.681 56.2712L118.682 56.2626Z" fill="#231F20"/>
<path d="M190.008 57.0265C190.652 60.5142 190.351 64.0185 189.456 67.2916C189.277 67.8822 189.157 68.495 188.953 69.0748C188.749 69.6547 188.545 70.2346 188.316 70.8038C187.408 72.7697 186.361 74.6547 185.053 76.3364C184.452 77.212 183.722 77.9902 183.065 78.8093C182.327 79.5696 181.646 80.3693 180.87 81.0745C180.194 81.7103 179.525 82.364 178.81 82.9618C178.456 83.2611 178.118 83.579 177.757 83.8689L176.665 84.7209C176.21 85.0982 175.723 85.4383 175.228 85.7691C174.734 86.0999 174.262 86.4672 173.737 86.7436C173.22 87.0379 172.702 87.3322 172.178 87.6C171.638 87.8491 171.069 88.0353 170.508 88.2308C169.805 88.4664 169.744 88.0634 170.101 87.4011C170.461 86.7217 171.179 85.7781 172.25 85.08C176.062 82.612 179.353 79.4518 182.224 75.9194C183.934 73.778 185.146 71.1627 186.045 68.5733C187.036 65.7147 187.523 62.6672 187.237 59.6591C187.071 57.8114 186.624 56.001 185.808 54.376C185.174 53.1555 184.35 52.0402 183.367 51.0675C182.384 50.0947 181.174 49.3539 179.928 48.7398C177.944 47.8394 175.775 47.5032 173.615 47.3666C173.143 47.3187 172.664 47.3653 172.183 47.3167C170.404 47.1859 169.842 46.9747 169.475 45.9754C169.39 45.7521 169.279 45.5266 169.228 45.3061C169.066 44.5573 169.857 43.9917 171.305 43.844C173.453 43.7028 175.704 43.8815 177.967 44.4504C180.218 45.053 182.485 46.0807 184.467 47.6297C187.414 49.9424 189.43 53.4665 190.062 56.9964L189.983 57.0158L190.008 57.0265Z" fill="#231F20"/>
<path d="M111.48 121.292C105.9 120.68 100.454 118.35 96.2584 114.61C94.7292 113.237 93.3281 111.779 92.1216 110.165C89.9802 107.314 88.3355 104.106 87.2577 100.738C86.1542 97.3681 85.7129 93.8367 85.7175 90.3511C85.7415 87.2563 85.9911 84.1544 86.5864 81.1591L87.2483 78.2991C87.5166 77.3613 87.8029 76.4163 88.0884 75.4799C88.7776 73.6429 89.6337 71.8803 90.5541 70.175C91.1274 69.1068 91.1539 69.308 90.9987 70.3417C90.9078 70.9137 90.7955 71.6396 90.6667 72.4593C90.5423 73.3313 90.4471 74.37 90.2203 75.4324L89.5634 78.2323C89.3301 79.1644 89.2164 80.1151 89.0261 81.0508C88.7392 82.9386 88.5139 84.8142 88.3738 86.7056C88.12 90.4819 88.3674 94.2652 89.2103 97.9598C89.4911 99.0558 89.7525 100.176 90.2 101.243C90.5674 102.337 91.113 103.369 91.6321 104.407C92.7699 106.43 94.0951 108.383 95.6652 110.097C98.958 113.978 103.477 116.742 108.475 117.902C110.009 118.289 111.584 118.48 113.157 118.603C114.742 118.683 116.334 118.677 117.923 118.506C122.728 118.041 127.482 116.525 131.654 114.096C133.265 113.14 134.782 112.064 136.188 110.866C137.577 109.658 138.879 108.356 140.084 106.978C140.594 106.354 141.095 105.738 141.573 105.095C143.397 102.712 143.97 101.964 145.011 101.817C145.248 101.785 145.505 101.702 145.712 101.72C146.055 101.748 146.173 102.095 146.053 102.708C145.95 103.322 145.6 104.202 144.971 105.213C141.275 111.272 135.127 116.236 128.09 118.989C122.874 121.064 117.126 121.943 111.466 121.36L111.472 121.291L111.48 121.292Z" fill="#231F20"/>
<path d="M127.055 53.88C129.305 55.3216 131.739 56.5276 134.276 57.5346C135.197 57.9053 136.163 58.1414 137.104 58.4792C140.437 59.5957 143.876 60.4701 147.387 60.9959C148.942 61.2292 150.528 61.3006 152.085 61.3004C153.088 61.3061 154.085 61.2766 155.087 61.2994L156.593 61.3902C157.094 61.3973 157.6 61.4481 158.116 61.4824C158.759 61.5532 158.713 61.6878 158.237 62.1152C157.766 62.5691 156.823 63.3037 155.616 63.6703C155.351 63.7348 155.084 63.825 154.812 63.8716C154.541 63.9096 154.269 63.9475 153.999 63.9769C153.458 64.0271 152.916 64.103 152.379 64.1102C151.297 64.1154 150.219 64.0775 149.145 63.9881C146.997 63.8094 144.863 63.476 142.771 62.9386C140.274 62.281 137.641 61.8023 135.132 60.9707C132.38 60.0496 129.698 58.9181 127.15 57.5124C125.588 56.647 124.067 55.6901 122.614 54.6436C120.41 53.0675 118.404 51.1878 116.598 49.1863C115.206 47.6259 113.831 46.0582 112.663 44.2916C112.428 43.8914 112.166 43.5149 111.94 43.1069C111.501 42.3524 111.349 41.7861 111.324 41.3688C111.307 40.9435 111.462 40.6364 111.783 40.3171C111.925 40.1732 112.069 40.0035 112.225 39.8954C112.766 39.5252 113.527 39.9432 114.147 40.9117C115.128 42.3255 116.09 43.755 117.207 45.0936C117.729 45.7858 118.343 46.4164 118.901 47.0857C119.524 47.7085 120.1 48.3706 120.77 48.954C122.679 50.7478 124.78 52.4191 127.087 53.8048L127.047 53.8707L127.055 53.88Z" fill="#231F20"/>
<path d="M106.381 1.51279C108.736 0.549696 111.258 0.0676576 113.754 0.0158606C114.212 0.0193934 114.663 0.00502762 115.122 -3.02358e-05C115.579 0.020684 116.036 0.0414003 116.481 0.0871712C118.071 0.314659 119.628 0.738301 121.092 1.33591C122.565 1.92565 123.954 2.69865 125.188 3.66639C125.761 4.06007 126.267 4.53465 126.82 4.95267C127.317 5.42653 127.86 5.86101 128.32 6.36637C128.952 6.98125 129.473 7.69064 129.975 8.40718C130.486 9.12444 130.743 9.9935 131.003 10.8196C131.15 11.3422 130.895 11.3902 130.348 11.1976C130.071 11.1053 129.72 10.955 129.329 10.7668C129.121 10.663 128.922 10.5685 128.723 10.4655C128.615 10.4132 128.525 10.3452 128.408 10.3008C128.327 10.225 128.247 10.1491 128.167 10.0732C127.906 9.77472 127.609 9.50773 127.328 9.24217L126.903 8.84346C126.758 8.71032 126.594 8.60153 126.458 8.4691C125.924 7.92294 125.334 7.42404 124.743 6.94231C123.55 5.99532 122.269 5.17076 120.908 4.37412C119.255 3.44937 117.254 3.17897 115.334 3.06248C113.209 2.92024 111.057 3.21683 108.996 3.86706C107.741 4.29027 106.526 4.85523 105.386 5.56478C103.686 6.66025 102.119 8.0263 100.951 9.69371C100.047 10.9938 99.4921 12.4614 99.024 13.9276C98.9274 14.2569 98.8737 14.5898 98.7693 14.9098C98.3921 16.1154 98.1387 16.4576 97.2253 16.52C97.0248 16.5379 96.8144 16.5723 96.6161 16.5644C95.9517 16.5438 95.5844 15.8644 95.691 14.792C96.0665 11.6314 97.6404 8.41476 100.015 5.87029C101.749 3.94726 103.988 2.50739 106.325 1.44765L106.363 1.51996L106.381 1.51279Z" fill="#231F20"/>
<path d="M155.657 10.1119C157.207 11.2442 158.697 12.4582 160.079 13.8361C160.766 14.5247 161.378 15.2764 162.028 15.9879C162.362 16.3358 162.65 16.723 162.929 17.1096L163.784 18.2706C164.223 18.8175 164.598 19.4024 164.982 19.9879C165.357 20.5727 165.778 21.1354 166.089 21.7582C166.629 22.8584 167.223 23.9286 167.646 25.0797L168.327 26.7712L168.902 28.4972C169.317 29.639 169.555 30.8266 169.883 31.987C170.025 32.5697 170.122 33.166 170.246 33.7559C170.37 34.3458 170.485 34.9349 170.565 35.5298L170.788 37.114C170.856 37.6473 170.89 38.1778 170.949 38.7104C171.078 39.7678 171.092 40.8416 171.143 41.8925L171.12 43.9406C171.08 44.6207 170.979 45.313 170.897 45.9895C170.629 47.3425 170.333 48.7192 169.582 49.937C169.039 50.6443 169.037 50.4625 169.006 49.6901C168.988 49.4896 168.997 49.2827 169.008 49.0415C168.995 48.7809 168.984 48.5031 168.973 48.2168C168.987 47.6384 168.914 46.949 168.949 46.2252C168.963 43.6574 168.808 41.0494 168.374 38.4787C167.904 35.9138 167.505 33.3288 166.783 30.7775C165.966 27.7079 164.375 24.7901 162.671 22.0792C162.197 21.3305 161.741 20.5745 161.175 19.8959C160.636 19.2023 160.135 18.4686 159.512 17.8372C158.908 17.1987 158.352 16.5037 157.7 15.9131C157.058 15.3147 156.39 14.7228 155.691 14.1802C153.979 12.8181 152.135 11.5834 150.2 10.514C147.281 8.90431 144.14 7.56164 140.924 7.02577C138.431 6.628 135.911 6.86808 133.863 7.77888C133.406 7.97437 133.011 8.24429 132.601 8.49561C131.844 8.96888 131.405 9.34763 130.976 9.51948C130.539 9.68203 130.189 9.72215 129.69 9.59406C129.469 9.54111 129.22 9.52037 129.01 9.44236C128.667 9.30996 128.52 8.99499 128.596 8.491C128.664 7.9863 128.988 7.31262 129.641 6.64035C130.607 5.63945 131.842 4.83396 133.166 4.30407C134.5 3.76631 135.914 3.50344 137.305 3.42026C140.101 3.28968 142.806 3.8435 145.322 4.6844C149.077 5.93108 152.491 7.83282 155.672 10.0353L155.632 10.1097L155.657 10.1119Z" fill="#231F20"/>
<path d="M80.0854 143.358C81.1956 141.971 82.3466 140.613 83.4883 139.264C83.9099 138.771 84.2907 138.249 84.7202 137.766C86.262 136.078 87.8604 134.438 89.5053 132.862C90.2541 132.18 90.9476 131.433 91.6627 130.74C92.1237 130.294 92.5611 129.82 93.0385 129.384C93.5317 128.967 94.0564 128.587 94.5969 128.225C94.9434 128.012 95.0794 128.248 95.0408 128.712C95.0029 129.167 94.814 129.878 94.3516 130.445C92.5699 132.312 90.8799 134.222 88.9673 136C87.8399 137.074 86.8829 138.387 85.8887 139.628C84.7813 140.98 83.7055 142.37 82.6375 143.769C81.9941 144.641 81.3341 145.503 80.7157 146.386C79.7651 147.725 78.7809 149.053 77.9048 150.433C77.2191 151.501 76.6831 152.641 76.0632 153.749C75.9308 153.989 75.8148 154.239 75.6567 154.476C75.0991 155.355 74.7648 155.527 74.0976 155.333C73.9458 155.285 73.784 155.255 73.6415 155.2C73.1662 154.987 73.0509 154.398 73.3522 153.688C74.2124 151.562 75.5094 149.594 76.85 147.621C77.8457 146.155 78.9408 144.741 80.0281 143.318L80.0775 143.348L80.0854 143.358Z" fill="#231F20"/>
<path d="M173.864 267.533C179.055 263.571 183.634 258.753 186.56 253.011C188.052 250.159 189.051 247.085 189.617 243.923C190.162 240.803 190.117 237.503 189.854 234.22C189.475 229.422 188.506 224.645 187.412 219.909C185.443 211.553 182.798 203.323 179.732 195.265C176.666 187.199 173.155 179.295 169.255 171.591C165.793 164.755 161.928 158.076 157.797 151.694C157.148 150.662 156.444 149.661 155.767 148.645C155.081 147.636 154.396 146.619 153.674 145.633C152.284 143.623 150.83 141.66 149.385 139.688L147.143 136.794C146.412 135.808 145.587 134.917 144.856 133.931C144.115 132.952 143.327 132.03 142.54 131.091L141.378 129.671L140.17 128.29C138.174 125.979 138.49 126.23 140.525 127.861C141.557 128.665 143 129.832 144.683 131.33C146.375 132.82 148.272 134.665 150.078 136.865C156.687 144.552 162.125 153.118 167.165 161.876C172.079 170.711 176.456 179.855 180.193 189.309C182.431 194.954 184.602 200.766 186.531 206.696C188.468 212.627 190.169 218.685 191.336 224.828C191.99 228.204 192.493 231.611 192.715 235.081C192.938 238.525 192.893 242.085 192.18 245.555C191.486 249.009 190.206 252.337 188.522 255.415C186.815 258.473 184.719 261.309 182.329 263.835C176.446 270.084 169.166 274.711 161.608 278.424C150.088 284.014 137.675 287.548 125.307 290.022C115.67 291.91 106.11 293.277 96.3597 293.711C94.2156 293.8 92.1074 293.876 89.9397 293.834C85.9143 293.767 83.2562 293.485 81.4092 293.124C79.5629 292.754 78.537 292.297 77.7623 291.73C77.4123 291.468 76.9433 291.178 76.755 290.946C76.1565 290.135 79.3572 290.341 85.0685 290.522C89.3129 290.659 93.6376 290.56 97.9937 290.292C102.356 290.049 106.75 289.636 111.164 289.087C119.985 287.978 128.877 286.314 137.585 283.951C144.047 282.187 150.418 280.053 156.548 277.38C162.663 274.697 168.561 271.486 173.8 267.467L173.857 267.515L173.864 267.533Z" fill="#231F20"/>
<path d="M147.93 218.603C147.394 217.036 146.815 215.474 146.129 213.947C145.881 213.39 145.57 212.862 145.314 212.305C144.432 210.328 143.535 208.324 142.555 206.374C142.126 205.508 141.634 204.663 141.195 203.805C140.611 202.709 140.037 201.606 139.607 200.429C139.473 200.063 139.667 200.018 140.015 200.203C140.363 200.388 140.911 200.771 141.33 201.342C142.058 202.371 142.849 203.363 143.503 204.438C144.158 205.513 144.793 206.613 145.355 207.758C146.028 209.129 146.957 210.443 147.68 211.835C148.468 213.38 149.229 214.94 149.891 216.552C150.32 217.531 150.667 218.554 151.06 219.547C151.59 221.088 152.057 222.649 152.489 224.207C152.646 224.817 152.874 225.399 153.067 225.994L153.626 227.797C153.708 228.063 153.789 228.329 153.836 228.601C154.019 229.62 153.86 229.979 153.1 230.27C152.931 230.334 152.759 230.423 152.583 230.461C151.982 230.61 151.432 230.261 151.168 229.582C150.428 227.565 149.883 225.478 149.298 223.362C148.902 221.781 148.411 220.2 147.857 218.641L147.92 218.611L147.93 218.603Z" fill="#231F20"/>
<path d="M83.3409 240.493C84.2974 241.368 85.4608 242.148 86.6808 242.873C87.9014 243.589 89.1808 244.223 90.4916 244.79C93.1319 245.91 95.8459 246.767 98.6485 246.974C100.768 247.185 102.888 247.171 105.018 247.15C112.524 247.074 120.046 245.555 127.321 243.271C130.555 242.243 133.73 240.993 136.861 239.74C138.868 238.912 140.86 238.049 142.86 237.194C143.864 236.776 144.883 236.385 145.901 236.003L147.436 235.43C147.953 235.248 148.491 235.12 149.014 234.965C150.341 234.617 150.229 234.815 149.347 235.641C148.486 236.53 146.802 237.955 144.568 239.127C140.533 241.04 136.452 242.889 132.224 244.432C127.995 245.974 123.638 247.29 119.169 248.189C113.835 249.294 108.179 250.216 102.55 250.093C101.008 250.112 99.4664 249.932 97.9265 249.829C96.3372 249.697 94.7666 249.341 93.2632 248.905C90.2492 248.014 87.3949 246.764 84.708 245.165C83.075 244.208 81.4212 242.98 80.1139 241.539C78.7793 240.113 77.6452 238.566 76.6192 236.966C75.0641 234.553 73.753 232.014 72.4835 229.494C71.8534 228.231 71.2312 226.977 70.5889 225.756C70.2674 225.149 69.9288 224.542 69.5858 223.985C69.3717 223.648 69.1483 223.318 68.8491 223.068C68.7259 222.988 68.5956 222.891 68.4381 222.912C68.2899 222.926 68.1525 223.018 68.0401 223.121C67.8154 223.328 67.7037 223.63 67.6458 223.91C67.6164 224.055 67.6043 224.201 67.5921 224.347C67.5864 224.416 67.5807 224.485 67.5914 224.563C67.5907 224.676 67.5807 224.796 67.5879 224.918C67.5908 225.402 67.6438 225.908 67.7061 226.407C67.997 228.42 68.5728 230.441 69.2466 232.426C69.5459 233.298 69.8825 234.139 70.2076 235.014C71.4435 238.248 71.798 239.29 71.4652 240.274C71.3951 240.493 71.3464 240.766 71.2462 240.931C70.9162 241.466 69.8488 240.365 68.6974 237.985C67.8496 236.219 67.0763 234.39 66.4139 232.475C65.7608 230.553 65.1635 228.582 64.8877 226.388C64.8125 225.837 64.7731 225.272 64.7709 224.675L64.7844 224.096C64.8044 223.856 64.8423 223.608 64.8709 223.368C64.8917 223.119 64.9539 222.891 65.0162 222.662C65.0706 222.425 65.1328 222.196 65.2359 221.997C65.5751 221.143 66.1313 220.489 66.8242 220.062C66.9896 219.946 67.1865 219.867 67.3747 219.788L67.5179 219.73C67.5831 219.779 67.6231 219.713 67.6754 219.709C67.7735 219.674 67.8715 219.639 67.9689 219.612C68.3855 219.595 68.7929 219.586 69.1616 219.729C69.9032 219.964 70.6084 220.533 71.2278 221.302C71.5256 221.673 71.8242 222.139 72.0712 222.497L72.4972 223.198C73.0421 224.135 73.5197 225.048 73.9973 225.961C75.3906 228.655 76.7096 231.308 78.2139 233.812C79.711 236.298 81.3821 238.669 83.3968 240.446L83.3481 240.511L83.3409 240.493Z" fill="#231F20"/>
<path d="M163.428 291.291C163.392 292.344 163.373 293.406 163.397 294.464C163.408 294.854 163.49 295.224 163.492 295.613C163.517 296.973 163.559 298.344 163.688 299.695C163.742 300.297 163.865 300.895 163.99 301.476C164.152 302.225 164.324 302.975 164.301 303.768C164.289 304.018 163.974 304.053 163.595 303.935C163.225 303.809 162.755 303.527 162.583 303.098C162.442 302.723 162.3 302.339 162.185 301.958C162.088 301.569 162.008 301.182 161.937 300.786C161.795 299.996 161.697 299.201 161.669 298.394C161.637 297.422 161.363 296.457 161.237 295.477C161.101 294.402 161 293.33 160.926 292.251L160.797 290.259C160.725 289.259 160.741 288.239 160.633 287.244C160.568 286.469 160.266 285.726 160.183 284.958C160.163 284.792 160.116 284.623 160.113 284.45C160.097 283.817 160.287 283.608 160.957 283.456C161.107 283.426 161.266 283.378 161.415 283.356C161.931 283.287 162.369 283.531 162.584 283.972C163.287 285.294 163.361 286.693 163.442 288.109C163.51 289.153 163.491 290.216 163.498 291.28L163.436 291.292L163.428 291.291Z" fill="#231F20"/>
<path d="M96.694 57.4081C95.7272 60.8137 94.0138 64.9788 96.3658 68.2108C97.119 69.2423 98.3168 69.9215 99.5345 70.2564C100.321 70.469 101.177 70.1682 101.469 69.3621C101.727 68.6483 101.361 67.6404 100.574 67.4279C100.244 67.3399 99.9344 67.2189 99.6251 67.0894C99.4669 67.0157 99.4834 67.0257 99.6659 67.1187C99.6001 67.0786 99.5335 67.0471 99.4762 67.0078C99.386 66.9484 99.2958 66.889 99.2056 66.8296C99.1154 66.7701 98.8132 66.4509 99.0989 66.7601C99.0116 66.6663 98.9156 66.5719 98.829 66.4695C98.766 66.3951 98.529 66.0207 98.7567 66.4029C98.7116 66.3213 98.6579 66.239 98.6135 66.1488C98.554 66.0314 98.5032 65.9147 98.4524 65.7981C98.2762 65.4201 98.4653 65.9548 98.4159 65.7172C98.3657 65.4881 98.3056 65.2755 98.2726 65.0478C98.249 64.9161 98.2432 64.7772 98.2282 64.6462C98.216 64.4808 98.2131 64.5152 98.2289 64.7414C98.2346 64.6727 98.2232 64.6026 98.2203 64.5331C98.2246 64.274 98.2288 64.0148 98.2424 63.7478C98.2867 63.2152 98.3647 62.694 98.4692 62.1664C98.4856 62.0726 98.5887 61.666 98.4749 62.0977C98.5121 61.9624 98.5408 61.8263 98.5694 61.6903C98.6331 61.4448 98.6974 61.1906 98.7697 60.9458C99.0037 60.1089 99.2879 59.2935 99.5305 58.4573C99.7516 57.6712 99.4422 56.8151 98.6361 56.5231C97.9145 56.2554 96.923 56.6314 96.7019 57.4174L96.694 57.4081Z" fill="#231F20"/>
<path d="M112.028 61.7899C110.992 63.425 110.02 65.1261 109.25 66.9044C108.434 68.8087 107.695 71.1347 108.32 73.1935C109.025 75.5272 111.582 76.8127 113.92 76.7909C116.447 76.7678 118.722 75.6336 120.737 74.1837C122.752 72.7339 124.5 70.959 125.918 68.9838C127.054 67.4001 124.576 65.6715 123.451 67.2473C123.236 67.5408 123.021 67.8344 122.791 68.1093C122.665 68.2718 122.531 68.425 122.396 68.5868C122.33 68.6591 122.272 68.7321 122.205 68.8044C122.157 68.861 122.109 68.9176 122.062 68.9655C122.138 68.8854 122.138 68.8854 122.062 68.9655C121.378 69.7044 120.645 70.4046 119.874 71.0411C119.103 71.6776 118.348 72.2289 117.522 72.6879C116.597 73.1991 115.835 73.5249 114.921 73.6911C114.693 73.7326 114.457 73.7649 114.23 73.7892C114.474 73.7663 113.961 73.7928 113.867 73.785C113.634 73.7743 113.412 73.7471 113.181 73.7106C112.9 73.6612 113.518 73.8165 113.054 73.6827C112.902 73.6354 112.759 73.5889 112.607 73.5417C112.154 73.3742 112.057 73.2883 111.607 72.9827C111.525 72.924 111.368 72.7293 111.566 72.9533C111.519 72.8975 111.465 72.8152 111.408 72.7758C111.351 72.7365 111.255 72.5296 111.414 72.8109C111.353 72.7107 111.31 72.5947 111.25 72.4945C111.119 72.2933 111.219 72.4487 111.247 72.5289C111.227 72.4494 111.199 72.3692 111.189 72.2905C111.145 72.0879 111.111 71.8774 111.102 71.6691C111.126 71.9998 111.114 71.5231 111.124 71.4114C111.143 71.1794 111.162 70.9475 111.199 70.717C111.217 70.5974 111.236 70.4779 111.263 70.359C111.32 70.087 111.174 70.7062 111.289 70.2488C111.34 70.0541 111.392 69.8507 111.451 69.6567C111.595 69.1756 111.773 68.706 111.958 68.2457C112.165 67.7266 112.397 67.2269 112.646 66.7287C112.853 66.322 112.948 66.1223 113.241 65.619C113.637 64.9081 114.058 64.2165 114.495 63.5349C115.531 61.8998 113.063 60.1633 112.027 61.7985L112.028 61.7899Z" fill="#231F20"/>
<path d="M112.467 97.8108C112.548 96.84 107.327 98.6632 105.357 98.1186C103.387 97.574 101.423 94.9713 99.9049 94.7151C98.3865 94.459 98.9319 100.274 102.587 102.499C106.251 104.724 112.129 101.969 112.467 97.8108Z" fill="#231F20"/>
<path d="M150.634 85.2962C151.426 85.0334 152.274 84.5071 153.103 83.9014C153.934 83.2785 154.745 82.5675 155.578 81.8151L156.86 80.6502C157.326 80.2478 157.758 79.8426 158.469 79.4001C158.942 79.1194 159.189 79.0707 159.511 78.9333C159.815 78.8201 160.119 78.6984 160.431 78.5945C161.092 78.442 161.724 78.2265 162.444 78.1999C163.45 78.0674 164.545 78.2104 165.586 78.496C166.621 78.8416 167.559 79.4214 168.312 80.1415C169.604 81.4514 170.402 82.9883 170.851 84.652C170.902 84.8725 170.964 85.0679 170.995 85.3127L171.053 85.6635L171.071 85.9677L171.144 87.1675C171.128 87.9794 171.105 88.7819 170.951 89.5822C170.451 92.7844 168.763 95.7147 166.428 97.7867C165.399 98.7131 164.251 99.5172 162.998 100.131C161.726 100.76 160.38 101.133 159.023 101.322C158.148 101.449 157.27 101.497 156.391 101.458C155.512 101.419 154.629 101.32 153.776 101.076C152.065 100.639 150.457 99.7963 149.178 98.6346C148.384 97.8937 148.685 97.8064 149.593 98.0203C150.509 98.235 152.087 98.5047 153.754 98.8424C154.504 98.9741 155.256 99.0886 156.006 99.125C156.764 99.1621 157.519 99.1299 158.261 99.0446C159.005 98.9421 159.737 98.7781 160.439 98.5511C161.158 98.3255 161.763 98.0298 162.418 97.6432C164.975 96.126 166.989 93.6467 167.9 90.8074C168.145 89.9455 168.323 89.0434 168.323 88.1178L168.338 87.4184C168.331 87.1843 168.299 86.9481 168.284 86.7133L168.22 86.0246C168.191 85.8492 168.147 85.6552 168.078 85.4419C167.569 83.7646 166.436 82.2084 165.059 81.6008C164.3 81.2608 163.428 81.1363 162.499 81.2839C162.265 81.2904 162.032 81.3835 161.795 81.4243C161.558 81.4737 161.32 81.5231 161.087 81.6248L160.373 81.8855L160.203 81.9492C160.203 81.9492 160.149 81.9793 160.122 81.9857C160.04 82.0394 159.968 82.0766 159.867 82.1461C159.103 82.6967 158.237 83.5415 157.378 84.3004C156.509 85.0758 155.596 85.8562 154.595 86.56C153.365 87.4092 151.973 88.2276 150.25 88.4647C149.393 88.575 148.467 88.472 147.647 88.1357C146.828 87.7993 146.125 87.3083 145.533 86.6189C144.642 85.5846 144.299 84.2932 144.182 83.107C144.074 81.9043 144.205 80.7474 144.429 79.6242C144.892 77.3877 145.78 75.3424 146.79 73.3936C148.389 70.3868 150.282 67.6033 152.59 65.1225C153.103 64.5769 153.59 64.0292 154.15 63.5309C156.226 61.6623 157.149 61.3844 158.082 61.7043C158.292 61.7823 158.539 61.8288 158.703 61.9376C159.261 62.3041 158.656 63.335 157.3 64.6581C155.294 66.6277 153.41 68.7806 151.77 71.1267C150.14 73.4649 148.717 76.0107 147.901 78.6416C147.596 79.611 147.367 80.5867 147.29 81.5145C147.195 82.4495 147.287 83.3135 147.519 83.9556C147.65 84.2606 147.802 84.5154 147.983 84.7209C148.15 84.8991 148.486 85.126 148.736 85.242C149.252 85.4839 149.848 85.4903 150.65 85.211L150.679 85.2826L150.634 85.2962Z" fill="#231F20"/>
<path d="M105.46 64.0455L104.898 65.1838C104.693 65.5733 104.477 65.9792 104.248 66.3408C103.796 67.0989 103.305 67.7934 102.807 68.4785C101.803 69.8395 100.738 71.1003 99.6922 72.3367L97.4668 75.0666C96.1519 76.6266 94.8269 78.2031 93.9373 79.8505C93.5143 80.6716 93.1758 81.5171 93.2037 82.2201C93.1888 82.9195 93.6062 83.5165 94.3243 84.0347C95.5893 84.9445 97.3103 84.9493 98.9439 84.4452C99.9912 84.1258 101.018 83.6317 102.031 83.1019C103.059 82.5992 104.106 82.0808 105.2 81.6183C105.919 81.3927 105.876 81.4929 105.54 82.105C105.203 82.7171 104.548 83.8304 103.397 84.6774C102.353 85.369 101.229 85.9848 99.9778 86.4689C98.7365 86.9365 97.322 87.3031 95.7714 87.1222C95.0068 87.0585 94.2329 86.7952 93.5442 86.4438C92.8555 86.0923 92.2119 85.6149 91.6363 84.9442C91.0606 84.2735 90.6997 83.3092 90.6595 82.4408C90.6115 81.5632 90.7811 80.7728 91.0366 80.0934C91.6893 78.4869 92.5575 77.2011 93.4336 75.9246C94.3255 74.6667 95.2553 73.4726 96.2073 72.3235C98.2845 69.8148 100.466 67.4014 102.02 64.7367C102.919 63.0815 103.738 61.2466 104.288 59.4153C104.707 58.0229 105.025 56.5875 105.055 55.1887C105.067 53.8056 104.82 52.4011 104.01 51.434C103.438 50.7118 102.444 50.084 101.5 49.6854C100.549 49.2603 99.5517 49.0821 98.5824 49.0879C98.1485 49.1037 97.7362 49.1732 97.316 49.2334C95.7518 49.5271 95.1899 49.6273 94.5219 49.1306C94.3665 49.0225 94.184 48.9295 94.0644 48.8071C93.8561 48.6081 93.8797 48.3246 94.1252 47.973C94.3707 47.6215 94.8553 47.2034 95.5926 46.8669C97.7802 45.8379 100.725 46.0051 102.995 47.2062C104.147 47.8124 105.143 48.4143 106.182 49.6513C107.139 50.8381 107.616 52.2791 107.782 53.6078C108.04 55.6015 107.739 57.4449 107.303 59.1559C106.857 60.8748 106.237 62.5013 105.537 64.0606L105.469 64.0377L105.46 64.0455Z" fill="#231F20"/>
<path d="M74.1856 22.7854C73.2988 24.7098 72.8509 26.8697 72.9292 29.0474C72.9989 31.2244 73.5782 33.4092 74.6093 35.3634C75.3633 36.8015 76.4093 38.0564 77.5591 39.2074C78.5822 40.2181 79.7277 41.1092 80.9705 41.8701C82.2227 42.6231 83.5843 43.2035 84.9997 43.6587C87.859 44.5368 90.9731 44.9517 94.0442 45.0516C96.7875 45.1415 99.5515 44.8785 102.238 44.4014C103.967 44.1042 105.658 43.6394 107.32 43.103C108.154 42.8524 108.974 42.5574 109.811 42.2724L111.027 41.794C111.446 41.6472 111.856 41.4997 112.268 41.335C113.311 40.9634 113.285 41.1688 112.64 41.9542C112.033 42.8033 110.646 44.0892 108.678 44.9807C105.158 46.4264 101.425 47.3094 97.644 47.6348C93.8584 47.908 90.017 47.7093 86.275 46.8356C84.0171 46.319 81.7097 45.5647 79.5641 44.4259C77.4092 43.2951 75.464 41.7232 73.8989 39.8456C70.4715 35.711 68.9819 30.0164 70.154 24.7681C70.8717 21.5495 72.5895 18.5784 74.9703 16.3718C75.8701 15.5384 76.8501 14.7809 77.8966 14.1587C78.4163 13.8387 78.9431 13.5365 79.5001 13.2888C79.7793 13.1563 80.042 13.0138 80.3283 12.8992L81.2117 12.5749C83.5883 11.7693 86.0373 11.653 88.4198 11.8167C92.0966 12.1227 95.7534 12.9807 98.97 15.0736C99.313 15.3184 99.686 15.5138 100.01 15.7829C100.333 16.0521 100.665 16.3305 100.987 16.6168C101.563 17.1752 101.967 17.7278 102.31 18.1802C102.588 18.6877 102.76 19.1172 102.886 19.4737C103.11 20.2018 102.98 20.7272 102.772 21.151C102.67 21.3415 102.59 21.5684 102.476 21.6973C102.277 21.9056 101.96 21.7668 101.548 21.4125C101.329 21.2385 101.141 20.998 100.896 20.7267C100.623 20.4705 100.319 20.177 100.037 19.8162C99.0914 18.8119 97.9853 17.9673 96.7475 17.2501C95.471 16.5816 94.1165 16.0191 92.6797 15.614C89.8211 14.8311 86.7034 14.563 83.8671 15.0709C83.3639 15.1933 82.8363 15.2965 82.3638 15.4647C81.8992 15.6423 81.4368 15.7941 80.9378 16.0727C79.9385 16.5431 79.0394 17.1603 78.1726 17.8061C76.4861 19.1536 75.1082 20.8468 74.2443 22.8076L74.1685 22.784L74.1856 22.7854Z" fill="#231F20"/>
<path d="M88.9072 270.791C87.0913 273.693 85.1437 276.515 82.957 279.196C82.1582 280.168 81.3823 281.176 80.4682 282.077C79.6829 282.886 78.7989 283.634 77.8748 284.344C76.9263 285.035 75.8747 285.717 74.453 285.962C74.0715 285.974 73.7264 286.066 73.3277 285.972C73.1401 285.939 72.8924 285.902 72.6891 285.85C72.4894 285.756 72.2882 285.678 72.107 285.568C71.7462 285.33 71.4348 285.019 71.2422 284.631C71.0295 284.276 70.8985 283.772 70.8634 283.466C70.7659 282.766 70.8174 282.148 70.9004 281.566C70.9841 280.976 71.1086 280.416 71.2582 279.866C71.7827 277.929 72.4454 276.098 73.1146 274.294C73.9727 271.987 74.9668 269.708 76.0433 267.583C76.3646 266.944 76.6317 267.061 76.8279 267.822C77.0413 268.583 77.0687 269.918 76.6285 271.256C75.8843 273.651 74.9746 275.954 74.2475 278.247C73.884 279.393 73.5634 280.542 73.396 281.618C73.3173 282.148 73.283 282.664 73.331 283.023C73.3302 283.135 73.3696 283.182 73.3439 283.18C73.3417 283.206 73.3474 283.241 73.3618 283.276C73.3825 283.339 73.4291 283.403 73.4856 283.451C73.5343 283.49 73.5357 283.473 73.6281 283.506C73.7018 283.556 73.8257 283.523 73.9288 283.531C74.0311 283.548 74.1629 283.525 74.296 283.484C74.4284 283.452 74.5587 283.445 74.7033 283.371C75.2638 283.184 75.8494 282.8 76.4113 282.388C77.5452 281.549 78.5559 280.422 79.5473 279.319C81.7083 276.843 83.6408 274.098 85.4331 271.271C86.5383 269.529 87.5868 267.74 88.5595 265.926C90.0519 263.17 91.4547 260.346 92.6199 257.467C93.5245 255.224 94.1314 252.922 94.7625 250.639C94.8999 250.131 94.9936 249.629 95.1389 249.13C95.6491 247.261 95.9712 246.717 96.8296 246.486C97.0243 246.433 97.2218 246.345 97.413 246.335C98.0315 246.283 98.3366 247.191 98.1255 248.687C97.5239 253.109 95.8449 257.485 93.8946 261.691C92.4238 264.812 90.7697 267.849 88.9831 270.814L88.9252 270.783L88.9072 270.791Z" fill="#231F20"/>
<path d="M46.714 155.622C47.568 155.754 48.4421 155.853 49.3255 155.944C49.652 155.971 49.9662 155.936 50.2927 155.964C51.4352 156.059 52.5878 156.137 53.739 156.129C54.2494 156.129 54.7627 156.093 55.2609 156.031C55.9016 155.92 56.5452 155.878 57.2217 155.961C57.4357 155.987 57.4451 156.187 57.3184 156.462C57.1924 156.728 56.9262 157.121 56.5661 157.29C55.2611 157.796 53.8873 157.984 52.4957 157.868C51.671 157.8 50.8191 157.954 49.9708 157.961C49.0444 157.97 48.1137 157.927 47.1881 157.824C46.6132 157.768 46.0491 157.686 45.4764 157.604C44.6131 157.48 43.7468 157.287 42.8727 157.085C42.1948 156.916 41.4746 156.839 40.7214 156.43C40.5546 156.355 40.3749 156.228 40.2217 156.094C39.9253 155.81 39.8208 155.507 39.8394 155.284C39.8579 155.06 40.019 154.892 40.2803 154.767C40.3977 154.707 40.5151 154.648 40.6397 154.607C41.072 154.504 41.455 154.579 41.6461 154.569C42.158 154.655 43.1252 154.986 44.2076 155.18C45.0073 155.342 45.8513 155.49 46.7176 155.58L46.7133 155.631L46.714 155.622Z" fill="#231F20"/>
<path d="M41.2484 130.342C41.8655 130.618 42.4103 131.035 42.9494 131.418C43.1441 131.572 43.3618 131.66 43.5472 131.822C44.183 132.394 44.7529 133.03 45.2433 133.685C45.461 133.98 45.6887 134.258 45.8877 134.569C46.177 134.939 46.3188 135.418 46.3224 135.894C46.3188 136.041 46.1699 136.063 45.9401 136.018C45.7189 135.973 45.4053 135.895 45.235 135.76C45.0631 135.642 44.935 135.519 44.8168 135.379C44.6801 135.255 44.5706 135.116 44.4338 134.993C44.1696 134.737 43.9047 134.49 43.6348 134.2C43.309 133.852 42.8201 133.699 42.3862 133.507C41.913 133.269 41.409 133.089 40.9064 132.891C40.5972 132.762 40.2865 132.649 39.9564 132.561C39.4653 132.434 38.9663 132.297 38.4559 132.298C38.0579 132.299 37.6785 132.493 37.3048 132.617C37.2247 132.645 37.1502 132.708 37.0707 132.728C36.7787 132.807 36.6648 132.616 36.5073 131.911L36.4006 131.426C36.2903 130.881 36.3818 130.404 36.6495 130.201C37.4498 129.628 38.4062 129.569 39.314 129.679C39.9891 129.779 40.6334 130.04 41.262 130.282L41.257 130.343L41.2484 130.342Z" fill="#231F20"/>
<path d="M7.71423 202.011C6.26279 205.627 5.18075 209.378 4.79599 213.169C4.39477 216.951 4.86335 220.778 6.15516 224.277C7.12901 226.814 8.7142 229.074 10.5893 231.073C12.2503 232.837 14.2091 234.35 16.3053 235.666C18.4008 236.991 20.6703 238.097 23.0357 238.986C27.7542 240.806 32.7962 241.857 37.8819 242.384C42.4056 242.804 47.013 242.737 51.4857 242.21C57.2721 241.593 62.8358 240.015 68.3579 238.208C69.2513 237.971 69.6565 237.883 69.6679 237.954C69.6787 238.032 69.3201 238.288 68.7353 238.871C68.4504 239.176 68.0774 239.499 67.6472 239.887C67.5434 239.991 67.4246 240.068 67.3179 240.206C67.1984 240.291 67.0695 240.384 66.9407 240.477C66.683 240.664 66.4074 240.857 66.1075 241.031C64.9299 241.772 63.466 242.524 61.8017 243.086C55.8686 244.945 49.6707 245.83 43.484 245.748C37.3038 245.692 31.0842 244.863 25.1178 242.965C21.5627 241.821 17.9989 240.366 14.6419 238.4C11.2835 236.451 8.20639 233.824 5.88733 230.612C4.65155 228.831 3.55749 226.906 2.8822 224.835L2.60007 224.067C2.51772 223.81 2.46185 223.546 2.3888 223.28L1.99206 221.707C1.75929 220.658 1.64965 219.585 1.49634 218.517C1.12651 214.231 1.73315 209.956 2.87242 205.933C3.58876 203.459 4.46546 201.032 5.52401 198.706C6.54963 196.361 7.70698 194.096 8.92947 191.879C10.7926 188.514 12.7759 185.262 14.8946 182.048C17.0297 178.843 19.3761 175.803 21.799 172.882C25.5763 168.344 29.4151 164.001 33.4 159.774C34.2732 158.843 35.1208 157.91 36.0191 156.99C39.3569 153.575 40.5745 152.664 41.9168 152.542C42.2218 152.515 42.5747 152.432 42.8131 152.478C43.6141 152.623 42.6443 154.402 40.3158 157.019C33.4241 164.784 25.7177 172.464 19.4654 181.174C18.318 182.8 17.2308 184.431 16.1714 186.142C15.1028 187.861 14.0599 189.582 13.0586 191.323C11.0566 194.798 9.2129 198.347 7.78294 202.017L7.69846 201.993L7.71423 202.011Z" fill="#231F20"/>
<path d="M78.6607 187.597C79.9268 191.301 81.0418 195.053 82.0143 198.853C82.3574 200.24 82.7799 201.607 83.0693 203.015C83.5993 205.481 84.0319 207.974 84.3328 210.49C84.6781 212.993 84.8301 215.531 84.8354 218.066C84.8557 220.317 84.7371 222.574 84.4996 224.803C84.3973 225.512 84.2857 226.23 84.1577 226.937C84.021 227.643 83.8156 228.344 83.6367 229.039C83.2023 230.413 82.7235 231.8 81.9219 233.013C81.443 233.778 81.3471 233.58 81.3542 232.767C81.362 232.361 81.3483 231.798 81.4521 231.175C81.5057 230.531 81.5751 229.801 81.7676 229.048C82.2877 226.331 82.5344 223.575 82.5592 220.783C82.584 217.991 82.3589 215.187 82.1625 212.351C81.8751 208.945 81.0049 205.473 80.1369 202.079C79.1944 198.333 78.058 194.631 76.8334 190.948C76.0794 188.68 75.2809 186.425 74.4288 184.191C73.1363 180.805 71.8008 177.416 70.3186 174.126C69.1644 171.574 67.8527 169.146 66.6068 166.655C66.3325 166.105 66.0476 165.579 65.7919 165.013C64.8331 162.918 64.8316 162.104 65.3148 161.392C65.4322 161.229 65.5267 161.029 65.6576 160.91C66.0972 160.514 66.8532 161.2 67.721 162.622C70.1848 166.901 72.4002 171.67 74.4517 176.538C75.9761 180.151 77.3811 183.849 78.7065 187.566L78.6435 187.596L78.6607 187.597Z" fill="#231F20"/>
<path d="M62.3629 133.561C63.3586 133.134 64.3944 132.744 65.6722 132.565C66.3101 132.488 67.0532 132.498 67.8772 132.783C68.0869 132.861 68.2946 132.965 68.4936 133.068C68.6654 133.186 68.8365 133.313 68.999 133.439C69.3133 133.716 69.589 134.041 69.7845 134.395C70.3737 135.422 70.4561 136.406 70.3947 137.249C70.2695 138.752 69.8187 140.012 69.3363 141.235C68.8453 142.457 68.2828 143.604 67.6865 144.739C67.1619 145.742 66.6451 146.754 66.0969 147.729C65.404 148.987 64.7098 150.261 63.6697 151.325C63.3304 151.66 63.1042 151.364 63.0254 150.856C62.9473 150.339 62.9765 149.572 63.338 148.867C63.9864 147.623 64.5948 146.342 65.1939 145.068C65.8094 143.804 66.4085 142.531 66.9732 141.254C67.3131 140.495 67.5543 139.676 67.6996 138.867C67.8355 138.065 67.8955 137.239 67.7659 136.615C67.6534 135.887 67.3306 135.609 66.9833 135.52C66.533 135.422 65.6296 135.572 64.8186 135.859C63.7849 136.223 62.7383 136.741 61.7289 137.332C60.2006 138.234 58.6902 139.233 57.3223 140.39C56.2615 141.288 55.3853 142.357 54.4698 143.38C54.2694 143.605 54.0941 143.841 53.8858 144.058C53.1098 144.858 52.7297 144.956 51.9579 144.563C51.784 144.471 51.6 144.395 51.4353 144.295C50.8934 143.947 50.8324 143.224 51.3113 142.459C52.7113 140.188 54.7564 138.378 56.9525 136.727C58.6018 135.514 60.3542 134.415 62.3091 133.479L62.3464 133.551L62.3629 133.561Z" fill="#231F20"/>
<path d="M37.7128 133.845C37.5362 135.344 37.6223 137.012 37.8229 138.655C38.0399 140.308 38.3608 141.961 38.8134 143.59C39.1386 144.776 39.5975 145.913 40.0308 147.048C40.406 148.048 40.817 149.034 41.3125 149.94C41.8094 150.829 42.3428 151.695 43.028 152.193C44.5042 153.371 46.6298 154.024 48.7309 154.45C50.6201 154.823 52.601 154.928 54.5482 154.917C57.0509 154.987 59.5658 154.807 62.1179 154.907C62.9111 154.938 62.8453 155.209 62.2196 155.659C61.594 156.109 60.41 156.823 58.9203 157.054C57.6052 157.264 56.2758 157.439 54.9429 157.553C53.6042 157.632 52.2505 157.58 50.8924 157.476C49.5344 157.371 48.1671 157.171 46.8011 156.85C45.4338 156.545 44.0664 156.034 42.7627 155.276L42.1771 154.934L41.6151 154.515C41.2471 154.259 40.8433 153.914 40.5182 153.559C39.8681 152.847 39.3584 152.113 38.9187 151.367C38.0309 149.874 37.3292 148.328 36.795 146.744C35.6485 143.266 34.9244 139.703 34.8259 136.001C34.8086 134.858 34.8701 133.704 35.1155 132.522C35.2336 131.935 35.4397 131.329 35.731 130.739C36.0309 130.15 36.5305 129.551 37.2184 129.185C38.2285 128.689 39.2529 128.645 40.2143 128.837C41.1665 129.038 41.9962 129.461 42.7444 129.93C44.2478 130.886 45.4521 132.11 46.5675 133.362C48.2801 135.339 49.8323 137.371 51.134 139.607C51.4218 140.098 51.719 140.581 51.9696 141.104C52.8976 143.05 52.8919 143.845 52.3207 144.472C52.1876 144.617 52.0609 144.788 51.9141 144.888C51.3944 145.208 50.7995 144.562 50.1257 143.303C49.1233 141.421 47.9569 139.533 46.6803 137.723C45.403 135.921 43.9847 134.151 42.3817 132.832C41.2276 131.837 39.8237 131.244 38.9754 131.459C38.8623 131.467 38.7549 131.51 38.6483 131.544C38.5781 131.556 38.5674 131.581 38.5667 131.589C38.5652 131.606 38.5409 131.587 38.5301 131.612C38.4822 131.669 38.3791 131.764 38.2739 131.989C38.0406 132.402 37.8681 133.123 37.798 133.861L37.7293 133.855L37.7128 133.845Z" fill="#231F20"/>
<path d="M38.5694 197.019C39.6418 197.126 40.7335 197.208 41.8188 197.264C42.2147 197.288 42.6098 197.217 43.0136 197.251C44.4225 197.368 45.8414 197.469 47.2567 197.509C47.8873 197.518 48.5137 197.475 49.138 197.458C49.5367 197.448 49.939 197.395 50.3442 197.411C50.748 197.445 51.1575 197.513 51.5641 197.616C51.8175 197.689 51.7968 197.938 51.6057 198.26C51.4153 198.573 51.0474 199.044 50.5993 199.231C50.2041 199.406 49.7953 199.433 49.3894 199.529C48.9857 199.599 48.5798 199.695 48.1725 199.704C47.3485 199.731 46.5274 199.723 45.6876 199.627C44.6847 199.518 43.6653 199.71 42.6444 199.711C41.5205 199.704 40.4002 199.654 39.2798 199.604L37.2059 199.475C36.1564 199.405 35.1026 199.282 34.0531 199.212C33.6479 199.196 33.2327 199.196 32.8175 199.196C32.4016 199.205 31.9857 199.213 31.5568 199.169C31.3679 199.153 31.1767 199.163 30.9999 199.105C30.8309 199.057 30.6906 198.976 30.5832 198.915C30.478 198.828 30.41 198.71 30.3577 198.611C30.2539 198.403 30.2288 198.185 30.251 197.918C30.261 197.798 30.2624 197.677 30.2796 197.575C30.3418 197.243 30.7284 196.963 31.2337 196.711C31.9324 196.527 32.5782 196.564 33.2697 196.569C33.9412 196.608 34.6463 196.658 35.3594 196.717C36.4074 196.805 37.4884 196.912 38.5744 196.959L38.5694 197.019Z" fill="#231F20"/>
<path d="M38.2599 203.265C39.3537 203.321 40.4562 203.378 41.5608 203.41C41.966 203.426 42.3612 203.355 42.7656 203.38C44.1852 203.472 45.6027 203.59 47.0258 203.64C47.6558 203.657 48.2822 203.614 48.9057 203.606C49.3045 203.596 49.7068 203.543 50.1113 203.568C50.515 203.601 50.9238 203.679 51.3305 203.782C51.5839 203.855 51.5631 204.104 51.372 204.425C51.1816 204.738 50.8144 205.201 50.3663 205.388C49.9712 205.563 49.5631 205.581 49.1572 205.677C48.7542 205.738 48.3483 205.834 47.941 205.844C47.1256 205.871 46.2973 205.845 45.4662 205.75C44.4718 205.641 43.4524 205.833 42.448 205.845L39.1113 205.818L37.0546 205.794C36.0166 205.794 34.9735 205.75 33.9477 205.812C33.148 205.858 32.3606 206.069 31.5402 206.157C31.3569 206.176 31.188 206.231 31.0004 206.198C30.82 206.183 30.6761 206.145 30.5587 206.101C30.4342 206.039 30.3554 205.946 30.268 205.852C30.0855 205.655 30.0167 205.442 30.0045 205.173C29.9974 205.051 29.9895 204.938 29.9981 204.835C30.0131 204.654 30.1204 204.508 30.2471 204.336C30.3817 204.175 30.4848 203.976 30.7403 203.815C32.036 203.214 33.5129 203.241 34.979 203.191C36.0707 203.169 37.1832 203.21 38.282 203.206L38.277 203.266L38.2599 203.265Z" fill="#231F20"/>
<path d="M106.493 146.922C106.439 148.085 105.908 148.958 105.112 149.584C104.817 149.802 104.511 150.044 104.131 150.142C103.416 150.316 102.753 150.175 102.217 149.862C101.679 149.566 101.218 148.974 101.129 148.379C101.036 147.843 101.127 147.367 101.246 146.979C101.401 146.472 101.61 146.031 102.029 145.781C102.165 145.706 102.459 145.92 102.719 146.219C102.98 146.517 103.251 146.895 103.218 147.091C103.155 147.431 103.166 147.709 103.197 147.755C103.18 147.754 103.145 147.759 103.118 147.766C103.271 147.692 102.91 147.87 102.946 147.855C102.963 147.865 103.089 147.703 103.026 147.827C103.019 147.913 103.102 147.963 103.163 147.951C103.242 147.94 103.245 147.906 103.324 147.887C103.475 147.847 103.71 147.616 103.785 147.346C103.841 147.186 103.828 147.029 103.828 147.029L103.875 146.981L103.855 147.023C103.855 147.023 103.847 147.005 103.813 147.002C103.754 146.988 103.63 147.021 103.58 147.095C103.529 147.195 103.601 147.477 103.687 147.683C103.7 147.736 103.747 147.792 103.752 147.845C103.753 148.035 103.507 148.084 102.716 148.122L102.17 148.145C101.562 148.164 101.04 147.999 100.855 147.621C100.615 147.082 100.604 146.372 100.98 145.607C101.073 145.416 101.209 145.245 101.361 145.076C101.532 144.892 101.737 144.718 101.947 144.589C102.367 144.321 102.821 144.16 103.318 144.115C104.035 144.027 104.97 144.218 105.667 144.89C106.347 145.552 106.523 146.354 106.543 146.944L106.473 146.955L106.493 146.922Z" fill="#231F20"/>
<path d="M101.672 157.853C101.233 158.344 100.693 158.705 100.036 158.902C99.8058 158.969 99.5552 159.069 99.2875 159.064C98.8136 159.042 98.3576 158.909 97.9287 158.553C97.5249 158.208 97.3803 157.764 97.333 157.396C97.2922 157.056 97.2578 156.741 97.3214 156.392C97.3658 156.171 97.4295 155.925 97.5948 155.705C97.768 155.495 98.0408 155.336 98.315 155.367C98.4954 155.382 98.5133 155.791 98.5921 156.195C98.6279 156.388 98.7446 156.649 98.7081 156.568C98.7081 156.568 98.7081 156.568 98.7088 156.559C98.7167 156.569 98.7246 156.578 98.7324 156.587C98.8098 156.697 99.2615 156.778 99.2987 156.747C99.2808 156.754 99.3345 156.733 99.2357 156.776C99.1641 156.805 99.0625 156.883 99.006 156.939C98.9673 156.987 98.9487 157.003 98.9379 157.028L98.9988 156.817C98.9988 156.817 99.0346 156.803 99.0768 156.815C99.1613 156.839 99.3725 156.796 99.5479 156.664C99.6581 156.586 99.7619 156.483 99.8234 156.367C99.9236 156.202 99.9888 155.939 99.9071 155.881C99.8907 155.871 99.8735 155.869 99.847 155.876L99.9945 155.767L99.9759 155.782C99.9759 155.782 99.9479 155.806 99.9379 155.823C99.89 155.879 99.9057 155.898 99.9121 155.82C99.915 155.786 99.9179 155.752 99.9214 155.709C99.9107 155.63 99.8957 155.603 99.8885 155.585C99.8885 155.585 99.8326 155.528 99.8011 155.491C99.6895 155.378 99.5685 155.273 99.4475 155.168C99.237 154.994 99.0702 154.816 99.02 154.587C98.9692 154.367 99.0601 154.106 99.2899 153.943C100.004 153.467 100.812 153.525 101.483 153.988C102.216 154.542 102.398 155.257 102.428 155.831C102.445 156.256 102.363 156.613 102.25 156.941C102.125 157.293 101.945 157.59 101.749 157.859L101.7 157.829L101.672 157.853Z" fill="#231F20"/>
<path d="M19.4071 115.056C19.1644 115.062 19.1909 114.744 19.3719 114.231C19.4285 114.072 19.7305 113.664 19.8193 113.637C19.9882 113.582 20.1565 113.535 20.2968 113.512C20.3841 113.502 21.3907 113.88 21.7465 113.97C22.093 114.068 22.3915 114.223 22.68 114.394C23.2742 114.738 23.8964 115.058 24.502 115.367C24.6345 115.439 24.7562 115.536 24.8679 115.649C25.2502 116.044 25.7141 116.29 26.2088 116.478C26.2926 116.511 26.3663 116.561 26.4823 116.518C26.6691 116.456 27.9706 117.032 28.1067 117.164C28.2828 117.334 28.4603 117.487 28.6372 117.649C28.8133 117.82 28.9894 117.99 29.1648 118.169C29.2128 118.216 29.2901 118.223 29.3059 118.345C29.3338 118.633 29.4792 118.654 29.6016 118.742C29.7741 118.851 29.9374 118.968 30.0884 119.128C30.16 119.203 30.2073 119.363 30.2567 119.497C30.3068 119.622 30.1365 119.902 30.1 119.925C29.9732 119.992 29.9854 120.158 29.9482 120.293C29.9361 120.335 29.9139 120.394 29.8938 120.427C29.8623 120.493 28.5065 120.675 28.3712 120.637C28.354 120.636 27.9123 120.539 27.4441 120.448C26.9974 120.307 26.5335 120.164 26.4239 120.129C26.3223 120.104 26.2528 120.003 26.1726 119.927C26.1318 119.897 24.7952 119.431 24.7466 119.393C24.5003 119.234 24.2032 119.166 24.0492 118.833C24.0199 118.77 23.9612 118.748 23.9111 118.726C23.4622 118.507 23.0648 118.189 22.6668 117.879C22.4634 117.724 22.2301 117.618 22.0167 117.479C21.9752 117.458 21.9537 117.404 21.9222 117.367C21.8828 117.321 21.8528 117.266 21.7948 117.235C21.275 116.933 20.8261 116.506 20.2856 116.245C20.161 116.183 19.7508 115.603 19.6004 115.539C19.5167 115.506 19.4772 115.044 19.382 115.045L19.4071 115.056Z" fill="#231F20"/>
<path d="M38.2065 116.906C38.412 117.139 37.9897 117.329 37.2301 117.517C36.9831 117.574 36.2565 117.574 36.1499 117.505C35.9451 117.366 35.7411 117.22 35.5886 117.077C35.5005 116.992 35.0665 115.555 34.919 115.041C34.7607 114.552 34.7235 114.064 34.7549 113.582C34.8529 112.613 34.9351 111.625 35.119 110.663C35.1541 110.45 35.2321 110.24 35.3602 110.052C35.7875 109.387 35.9843 108.685 36.1231 107.953C36.1503 107.834 36.2033 107.717 36.1037 107.562C35.9183 107.295 36.5896 105.362 36.8044 105.172C37.304 104.677 37.7199 104.15 38.1923 103.67C38.2589 103.598 38.251 103.485 38.4493 103.492C38.9067 103.505 38.9403 103.308 39.057 103.154C39.2223 102.934 39.4206 102.734 39.6762 102.574C39.8043 102.489 40.0635 102.494 40.2732 102.468C40.4737 102.45 40.9383 102.791 40.967 102.863C41.0722 103.053 41.3528 103.111 41.5597 103.224C41.6342 103.264 41.7251 103.315 41.7831 103.346C41.8404 103.385 41.9227 103.851 41.9972 104.307C42.071 104.771 42.1534 105.237 42.1219 105.303C42.1205 105.32 41.9673 105.809 41.812 106.324C41.6739 106.84 41.5344 107.374 41.533 107.495C41.523 107.615 41.3956 107.691 41.2932 107.777C41.2295 107.815 41.002 109.405 40.9805 109.455C40.8266 109.745 40.8839 110.096 40.4587 110.32C40.3771 110.365 40.3714 110.434 40.3578 110.494C40.2598 111.048 39.9921 111.562 39.7917 112.099C39.6822 112.375 39.6837 112.669 39.6257 112.95C39.6214 113.001 39.557 113.048 39.5191 113.088C39.4797 113.145 39.4224 113.21 39.4174 113.27C39.3888 113.613 39.2829 113.951 39.2285 114.292C39.1398 114.631 39.0682 114.971 39.0912 115.319C39.0869 115.474 38.6188 116.214 38.6546 116.407C38.6632 116.511 38.117 116.838 38.2037 116.94L38.2065 116.906Z" fill="#231F20"/>
</svg>
