<svg width="24" height="24" viewBox="0 0 24 24" fill="none" xmlns="http://www.w3.org/2000/svg">
<path d="M5.615 18.001C5.155 18.001 4.771 17.8467 4.463 17.538C4.15433 17.2293 4 16.845 4 16.385V6.615C4 6.155 4.15433 5.771 4.463 5.463C4.77167 5.155 5.15567 5.00067 5.615 5H19.385C19.845 5 20.229 5.15433 20.537 5.463C20.8457 5.771 21 6.15533 21 6.616V16.385C21 16.845 20.846 17.2293 20.538 17.538C20.2293 17.846 19.845 18 19.385 18H5.615V18.001ZM12.5 12.761L5 7.176V16.386C5 16.566 5.05767 16.7133 5.173 16.828C5.28833 16.9427 5.43567 17.0003 5.615 17.001H19.385C19.5643 17.001 19.7117 16.9433 19.827 16.828C19.9423 16.7127 20 16.5653 20 16.386V7.176L12.5 12.763V12.761ZM12.5 11.543L19.808 6.116C19.7693 6.07733 19.7277 6.04833 19.683 6.029C19.6377 6.00967 19.5767 6 19.5 6H5.5C5.436 6 5.372 6.016 5.308 6.048C5.244 6.08 5.19267 6.11533 5.154 6.154L12.5 11.543ZM20 7.158C20 6.97333 19.9777 6.79 19.933 6.608C19.8877 6.426 19.846 6.262 19.808 6.116C19.7693 6.07733 19.7277 6.04833 19.683 6.029C19.6377 6.00967 19.5767 6 19.5 6H5.5C5.436 6 5.372 6.016 5.308 6.048C5.244 6.08 5.19267 6.11533 5.154 6.154C5.11533 6.30067 5.08 6.46167 5.048 6.637C5.016 6.81233 5 6.98567 5 7.157V6.001H20V7.158Z" fill="#868C98"/>
</svg>
