<svg width="4" height="12" viewBox="0 0 4 12" fill="none" xmlns="http://www.w3.org/2000/svg">
<path d="M4 10.5812C4 10.1876 3.80584 9.85242 3.41753 9.57554C3.02922 9.30007 2.55671 9.16233 2 9.16233C1.44527 9.16233 0.972761 9.30007 0.582469 9.57554C0.194158 9.85102 -7.92825e-08 10.1862 -6.20191e-08 10.5812C-4.48172e-08 10.9747 0.194159 11.3099 0.58247 11.5868C0.972762 11.8623 1.44527 12 2 12C2.55671 12 3.02922 11.8623 3.41753 11.5868C3.80584 11.3113 4 10.9761 4 10.5812ZM4 6C4 5.60647 3.80584 5.27126 3.41753 4.99438C3.02922 4.71891 2.55671 4.58117 2 4.58117C1.44527 4.58117 0.972761 4.71891 0.582469 4.99438C0.194158 5.26985 -2.79532e-07 5.60506 -2.62268e-07 6C-2.45066e-07 6.39354 0.194158 6.72874 0.582469 7.00562C0.972761 7.2811 1.44527 7.41883 2 7.41883C2.55671 7.41883 3.02922 7.2811 3.41753 7.00562C3.80584 6.73015 4 6.39494 4 6ZM4 1.41883C4 1.0253 3.80584 0.690093 3.41753 0.413213C3.02922 0.137739 2.55671 -1.06543e-06 2 -1.0411e-06C1.44527 -1.01685e-06 0.972761 0.137739 0.582469 0.413213C0.194158 0.688687 -4.79781e-07 1.02389 -4.62517e-07 1.41883C-4.45316e-07 1.81237 0.194158 2.14758 0.582469 2.42446C0.972761 2.69993 1.44527 2.83767 2 2.83767C2.55671 2.83767 3.02922 2.69993 3.41753 2.42446C3.80584 2.14898 4 1.81377 4 1.41883Z" fill="black"/>
</svg>
