<svg width="12" height="13" viewBox="0 0 12 13" fill="none" xmlns="http://www.w3.org/2000/svg">
<path d="M5.17104 12.882L4.99199 11.4148C4.46919 11.2976 3.9779 11.1208 3.5181 10.8842C3.0583 10.6466 2.64383 10.3216 2.27466 9.90937L0.891959 10.4648L0 9.11191L1.14065 8.15529C0.958275 7.58386 0.86709 7.01244 0.86709 6.44101C0.86709 5.86847 0.958275 5.29649 1.14065 4.72506L0 3.76845L0.891959 2.41724L2.27632 2.97099C2.62227 2.55872 3.03122 2.23432 3.50318 1.99779C3.97292 1.76015 4.46919 1.58331 4.99199 1.46726L5.17104 0H6.82896L7.00801 1.46726C7.53081 1.58331 8.02763 1.76015 8.49848 1.99779C8.96933 2.23432 9.37828 2.55872 9.72534 2.97099L11.108 2.41724L12 3.76845L10.8594 4.72506C11.0417 5.29649 11.1329 5.86847 11.1329 6.44101C11.1329 7.01244 11.0417 7.58386 10.8594 8.15529L12 9.11191L11.108 10.4648L9.72368 9.90937C9.35673 10.3216 8.9428 10.646 8.4819 10.8826C8.02211 11.1202 7.53026 11.297 7.00636 11.4131L6.82896 12.8804H5.17104V12.882ZM6 10.0105C6.99696 10.0105 7.84139 9.6651 8.5333 8.9743C9.2252 8.2824 9.57115 7.43797 9.57115 6.44101C9.57115 5.44405 9.2252 4.59961 8.5333 3.90771C7.84139 3.21581 6.99696 2.86985 6 2.86985C5.00304 2.86985 4.15861 3.21581 3.4667 3.90771C2.7748 4.59961 2.42885 5.44405 2.42885 6.44101C2.42885 7.43797 2.7748 8.28185 3.4667 8.97265C4.15861 9.66455 5.00304 10.0105 6 10.0105Z" fill="black"/>
</svg>
