<svg width="208" height="272" viewBox="0 0 208 272" fill="none" xmlns="http://www.w3.org/2000/svg">
<path opacity="0.35" d="M191.726 153.937C193.278 157.21 183.843 169.228 182.557 169.128L174.48 167.536C174.48 167.536 164.227 154.975 165.683 150.62C167.14 146.265 168.415 145.504 171.108 146.961C173.801 148.418 181.078 154.771 181.078 154.771C181.078 154.771 190.313 150.934 191.728 153.928L191.726 153.937Z" fill="#231F20"/>
<path opacity="0.35" d="M185.423 170.651C186.046 171.173 204.884 191.06 199.521 226.554C194.157 262.048 162.648 249.703 162.333 249.293C162.018 248.884 142.815 239.239 142.815 239.239C142.815 239.239 148.498 230.713 146.023 230.3C143.548 229.886 138.234 233.951 138.234 233.951C138.234 233.951 131.292 231.523 131.504 226.312C131.716 221.101 132.702 210.71 136.031 205.279C139.359 199.847 155.75 182.526 155.75 182.526L173.01 168.591L185.415 170.649L185.423 170.651Z" fill="#231F20"/>
<path d="M145.473 242.616C145.088 242.33 144.707 242.063 144.307 241.638C143.96 241.282 143.379 240.45 143.616 239.73C143.576 239.648 143.632 239.574 143.637 239.495L143.799 238.978C143.838 238.837 143.892 238.709 143.954 238.583C144.466 237.547 145.011 236.618 145.519 235.661C145.752 235.244 145.939 234.796 146.122 234.364C146.342 233.8 146.539 233.221 146.856 232.693C146.957 232.525 147.146 232.613 147.307 232.837C147.468 233.06 147.623 233.434 147.551 233.789C147.273 235.043 146.967 236.297 146.297 237.388C145.918 238.041 145.705 238.804 145.491 239.476L145.391 239.77C145.342 239.882 145.33 240.021 145.435 240.157C145.536 240.338 145.771 240.555 146.012 240.747C146.396 241.033 146.798 241.324 147.254 241.576C147.922 241.968 148.615 242.367 149.332 242.71C149.891 242.982 150.493 243.159 151.08 243.456C151.208 243.51 151.35 243.576 151.471 243.655C151.935 243.945 151.993 244.22 151.735 244.631C151.672 244.729 151.625 244.832 151.556 244.92C151.32 245.221 150.952 245.323 150.669 245.218C149.736 244.913 148.777 244.475 147.757 243.968C147.006 243.588 146.244 243.179 145.446 242.68L145.457 242.638L145.473 242.616Z" fill="#231F20"/>
<path d="M130.439 220.289C130.612 217.97 131.159 215.755 131.87 213.622C132.123 212.844 132.367 212.064 132.684 211.313C133.808 208.66 135.209 206.166 136.793 203.821C137.503 202.777 138.235 201.758 138.986 200.761C139.941 199.482 140.975 198.243 142.172 197.184C142.543 196.849 142.53 196.926 142.334 197.309C142.202 197.558 142.063 197.832 141.926 198.098C141.749 198.415 141.589 198.826 141.31 199.186C139.444 201.809 137.946 204.616 136.288 207.36C135.324 209.021 134.62 210.906 133.998 212.751C133.325 214.779 132.786 216.87 132.581 218.984C132.433 220.282 132.433 221.595 132.546 222.887C132.735 224.833 133.225 226.792 134.221 228.472C134.973 229.781 136.008 230.873 137.152 231.8C137.384 232.025 137.683 232.171 137.927 232.382C138.391 232.771 138.708 233.011 138.868 233.27C139.026 233.537 139.044 233.793 138.987 234.125C138.962 234.279 138.953 234.437 138.908 234.568C138.766 235.01 138.093 235.055 137.202 234.565C135.925 233.798 134.714 232.79 133.699 231.56C132.698 230.316 131.896 228.869 131.346 227.349C130.514 225.08 130.254 222.649 130.397 220.313L130.451 220.31L130.439 220.289Z" fill="#231F20"/>
<path d="M146.599 245.627C146.076 245.294 145.56 244.935 145.08 244.542C144.895 244.402 144.698 244.311 144.524 244.164C143.907 243.653 143.33 243.099 142.768 242.549C142.514 242.308 142.244 242.09 141.97 241.888C141.642 241.591 141.262 241.352 141.091 240.875C141.035 240.725 141.114 240.667 141.32 240.6C141.427 240.567 141.564 240.525 141.726 240.489C141.877 240.46 142.017 240.472 142.128 240.521C142.334 240.614 142.543 240.699 142.738 240.799C142.919 240.92 143.102 241.034 143.282 241.156C143.635 241.397 143.98 241.663 144.298 241.966C144.673 242.348 145.177 242.56 145.627 242.837C146.119 243.153 146.622 243.463 147.115 243.779C147.419 243.971 147.731 244.165 148.05 244.335C148.531 244.594 149.018 244.864 149.524 245.068C149.921 245.214 150.356 245.255 150.764 245.333C150.855 245.358 150.947 245.348 151.038 245.374C151.369 245.466 151.434 245.618 151.364 246.063C151.353 246.167 151.341 246.271 151.314 246.371C151.246 246.709 151.012 246.939 150.728 246.967C149.876 247.042 149.04 246.835 148.255 246.545C147.666 246.318 147.124 245.988 146.575 245.683L146.586 245.642L146.599 245.627Z" fill="#231F20"/>
<path d="M123.499 235.37C123.996 235.383 128.762 236.838 126.494 239.108C124.226 241.379 131.704 235.738 131.704 235.738L123.499 235.37Z" fill="#231F20"/>
<path d="M118.179 247.972C119.114 246.991 120.111 246.073 121.092 245.149C121.446 244.81 121.796 244.452 122.164 244.126C123.489 242.995 124.854 241.911 126.27 240.903C126.89 240.442 127.507 239.989 128.117 239.534C128.917 238.971 129.71 238.37 130.656 238.054C130.965 237.97 130.996 238.113 130.91 238.455C130.835 238.818 130.604 239.326 130.172 239.66L129.038 240.586C128.64 240.859 128.269 241.166 127.875 241.458C127.097 242.036 126.319 242.614 125.529 243.207C124.577 243.897 123.742 244.808 122.891 245.651C121.945 246.575 121.026 247.534 120.112 248.503C119.551 249.105 118.992 249.7 118.451 250.326C117.637 251.26 116.81 252.208 116.061 253.196C115.48 253.963 115.007 254.796 114.497 255.601C114.385 255.775 114.289 255.962 114.169 256.135C113.713 256.776 113.458 256.892 112.947 256.705C112.833 256.664 112.709 256.629 112.6 256.572C112.233 256.381 112.164 255.924 112.435 255.401C113.216 253.85 114.305 252.412 115.458 251.001C116.313 249.953 117.23 248.94 118.153 247.938L118.19 247.966L118.179 247.972Z" fill="#231F20"/>
<path d="M120.634 253.141C120.582 253.966 110.604 269.817 107.698 269.926C103.2 270.1 109.713 258.25 111.452 256.466C113.191 254.683 120.634 253.141 120.634 253.141Z" fill="#231F20"/>
<path d="M113.96 155.798C113.156 154.038 112.272 152.308 111.39 150.57C111.067 149.935 110.678 149.344 110.344 148.715C109.166 146.502 107.905 144.328 106.513 142.243C105.908 141.306 105.216 140.425 104.564 139.528L103.246 137.847C102.827 137.266 102.451 136.661 102.059 136.051C101.827 135.665 101.93 135.649 102.309 135.826C102.669 136.007 103.364 136.335 104.03 136.86C105.058 137.915 106.047 139.013 106.955 140.177C107.842 141.354 108.69 142.573 109.451 143.848C110.368 145.363 111.461 146.856 112.415 148.4C112.937 149.251 113.427 150.12 113.919 150.981C114.377 151.868 114.857 152.743 115.285 153.64C115.836 154.741 116.357 155.851 116.87 156.958C117.659 158.644 118.345 160.38 119.088 162.07C119.618 163.406 120.258 164.666 120.723 166.01C120.827 166.307 120.945 166.59 121.031 166.891C121.341 168.023 121.309 168.425 120.967 168.785C120.89 168.87 120.818 168.967 120.731 169.023C120.452 169.222 120.038 168.847 119.639 168.102C119.347 167.547 119.049 166.981 118.733 166.42C118.416 165.858 118.188 165.267 117.884 164.691C117.312 163.54 116.797 162.342 116.296 161.131C115.534 159.346 114.756 157.557 113.895 155.807L113.937 155.783L113.96 155.798Z" fill="#231F20"/>
<path d="M120.558 213.692C120.558 213.692 123.251 212.942 124.298 213.672C125.345 214.402 117.986 209.303 117.986 209.303L120.558 213.692Z" fill="#231F20"/>
<path d="M101.826 162.248C101.457 160.787 100.997 159.328 100.506 157.887C100.333 157.356 100.058 156.869 99.8736 156.344C99.2521 154.473 98.6162 152.59 97.8389 150.765C97.523 149.945 97.1291 149.147 96.7389 148.368C96.4959 147.863 96.1915 147.385 95.9802 146.861C95.7901 146.326 95.6235 145.77 95.4758 145.211C95.3873 144.856 95.5361 144.835 95.8892 144.978C96.2294 145.135 96.8564 145.417 97.3593 145.888C98.7975 147.745 99.9107 149.807 100.662 152.044C101.11 153.384 101.865 154.649 102.352 156.008C102.911 157.495 103.382 159.011 103.841 160.533C104.087 161.477 104.371 162.413 104.577 163.373C104.751 164.092 104.886 164.826 105.012 165.558C105.157 166.286 105.246 167.025 105.375 167.749C105.551 168.879 105.802 169.994 105.819 171.151C105.829 171.404 105.866 171.656 105.849 171.91C105.777 172.872 105.581 173.157 105.145 173.313C105.046 173.347 104.944 173.391 104.85 173.409C104.533 173.455 104.269 173.059 104.144 172.417C104.088 171.946 103.99 171.463 103.882 170.986C103.793 170.506 103.685 170.029 103.576 169.552C103.408 168.585 103.17 167.616 102.944 166.633C102.561 165.187 102.181 163.732 101.757 162.274L101.816 162.254L101.826 162.248Z" fill="#231F20"/>
<path d="M44.4933 182.62C44.4933 182.62 47.8713 181.142 48.4118 183.079C48.9439 185.014 50.4601 175.736 50.4601 175.736L44.4933 182.62Z" fill="#231F20"/>
<path d="M67.3559 121.44C68.2098 121.902 69.0613 122.372 69.8884 122.897C70.1945 123.081 70.5121 123.223 70.8159 123.415C71.8638 124.109 72.9012 124.809 73.915 125.53C74.3766 125.828 74.8267 126.168 75.2625 126.495C75.823 126.92 76.3766 127.369 76.8527 127.904C77.0027 128.071 76.9179 128.118 76.6991 128.102C76.4804 128.086 76.0912 128.04 75.7368 127.869C75.0932 127.583 74.4556 127.306 73.8038 127.017C73.2059 126.663 72.6126 126.292 72.024 125.905C71.3272 125.424 70.4944 125.112 69.7132 124.742C68.8561 124.324 67.9966 123.915 67.1524 123.483C66.6272 123.22 66.0997 122.966 65.5592 122.726C64.7485 122.365 63.9342 121.986 63.0921 121.707C62.436 121.497 61.7536 121.414 61.0886 121.3C60.9431 121.277 60.793 121.271 60.6498 121.24C60.3846 121.166 60.2188 121.12 60.1292 120.961C60.0548 120.779 60.031 120.576 60.0424 120.311C60.0499 120.188 60.0468 120.071 60.0579 119.967C60.0816 119.786 60.1693 119.632 60.315 119.494C60.4607 119.356 60.6819 119.203 60.8984 119.228C62.2151 119.247 63.4706 119.678 64.6911 120.17C65.5975 120.539 66.4855 120.974 67.3675 121.399L67.3536 121.449L67.3559 121.44Z" fill="#231F20"/>
<path d="M77.8511 126.53C79.1722 127.238 80.5657 127.814 81.9717 128.313C82.4892 128.476 83.0289 128.59 83.5474 128.717C85.368 129.171 87.2533 129.778 88.7984 129.074C89.514 128.783 90.1133 128.235 90.4852 127.606C90.7546 127.217 90.8795 126.77 90.9748 126.332C91.0266 126.114 91.0665 125.875 91.0709 125.635C91.0647 125.401 91.1622 125.116 91.1155 124.835C91.1109 124.467 91.1063 124.484 91.4395 124.666C91.6126 124.75 91.8593 124.89 92.1787 125.122C92.4497 125.368 92.6648 125.749 92.7468 126.192C92.9196 126.981 92.687 127.783 92.4007 128.489C92.0706 129.192 91.5578 129.782 90.9959 130.259C90.4256 130.734 89.7813 131.09 89.1151 131.333C88.7981 131.477 88.3835 131.522 88.014 131.598C87.6234 131.685 87.3075 131.633 86.9565 131.642C85.3488 131.578 83.8221 131.447 82.3565 131.065C80.763 130.629 79.2428 130.026 77.7614 129.381L76.4113 128.745L75.0856 128.054C73.7562 127.344 72.4735 126.53 71.2286 125.71C70.7338 125.402 70.239 125.094 69.7442 124.786C69.2495 124.479 68.7464 124.169 68.2784 123.797C68.0718 123.641 67.8417 123.505 67.6526 123.318C66.9814 122.586 66.9164 122.211 67.2675 121.657C67.3482 121.527 67.4207 121.396 67.5157 121.279C67.8325 120.912 68.4022 120.919 68.9656 121.237C70.6521 122.172 72.2039 123.302 73.9512 124.307C75.2183 125.081 76.5278 125.83 77.8862 126.468L77.8677 126.534L77.8511 126.53Z" fill="#231F20"/>
<path d="M100.202 62.8374C100.202 62.8374 99.6063 69.9849 102.535 69.4038C105.465 68.8227 104.349 63.1142 104.349 63.1142L100.204 62.8283L100.202 62.8374Z" fill="#231F20"/>
<path d="M116.122 64.0117C116.122 64.0117 115.937 69.1588 117.325 69.1797C118.712 69.2005 119.769 67.0476 119.769 67.0476L118.888 63.8006L116.122 64.0117Z" fill="#231F20"/>
<path opacity="0.45" d="M69.2857 83.9433C70.5699 84.239 77.8962 91.3744 80.1347 94.2052C82.3732 97.036 80.9162 101.426 79.1025 102.26C77.2888 103.094 72.3934 104.793 68.7158 102.605C66.8094 101.466 64.8378 95.4048 68.0172 88.2345C71.1988 81.0558 69.2834 83.9516 69.2834 83.9516L69.2857 83.9433Z" fill="#231F20"/>
<path d="M125.633 39.6254C127.872 38.9637 122.763 19.0122 114.959 11.7971C107.157 4.57375 94.3149 -1.93848 81.8113 3.11319C69.3078 8.16486 61.6452 12.834 52.2702 20.536C42.8952 28.238 -6.28143 77.6559 8.90885 102.295C8.90885 102.295 16.5654 112.346 32.9495 115.094C49.3359 117.834 58.4394 113.763 60.0414 112.727C61.6435 111.691 65.4185 106.036 66.5753 102.017C67.0843 100.257 64.6586 102.644 64.9894 95.8222C65.2231 91.0459 68.2312 83.3365 68.2312 83.3365C68.2312 83.3365 55.1175 79.8481 56.0606 71.5358C57.0038 63.2236 62.0893 60.7476 63.6221 62.0416C65.1548 63.3357 69.5107 66.8375 71.8262 70.4491C74.15 74.063 77.8872 71.8093 78.134 70.6365C78.3807 69.4637 77.9216 61.8233 78.0916 59.709C78.2615 57.5947 79.7351 46.036 84.8427 40.6631C89.942 35.2878 94.4011 32.0475 97.0658 31.3974C99.7387 30.7495 107.661 30.4316 111.15 32.2086C114.638 33.9856 122.527 39.295 122.527 39.295L125.625 39.623L125.633 39.6254Z" fill="#231F20"/>
<path d="M147.417 255.664C144.279 255.387 141.172 254.931 138.099 254.324C136.98 254.11 135.849 253.937 134.737 253.663C133.742 253.421 132.814 253.127 131.923 252.959C131.026 252.78 130.102 252.7 129.163 252.671C127.283 252.655 125.349 252.893 123.448 253.274C121.756 253.606 120.076 254.12 118.454 254.686C116.335 255.363 114.314 256.3 112.129 256.834C111.438 256.972 111.395 256.647 111.775 256.02C112.143 255.373 112.961 254.458 114.167 253.945C116.285 252.982 118.476 252.173 120.757 251.585C123.032 250.987 125.386 250.554 127.817 250.482C129.265 250.448 130.772 250.458 132.279 250.691C132.655 250.751 133.029 250.819 133.378 250.881L134.439 251.114C135.122 251.26 135.805 251.406 136.487 251.552C139.48 252.19 142.516 252.707 145.564 253.021C146.503 253.113 147.437 253.222 148.382 253.262C149.322 253.319 150.268 253.386 151.21 253.372C154.066 253.445 156.935 253.245 159.707 252.723C160.776 252.477 161.842 252.274 162.833 251.862L164.336 251.308C164.834 251.125 165.294 250.852 165.774 250.637C166.197 250.433 166.589 250.212 167.016 250.028C168.507 249.166 169.051 249.041 169.778 249.476C169.938 249.574 170.13 249.655 170.267 249.773C170.73 250.162 170.321 250.923 169.155 251.741C165.667 254.127 161.276 255.233 156.987 255.654C153.781 255.938 150.572 255.945 147.391 255.728L147.39 255.665L147.417 255.664Z" fill="#231F20"/>
<path d="M116.891 207.255C117.454 208.181 118.029 209.1 118.65 209.979C118.871 210.309 119.141 210.589 119.374 210.905C120.164 212.045 120.962 213.188 121.898 214.217C122.305 214.679 122.772 215.086 123.205 215.52C123.499 215.78 123.795 216.032 124.086 216.301C124.226 216.439 124.393 216.548 124.518 216.707C124.643 216.867 124.76 217.025 124.899 217.198C125.054 217.411 125.008 217.416 124.762 217.401C124.576 217.394 124.391 217.387 124.238 217.389C124.132 217.386 123.996 217.393 123.886 217.371C123.778 217.341 123.664 217.3 123.555 217.243C122.821 216.833 122.081 216.412 121.425 215.881C120.795 215.321 120.202 214.726 119.681 214.063C119.062 213.274 118.27 212.589 117.637 211.787C116.934 210.912 116.276 210.005 115.645 209.096L114.482 207.405C113.897 206.554 113.349 205.669 112.728 204.852C112.242 204.225 111.696 203.653 111.184 203.055C111.069 202.924 110.943 202.8 110.846 202.666C110.453 202.154 110.504 201.874 110.873 201.45C110.963 201.35 111.037 201.245 111.131 201.164C111.444 200.876 111.888 200.884 112.298 201.177C112.876 201.633 113.392 202.152 113.883 202.7C114.373 203.248 114.761 203.874 115.173 204.48C115.766 205.396 116.357 206.32 116.941 207.234L116.897 207.266L116.891 207.255Z" fill="#231F20"/>
<path d="M104.908 69.2613C104.523 69.7436 103.854 70.2536 103.177 70.2792L102.919 70.3056C102.835 70.3179 102.749 70.3386 102.666 70.3154C102.485 70.2918 102.337 70.2773 102.219 70.2532C101.959 70.2253 101.705 70.1099 101.459 70.0323C101.11 69.8725 100.747 69.7353 100.467 69.4877C99.4621 68.6088 99.0921 67.4694 98.8823 66.4282C98.7884 65.9643 98.7051 65.4945 98.6821 65.0325C98.6589 64.7313 98.6524 64.4346 98.6647 64.1344C98.7207 63.8374 98.8311 63.5377 98.9949 63.2707C99.0955 63.1022 99.2957 63.1849 99.5203 63.3726C99.7343 63.5663 100.067 63.8467 100.179 64.119C100.26 64.5971 100.381 65.0597 100.477 65.5153C100.544 65.9805 100.65 66.4302 100.766 66.8821C100.907 67.4308 101.359 67.7979 101.749 68.0319C101.975 68.1486 102.204 68.2571 102.475 68.2791C102.682 68.3369 102.81 68.3278 102.975 68.2487C103.148 68.172 103.352 67.8268 103.478 67.4691C103.673 66.8982 103.798 66.2273 103.77 65.5585C103.755 65.0362 103.558 64.5257 103.413 64.0207C103.38 63.9134 103.323 63.7991 103.298 63.6941C103.207 63.2845 103.34 63.1608 103.965 62.9689L104.389 62.828C104.869 62.6761 105.315 62.8364 105.488 63.1792C106.006 64.1723 106.078 65.2911 105.948 66.4608C105.82 67.3362 105.655 68.2462 104.947 69.2812L104.902 69.2507L104.908 69.2613Z" fill="#231F20"/>
<path d="M119.345 69.8318C119.106 70.0153 118.878 70.1928 118.609 70.3233C118.486 70.4139 118.336 70.4078 118.193 70.4394C118.125 70.4563 118.04 70.4415 117.983 70.488L117.771 70.5094C117.11 70.4142 116.453 70.3025 115.986 69.8327C115.793 69.7252 115.681 69.5155 115.543 69.3698C115.414 69.2264 115.313 69.0734 115.259 68.9154C114.795 67.7943 114.917 66.8456 114.993 65.9292C115.025 65.5272 115.057 65.1251 115.086 64.7313C115.095 64.4748 115.14 64.2193 115.201 63.9683C115.236 63.844 115.27 63.7197 115.324 63.5917C115.367 63.4697 115.437 63.3463 115.574 63.2415C115.733 63.1164 115.805 63.1809 115.983 63.3737C116.197 63.5673 116.47 63.8398 116.496 64.0973C116.611 65.0315 116.519 65.935 116.514 66.8179C116.483 67.3452 116.735 67.8531 116.947 68.1177C117.048 68.2978 117.186 68.4435 117.413 68.4622C117.483 68.4996 117.567 68.4872 117.637 68.462C117.804 68.4373 118.005 68.1985 118.189 67.8924C118.452 67.4298 118.694 66.8811 118.78 66.3156C118.843 65.8685 118.721 65.4059 118.607 65.0166C118.576 64.9364 118.525 64.8599 118.513 64.7761C118.418 64.5084 118.648 64.4833 119.257 64.2242L119.675 64.0372C119.907 63.9412 120.134 63.8972 120.354 63.9408C120.566 63.982 120.778 64.1485 120.88 64.3287C121.412 65.4954 121.204 66.5628 120.857 67.5826C120.715 67.9629 120.548 68.3362 120.316 68.7182C120.089 69.0837 119.843 69.4883 119.398 69.8645L119.355 69.8258L119.345 69.8318Z" fill="#231F20"/>
<path d="M108.812 111.164C110.601 110.708 112.321 110.017 113.896 109.081C114.278 108.83 114.673 108.601 115.043 108.329L116.119 107.45C116.877 106.911 117.467 106.173 118.126 105.509L118.48 105.134L118.784 104.719L119.385 103.877C119.58 103.592 119.799 103.322 119.978 103.033L120.511 102.145C121.196 101.131 121.707 100.005 122.29 98.9077C122.561 98.3493 122.778 97.7665 123.027 97.1929L123.393 96.3302L123.703 95.443C124.574 93.0868 125.157 90.6141 125.665 88.1207C126.105 85.9031 126.319 83.6313 126.532 81.395C126.683 79.9545 126.756 78.5098 126.91 77.061C127.081 75.6169 127.281 74.1631 127.568 72.7158C127.747 71.8188 127.742 71.9335 127.9 72.7102C127.98 73.0985 128.121 73.6472 128.302 74.3139C128.463 74.9842 128.611 75.7669 128.688 76.6102C128.887 79.6134 128.803 82.636 128.394 85.6394C128.01 88.6497 127.413 91.6543 126.494 94.5959C125.376 98.0894 124.103 101.79 121.902 104.972C121.257 105.811 120.7 106.718 119.929 107.468L118.843 108.639C118.469 109.017 118.033 109.333 117.631 109.685C116.045 111.11 114.135 112.194 112.183 112.98C109.764 113.967 107.202 114.503 104.632 114.688C100.739 114.906 96.7852 114.348 93.17 112.866C92.7317 112.708 92.3155 112.503 91.8888 112.303L91.3033 112.033C91.1919 111.984 91.0934 111.921 90.9985 111.876C90.7794 111.797 90.5199 111.511 90.4016 111.871C90.2554 112.107 90.1631 112.277 90.0076 112.547C89.4798 113.382 88.9391 114.232 88.3675 115.064C88.0045 115.597 87.6663 116.137 87.2535 116.656C85.7527 118.577 84.7983 119.053 83.8849 118.708C83.6824 118.634 83.4466 118.55 83.3146 118.415C82.925 117.923 83.226 117.292 84.162 115.954C84.9845 114.799 85.7849 113.53 86.6112 112.234L87.2327 111.255L87.5487 110.762L88.1659 109.862C88.6018 109.26 89.0807 108.536 89.6959 108.637L89.911 108.634L89.9653 108.631L89.9902 108.638L89.9925 108.63C90.0342 108.865 89.9408 108.303 89.9495 108.368L89.9661 108.373L90.0821 108.405L90.5389 108.497L91.4667 108.693L92.1525 109.116L92.4954 109.328L92.5796 109.379L92.7053 109.44L92.7836 109.48L93.4451 109.799C93.8708 110.033 94.3552 110.186 94.8114 110.376C95.7391 110.733 96.7041 111.02 97.6959 111.243C101.284 112.021 105.155 112.074 108.737 111.081L108.763 111.151L108.812 111.164Z" fill="#231F20"/>
<path d="M5.0654 67.5647C8.27604 61.2428 12.3519 55.5016 16.7586 50.1118C21.1841 44.7183 25.9901 39.69 31.0068 34.8991C34.6772 31.412 38.3964 27.9742 42.2931 24.7646C49.1908 19.1228 56.3552 13.8055 64.1143 9.27049C66.0421 8.15572 68.1108 7.08024 70.1369 6.18941C72.1663 5.25483 74.2315 4.38386 76.3326 3.57648C78.4254 2.76679 80.5839 2.07368 82.7631 1.46673C84.9601 0.891575 87.1994 0.453256 89.4694 0.193215C91.4915 -0.0109097 93.5324 -0.0579535 95.5767 0.0746241C97.6154 0.259239 99.6536 0.541951 101.616 1.09816C105.567 2.11113 109.284 4.05927 112.497 6.47387C113.566 7.21886 114.507 8.10648 115.496 8.94534C116.411 9.8615 117.375 10.7289 118.206 11.72C119.962 13.6213 121.462 15.737 122.825 17.9303C124.206 20.12 125.28 22.483 126.189 24.8895C126.607 26.1137 127.027 27.3296 127.308 28.596C127.494 29.2106 127.573 29.8578 127.643 30.5027L127.759 31.464L127.821 31.9459C127.817 32.0251 127.905 32.0943 127.814 32.1941L127.799 32.44C127.692 34.0717 127.609 34.7542 127.512 34.7181C127.404 34.6881 127.216 33.921 126.646 32.699C126.314 32.0971 125.975 31.3594 125.558 30.5465C125.075 29.7505 124.691 28.8216 124.206 27.8378C123.22 25.8654 121.964 23.675 120.649 21.2804C115.885 12.868 108.097 5.97901 98.799 4.11781C94.188 3.09951 89.33 3.41476 84.5623 4.55913C79.7827 5.68229 75.0787 7.55903 70.4385 9.62329C67.7253 10.8316 65.0685 12.3504 62.4502 13.9872C59.8379 15.6346 57.2559 17.3976 54.7322 19.2394C49.6661 22.9267 44.7732 26.9214 40.0548 31.0273C34.8721 35.5486 29.8859 40.2943 25.2028 45.3302C20.5304 50.36 16.1303 55.6623 12.3271 61.3545C10.0006 64.8592 7.89134 68.5138 6.23232 72.3476C4.59219 76.1778 3.36819 80.2133 3.08184 84.3139C2.84125 87.4179 3.22839 90.5451 4.27716 93.446C5.36004 96.3207 7.12478 98.9926 9.21598 101.327C11.292 103.683 13.7487 105.7 16.4057 107.415C19.0498 109.144 21.9034 110.538 24.8345 111.686C29.4019 113.47 34.1966 114.566 39.0007 115.084C43.7929 115.581 48.7035 115.558 53.2754 114.475C55.2697 113.986 57.1216 113.207 58.7979 112.13C60.3492 111.115 61.4061 110.017 62.2012 109.024C62.9963 108.031 63.526 107.124 63.9432 106.365C64.7716 104.837 65.2977 103.912 65.9207 103.183C66.1845 102.846 66.4604 102.369 66.6661 102.176C67.0091 101.843 67.1645 102.503 67.0951 104.065C67.0634 104.851 66.8675 105.841 66.4586 106.987C66.0746 108.139 65.4233 109.449 64.4648 110.772C63.7535 111.752 62.9189 112.663 61.9771 113.445C61.0473 114.249 60.0185 114.927 58.9406 115.493C56.7862 116.651 54.4278 117.324 52.0891 117.735C47.3899 118.505 42.6499 118.398 37.967 117.797C33.2828 117.169 28.6438 116.027 24.1421 114.361C19.6534 112.68 15.3169 110.389 11.4579 107.347C8.58961 105.109 6.03505 102.387 3.98521 99.2959C1.93305 96.2133 0.483125 92.477 0.146412 88.7207C-0.250627 84.9564 0.189176 81.2024 1.11141 77.6722C2.01939 74.1291 3.40246 70.7722 4.99217 67.5711L5.06676 67.5919L5.0654 67.5647Z" fill="#231F20"/>
<path d="M10.5044 213.264C9.75258 211.732 9.06436 210.165 8.51991 208.53C7.98606 206.889 7.55956 205.216 7.29707 203.499C7.05116 201.787 6.93977 200.041 7.00338 198.308C7.09879 196.557 7.32353 194.887 7.62287 193.237C8.82482 186.623 11.1009 180.353 13.8644 174.353L15.4183 171.088C15.9445 170.002 16.5407 168.954 17.0955 167.894C18.1788 165.739 19.4531 163.701 20.7049 161.647C25.2162 154.473 30.4362 147.801 36.0367 141.493L40.3109 136.835L44.78 132.373C45.5307 131.636 46.267 130.886 47.0259 130.15L49.3527 128.021L54.0064 123.763C56.54 121.63 59.0736 119.496 61.5967 117.368C61.9147 117.189 62.2147 116.978 62.5603 116.86C62.9278 116.855 63.2643 116.994 63.6165 117.172C63.9603 117.348 64.3069 117.579 64.6369 117.805L65.3622 118.311C66.2347 118.93 67.1073 119.548 67.9716 120.165C69.7024 121.389 71.4425 122.58 73.1988 123.713C77.122 126.237 81.2332 128.598 85.4887 130.027C86.5439 130.375 87.6283 130.65 88.6617 130.724C89.6869 130.796 90.6634 130.657 91.2001 130.11C91.7548 129.595 91.9788 128.568 91.8611 127.517C91.7646 126.454 91.3739 125.389 90.8867 124.413C90.276 123.144 89.7439 122.906 89.8296 122.823C89.8799 122.739 90.6258 122.947 91.5454 123.909C92.0258 124.365 92.4921 125.031 92.931 125.859C93.3487 126.699 93.7783 127.721 93.7938 129.074C93.8028 129.747 93.6481 130.525 93.212 131.288C92.7699 132.04 92.0162 132.66 91.2112 133.016C89.5846 133.724 87.964 133.674 86.4512 133.493C85.1097 133.306 83.8385 132.996 82.6221 132.586C81.4149 132.142 80.2618 131.632 79.1367 131.086C76.889 129.986 74.7551 128.765 72.6904 127.457C70.628 126.14 68.6279 124.76 66.6702 123.357L63.752 121.265L63.035 120.762C62.8629 120.642 62.9388 120.69 62.9163 120.675L62.908 120.673C62.908 120.673 62.8771 120.655 62.8463 120.638C62.8513 120.684 62.8394 120.662 62.8264 120.677L62.8218 120.693L62.7112 120.77L62.0128 121.352L60.616 122.517L57.8201 124.854C55.9149 126.368 54.168 128.052 52.3377 129.649L49.6145 132.078C48.6953 132.876 47.8593 133.759 46.9745 134.593L44.3525 137.14C43.482 137.987 42.5867 138.827 41.7649 139.724C33.6982 147.987 26.3849 157.649 20.5429 167.864C17.3326 173.48 14.5802 179.376 12.5999 185.514C11.611 188.579 10.8103 191.706 10.2864 194.864C10.0576 196.453 9.84865 198.003 9.87734 199.565C9.89774 201.125 10.0305 202.699 10.3415 204.241C11.084 208.048 12.6763 211.69 14.7314 215.051C16.803 218.415 19.3139 221.519 22.0585 224.393C26.2154 228.768 30.926 232.663 35.805 236.276C40.6947 239.882 45.8093 243.193 50.9924 246.292C59.0725 251.109 67.3057 255.282 75.6065 259.5C77.4372 260.43 79.2287 261.341 81.0736 262.285C84.4804 264.066 86.6948 265.318 88.1786 266.339C89.6471 267.383 90.4141 268.124 90.9268 268.847C91.1664 269.173 91.4916 269.577 91.5959 269.811C91.758 270.223 91.153 270.054 89.8778 269.502C88.605 268.941 86.6292 268.051 84.1569 266.762C76.7619 263.011 69.0386 259.285 61.3658 255.152C53.6908 251.028 46.0161 246.583 38.6534 241.563C33.1887 237.841 27.892 233.773 22.9974 229.192C18.1301 224.61 13.6042 219.444 10.4385 213.308L10.4961 213.262L10.5044 213.264Z" fill="#231F20"/>
<path d="M105.905 169.246C106.154 171.075 106.414 172.898 106.6 174.728L106.916 177.469L107.178 180.213C107.315 181.547 107.507 182.877 107.59 184.214C107.938 188.92 108.122 193.643 108.155 198.36C108.188 200.45 108.227 202.551 108.254 204.631C108.301 205.967 108.251 207.301 108.217 208.641C108.203 208.976 108.201 209.306 108.168 209.645L108.041 210.646C107.946 211.307 107.851 211.969 107.753 212.638C107.612 213.465 107.399 213.334 107.115 212.621C106.851 211.904 106.356 210.605 106.242 209.09C106.092 206.395 106.037 203.709 105.976 201.012C105.923 199.667 105.88 198.315 105.856 196.959C105.805 195.605 105.763 194.253 105.768 192.888C105.758 191.26 105.621 189.605 105.487 187.941C105.317 186.277 105.149 184.605 104.985 182.951L104.392 177.489C104.147 175.678 103.95 173.855 103.669 172.043C103.335 169.815 103 167.587 102.572 165.377C101.955 162.016 101.238 158.663 100.332 155.409C99.5991 152.882 98.6916 150.467 97.6957 148.081C97.4761 147.555 97.2625 147.04 97.0429 146.515C96.1999 144.573 96.133 143.885 96.639 143.159C96.7562 142.995 96.8554 142.8 96.9882 142.676C97.4276 142.254 98.1997 142.88 98.971 144.31C101.198 148.558 102.74 153.374 103.898 158.253C104.294 160.069 104.695 161.896 105.034 163.724C105.343 165.561 105.709 167.387 105.962 169.235L105.895 169.252L105.905 169.246Z" fill="#231F20"/>
<path d="M117.865 157.173C119.287 160.625 120.613 164.103 121.985 167.541C122.484 168.797 123.054 170.019 123.555 171.266C125.337 175.667 127.095 180.061 129.384 184.183C130.404 186.004 131.603 187.723 132.879 189.33C133.701 190.354 134.578 191.34 135.523 192.247C135.765 192.466 135.979 192.723 136.198 192.962C136.428 193.196 136.67 193.416 136.9 193.649C137.357 194.125 137.863 194.552 138.369 194.979C138.985 195.526 138.778 195.692 137.998 195.573C137.224 195.464 135.779 195.105 134.427 194.156C132.165 192.338 130.223 190.143 128.705 187.737C127.148 185.346 125.851 182.823 124.731 180.241C123.376 177.157 121.875 174.022 120.587 170.858L116.424 160.452C115.561 158.326 114.687 156.207 113.741 154.12C112.318 150.963 110.829 147.814 109.099 144.857C107.74 142.558 106.223 140.437 104.6 138.377C104.256 137.915 103.862 137.501 103.515 137.047C102.26 135.303 101.93 134.693 102.139 133.912C102.187 133.738 102.199 133.536 102.274 133.396C102.504 132.924 103.386 133.349 104.597 134.481C108.042 137.952 110.77 142.358 113.159 146.857C114.931 150.209 116.463 153.683 117.951 157.153L117.89 157.18L117.865 157.173Z" fill="#231F20"/>
<path d="M117.375 206.229C118.084 207.079 118.818 207.909 119.59 208.696C119.866 208.987 120.189 209.238 120.475 209.523C121.481 210.528 122.474 211.582 123.563 212.511C124.034 212.937 124.567 213.3 125.068 213.681C125.721 214.158 126.4 214.606 127.007 215.151C127.199 215.329 127.072 215.464 126.78 215.516C126.489 215.569 126.017 215.562 125.582 215.361C124.047 214.62 122.658 213.643 121.397 212.496C120.641 211.812 119.774 211.204 118.993 210.512C118.144 209.748 117.322 208.947 116.521 208.135C116.028 207.631 115.547 207.112 115.075 206.597C114.346 205.813 113.665 204.989 112.956 204.201C112.405 203.583 111.776 203.05 111.204 202.444C111.08 202.311 110.946 202.184 110.843 202.04C110.456 201.476 110.459 201.209 110.825 200.793C110.905 200.699 110.987 200.597 111.083 200.508C111.393 200.228 111.841 200.255 112.232 200.551C112.508 200.78 112.815 200.991 113.076 201.242C113.336 201.493 113.575 201.757 113.825 202.014C114.309 202.551 114.8 203.099 115.267 203.667C115.97 204.506 116.657 205.376 117.411 206.194L117.375 206.229Z" fill="#231F20"/>
<path d="M48.3513 174.424C49.173 173.528 50.0126 172.664 50.9066 171.796L51.2579 171.466L51.4612 171.281L51.5424 171.214L51.6341 171.142L51.6682 171.116C51.7576 171.051 51.8577 170.981 51.9614 170.929C52.0143 170.9 52.065 170.878 52.124 170.859L52.2042 170.827C52.2714 170.81 52.1498 170.83 52.4437 170.769C52.5796 170.762 53.4812 170.54 54.2054 171.627C54.6482 172.697 54.2508 173.033 54.2295 173.206L54.1944 173.267L54.1441 173.352C54.025 173.586 53.8502 173.797 53.7063 174.024C53.4018 174.476 53.1544 174.978 52.8987 175.479C52.5239 176.214 52.2997 177.018 52.0008 177.801C50.9758 180.579 50.1643 183.488 49.5457 186.441C49.2514 187.753 49.0671 189.086 48.8957 190.405C48.8017 191.254 48.716 192.106 48.6221 192.955C48.553 193.811 48.3195 194.648 48.1463 195.493C48.0172 196.02 47.7649 195.931 47.4688 195.456C47.1999 194.979 46.7394 194.1 46.7271 193.087C46.8798 189.53 47.1955 185.965 48.1997 182.493C48.78 180.413 49.1739 178.2 49.891 176.078C50.08 175.496 50.3045 174.916 50.5041 174.328C50.7557 173.746 50.9613 173.169 51.2484 172.588L51.4584 172.156L51.5706 171.946L51.6278 171.837L51.6324 171.82C50.6884 171.298 52.924 172.538 52.6916 172.41C52.6846 172.435 52.7307 172.43 52.7164 172.417C52.7238 172.455 52.7334 172.485 52.7619 172.51C52.7799 172.542 52.8024 172.557 52.8392 172.586L52.9584 172.735L53.2072 173.028L53.5071 173.361L53.5048 173.37C53.3379 173.52 53.1088 173.733 52.9091 173.936C52.5016 174.341 52.0893 174.761 51.6854 175.185C50.6968 176.231 49.7238 177.317 48.8042 178.436C47.4119 180.129 46.0329 181.871 44.8601 183.705C43.9282 185.125 43.25 186.659 42.4507 188.116C42.279 188.443 42.1345 188.769 41.9462 189.092C41.2669 190.278 40.8977 190.577 40.1825 190.547C40.0157 190.536 39.8504 190.553 39.6989 190.519C39.2007 190.416 39.0757 189.711 39.379 188.688C40.2463 185.643 41.8283 182.725 43.7583 180.066C45.1712 178.075 46.7277 176.178 48.3329 174.33L48.3923 174.373L48.3513 174.424Z" fill="#231F20"/>
<path d="M172.271 148.116C172.975 148.473 173.664 148.853 174.314 149.276C174.559 149.424 174.815 149.531 175.044 149.703C175.857 150.278 176.622 150.929 177.306 151.647C177.624 151.95 177.931 152.259 178.251 152.553C178.446 152.751 178.649 152.95 178.833 153.154C178.992 153.385 179.091 153.672 179.186 153.94C179.235 154.114 179.11 154.178 178.855 154.196C178.611 154.208 178.187 154.224 177.91 154.093C177.131 153.429 176.325 152.829 175.564 152.099C175.121 151.636 174.506 151.375 173.953 151.051C173.336 150.7 172.707 150.364 172.057 150.066C171.653 149.882 171.247 149.706 170.828 149.572C170.202 149.352 169.552 149.153 168.899 149.06C168.389 148.998 167.869 149.068 167.379 149.128C167.268 149.141 167.157 149.155 167.055 149.171C166.653 149.202 166.534 149.053 166.436 148.507C166.416 148.386 166.38 148.259 166.371 148.132C166.32 147.707 166.496 147.363 166.842 147.245C167.874 146.907 169 146.936 170.044 147.227C170.826 147.436 171.573 147.734 172.298 148.052L172.284 148.102L172.271 148.116Z" fill="#231F20"/>
<path d="M195.621 150.878C195.697 151.533 195.691 152.13 195.644 152.716C195.63 152.926 195.67 153.134 195.646 153.35C195.552 154.101 195.387 154.823 195.223 155.537C195.154 155.848 195.11 156.166 195.077 156.479C195.045 156.881 194.973 157.298 194.657 157.63C194.432 157.701 194.395 157.673 194.122 157.499C193.866 157.329 193.587 157.081 193.54 156.863C193.489 156.661 193.513 156.48 193.528 156.297C193.544 156.114 193.568 155.933 193.585 155.741C193.635 155.371 193.691 155.011 193.795 154.638C193.919 154.191 193.792 153.718 193.767 153.264C193.737 152.764 193.695 152.243 193.641 151.764C193.599 151.466 193.546 151.175 193.451 150.907C193.305 150.5 193.139 150.105 192.824 149.856C192.577 149.654 192.233 149.638 191.969 149.654C191.915 149.657 191.851 149.692 191.802 149.679C191.627 149.665 191.625 149.513 191.619 148.859L191.608 148.419C191.603 147.926 191.789 147.513 192.175 147.442C192.736 147.322 193.308 147.481 193.768 147.753C194.245 148.029 194.619 148.419 194.918 148.851C195.351 149.507 195.547 150.214 195.671 150.856L195.623 150.87L195.621 150.878Z" fill="#231F20"/>
<path d="M170.199 168.825C170.476 168.599 170.762 168.375 171.056 168.153L171.505 167.823L172.106 167.401C172.482 167.237 172.828 167.021 173.244 167.003C173.443 166.961 173.649 166.991 173.851 167.003C174.043 167.021 174.272 167.031 174.427 167.084C174.728 167.158 174.974 167.236 175.196 167.307L175.855 167.536C176.416 167.736 176.958 167.843 177.492 168.01C179.369 168.614 181.34 168.976 183.363 169.121C184.255 169.191 185.165 169.132 186.054 169.049C186.622 168.967 187.201 168.941 187.78 168.915C188.071 168.897 188.355 168.87 188.653 168.89C188.947 168.927 189.24 168.965 189.552 168.998C189.928 169.058 189.914 169.269 189.654 169.625C189.524 169.803 189.336 170.028 189.1 170.265C188.868 170.522 188.568 170.733 188.231 170.818C187.044 171.201 185.796 171.318 184.55 171.336C183.306 171.374 182.046 171.281 180.795 171.057C179.315 170.761 177.739 170.616 176.255 170.202L174.452 169.654C174.302 169.612 174.186 169.58 174.062 169.545C173.946 169.513 173.913 169.504 173.847 169.485C173.722 169.451 173.59 169.476 173.471 169.55C173.45 169.562 173.271 169.691 173.143 169.798L172.729 170.129L170.403 171.999C169.231 172.968 168.03 173.91 166.886 174.904C165.993 175.673 165.213 176.545 164.312 177.312C164.113 177.48 163.928 177.661 163.716 177.816C162.913 178.387 162.522 178.412 162.042 178.019C161.934 177.926 161.813 177.848 161.724 177.752C161.418 177.407 161.542 176.897 161.988 176.387C163.281 174.827 164.872 173.413 166.481 171.968C167.706 170.908 168.931 169.847 170.148 168.784L170.196 168.833L170.199 168.825Z" fill="#231F20"/>
<path d="M191.088 247.525C194.024 246.253 196.628 244.22 198.623 241.614C200.61 239.006 202.017 235.915 202.984 232.674C203.664 230.3 204.123 227.855 204.413 225.373C205.515 216.622 204.801 207.589 203.031 198.85C202.23 194.965 201.172 191.105 199.884 187.396C199.079 185.001 198.083 182.678 197.056 180.372C196.546 179.221 195.994 178.093 195.411 176.983L193.559 173.725C193.192 173.024 193.034 172.694 193.08 172.689C193.129 172.675 193.403 172.94 194.002 173.321C194.33 173.493 194.631 173.791 195.008 174.102C195.418 174.395 195.785 174.81 196.175 175.267C196.969 176.168 197.794 177.309 198.525 178.629C199.85 180.955 200.82 183.432 201.774 185.905C202.718 188.383 203.505 190.907 204.215 193.455C205.527 198.582 206.487 203.816 206.891 209.128C207.168 212.296 207.305 215.55 207.305 218.819C207.312 222.09 207.068 225.399 206.504 228.636C205.878 232.195 204.866 235.727 203.242 239.017C201.621 242.299 199.345 245.335 196.411 247.625C195.948 247.969 195.509 248.329 195.034 248.652L193.552 249.516L192.807 249.943C192.558 250.069 192.288 250.173 192.024 250.287L190.446 250.945C189.924 251.184 189.368 251.288 188.829 251.459C188.286 251.611 187.743 251.799 187.195 251.905L185.544 252.222C184.996 252.328 184.446 252.443 183.889 252.484C180.534 252.951 177.161 252.876 173.824 252.669C170.483 252.478 167.186 251.907 163.934 251.267C158.903 250.186 153.974 248.802 149.322 246.423C148.277 245.944 147.321 245.338 146.325 244.712C142.731 242.226 142.046 240.74 142.159 239.503C142.18 239.205 142.174 238.873 142.233 238.693C142.367 238.373 142.704 238.512 143.45 238.782C143.865 238.898 144.25 239.149 144.699 239.461C144.924 239.614 145.151 239.793 145.392 239.985C145.657 240.157 145.936 240.342 146.237 240.543C149.666 242.982 153.729 244.749 157.978 246.167C162.236 247.587 166.722 248.606 171.274 249.161C174.65 249.549 178.067 249.725 181.433 249.539C184.794 249.306 188.106 248.801 191.039 247.475L191.075 247.539L191.088 247.525Z" fill="#231F20"/>
<path d="M149.502 190.376C146.383 193.455 143.445 196.717 140.88 200.245C139.939 201.537 139.13 202.901 138.292 204.239C135.338 208.971 133.102 214.198 132.249 219.722C132.176 220.336 132.068 220.949 132.005 221.557C131.956 222.15 131.95 222.747 131.98 223.345C132.039 224.541 132.257 225.745 132.598 226.894C133.495 229.86 135.086 232.546 137.342 234.64C137.631 235.078 137.777 235.288 137.733 235.321C137.694 235.363 137.469 235.274 136.966 235.25C136.69 235.28 136.436 235.164 136.113 235.074C135.79 234.984 135.437 234.841 135.073 234.641C134.304 234.293 133.548 233.671 132.895 232.872C131.759 231.439 130.888 229.82 130.321 228.108C129.726 226.397 129.386 224.605 129.338 222.76C129.315 222.298 129.347 221.833 129.361 221.364C129.396 220.918 129.452 220.496 129.503 220.055L129.687 218.757L129.953 217.483L130.236 216.213L130.601 214.966C130.835 214.129 131.124 213.316 131.43 212.508C132.875 208.641 134.667 204.746 136.925 201.232C139.391 197.355 142.321 193.831 145.403 190.501C147.32 188.464 149.329 186.514 151.365 184.625C154.462 181.755 157.745 179.08 160.989 176.448C163.508 174.399 165.927 172.323 168.44 170.326C168.993 169.882 169.519 169.439 170.086 169.008C172.189 167.424 172.974 167.107 173.911 167.431C174.122 167.507 174.367 167.558 174.544 167.661C175.123 168.019 174.56 169.077 173.097 170.348C168.77 174.108 164.012 177.684 159.432 181.516C156.032 184.355 152.688 187.281 149.578 190.424L149.519 190.381L149.502 190.376Z" fill="#231F20"/>
<path d="M179.622 155.482C178.214 154.732 177.296 153.86 176.361 153.018L173.739 150.536C172.886 149.753 172.01 149.017 171.128 148.432C170.255 147.849 169.351 147.472 168.647 147.463C168.392 147.481 168.156 147.496 167.927 147.61C167.697 147.698 167.628 147.786 167.514 147.906C167.328 148.158 167.171 148.721 167.162 149.425C167.147 150.662 167.47 152.101 167.908 153.474C168.343 154.863 168.932 156.243 169.555 157.596C170.186 158.951 170.908 160.269 171.696 161.543C172.489 162.8 173.359 164.034 174.335 165.021C174.552 165.234 174.768 165.419 174.977 165.567C175.133 165.681 175.442 165.821 175.735 165.957C176.017 166.098 176.317 166.208 176.619 166.31C176.916 166.429 177.221 166.523 177.538 166.602C178.781 166.949 180.074 167.149 181.374 167.262C183.045 167.388 184.752 167.32 186.448 167.194C188.143 167.042 189.847 166.892 191.586 166.805C192.706 166.921 192.619 167.138 191.835 167.929C191.447 168.33 190.847 168.752 190.09 169.157C189.335 169.59 188.404 169.919 187.359 170.048C185.505 170.29 183.619 170.389 181.713 170.304C179.799 170.217 177.851 169.932 175.959 169.253C175.482 169.075 175.01 168.908 174.555 168.682C174.318 168.572 174.103 168.476 173.846 168.342C173.529 168.164 173.228 167.964 173.009 167.787C172.076 167.035 171.463 166.284 170.869 165.501C169.702 163.952 168.75 162.338 167.904 160.663C166.897 158.668 165.939 156.596 165.197 154.388C164.826 153.284 164.502 152.14 164.335 150.914C164.247 150.3 164.2 149.67 164.237 148.993C164.28 148.326 164.383 147.604 164.747 146.875C165.113 146.075 165.877 145.323 166.702 144.991C167.458 144.648 168.336 144.544 169.127 144.622C170.73 144.801 171.954 145.536 173.034 146.275C175.153 147.804 176.842 149.597 178.608 151.144C179.146 151.615 179.697 152.073 180.247 152.441C180.772 152.801 181.392 153.108 181.74 153.107C181.934 153.117 182.083 153.096 182.295 152.976C182.583 152.807 182.882 152.666 183.165 152.451C183.743 152.076 184.312 151.636 184.88 151.169C186.607 149.784 188.278 148.178 190.411 146.969C191.477 146.382 192.78 145.905 194.179 146.046C194.522 146.097 194.856 146.181 195.192 146.257C195.519 146.366 195.813 146.528 196.123 146.668C196.749 146.986 197.338 147.561 197.673 148.217C198.224 149.255 198.239 150.322 198.196 151.275C198.132 152.24 197.941 153.151 197.702 154.04C197.226 155.81 196.542 157.46 195.766 159.057C195.417 159.763 195.098 160.46 194.704 161.136C193.974 162.407 193.386 163.171 192.85 163.62C192.328 164.082 191.883 164.235 191.38 164.247C191.146 164.253 190.894 164.29 190.71 164.247C190.075 164.088 190.379 162.904 191.238 161.072C192.61 158.426 193.949 155.611 194.748 152.877C194.937 152.197 195.07 151.529 195.112 150.933C195.15 150.345 195.079 149.834 194.965 149.632C194.918 149.512 194.854 149.485 194.802 149.417C194.761 149.37 194.517 149.284 194.341 149.181C193.957 149.083 193.628 148.982 193.144 149.116C192.443 149.259 191.557 149.745 190.678 150.366C189.791 150.985 188.894 151.735 187.963 152.512C187.021 153.294 186.045 154.103 184.903 154.865C184.627 155.056 184.325 155.24 183.999 155.417C183.832 155.504 183.719 155.589 183.453 155.711C183.18 155.823 182.903 155.951 182.614 155.995C182.051 156.124 181.407 156.096 180.888 155.969C180.384 155.855 179.975 155.688 179.607 155.504L179.627 155.43L179.622 155.482Z" fill="#231F20"/>
<g style="mix-blend-mode:multiply">
<path d="M105.97 65.0378C105.97 65.0378 105.912 65.0843 105.877 65.0833C103.955 64.8956 102.077 64.7112 100.2 64.652C99.2622 64.587 98.3305 64.5325 97.3873 64.5195C96.4551 64.5632 95.4931 64.3931 94.5269 64.3022L94.5501 64.2194L94.4627 64.0521L94.3854 63.2087L94.3042 62.8913C94.7935 62.7062 95.2805 62.5294 95.7841 62.3572C96.0352 62.2576 96.2808 62.2099 96.5406 62.1752L97.308 62.0499C98.333 61.8981 99.3556 61.7546 100.388 61.7032C102.443 61.6064 104.496 61.6432 106.489 61.6721L106.575 61.6515C106.575 61.6515 106.625 61.6653 106.638 61.7137L106.73 61.9625C106.761 62.0427 106.762 62.168 106.734 62.2674L106.662 62.5243C106.662 62.5243 106.637 62.6155 106.642 62.6616L106.651 62.8518C106.651 62.8518 106.652 62.9144 106.645 62.9393L106.618 63.164C106.61 63.2244 106.61 63.287 106.613 63.3413L106.631 63.5965C106.637 63.6698 106.623 63.755 106.588 63.7812L106.509 63.875C106.509 63.875 106.476 63.9284 106.481 63.9745L106.456 64.1283C106.456 64.1283 106.452 64.2075 106.448 64.2513L106.471 64.4899C106.471 64.4899 106.474 64.5442 106.465 64.5774L106.447 64.7063C106.432 64.7915 106.407 64.8472 106.369 64.8545L106.212 64.8732C106.166 64.8782 106.113 64.9081 106.072 64.9592L105.958 65.0793L105.97 65.0378Z" fill="#242021"/>
</g>
<g style="mix-blend-mode:multiply">
<path d="M114.198 61.8218C114.198 61.8218 114.245 61.7814 114.262 61.786C114.896 61.8825 115.566 62.0426 116.252 62.1446C116.94 62.2739 117.643 62.3451 118.355 62.5168C119.06 62.6778 119.782 62.8435 120.503 63.0446C121.219 63.2624 121.978 63.4562 122.64 63.9354L122.579 64.0256L122.552 64.2503L122.141 65.2434L122.03 65.6412C121.327 65.6326 120.681 65.4794 119.981 65.4271C119.292 65.3687 118.577 65.3389 117.849 65.3234C117.125 65.2913 116.392 65.2297 115.648 65.1741C114.903 65.0913 114.127 65.089 113.344 64.8528L113.271 64.8592C113.271 64.8592 113.231 64.8394 113.226 64.7933L113.193 64.5607C113.187 64.4874 113.2 64.3751 113.242 64.2885L113.338 64.074C113.338 64.074 113.359 63.9994 113.37 63.958L113.392 63.7853L113.412 63.7107L113.468 63.5118C113.482 63.4621 113.498 63.4041 113.493 63.358L113.52 63.1333C113.53 63.0647 113.557 63.0007 113.574 62.9698L113.65 62.8925C113.65 62.8925 113.68 62.8474 113.692 62.806L113.731 62.6651C113.731 62.6651 113.752 62.5905 113.761 62.5574L113.786 62.3409C113.786 62.3409 113.799 62.2912 113.806 62.2663L113.839 62.1503C113.86 62.0757 113.892 62.0223 113.911 62.0186L114.022 62.005C114.022 62.005 114.094 61.9714 114.133 61.9286L114.225 61.8205L114.198 61.8218Z" fill="#242021"/>
</g>
<path d="M101.669 90.5025C101.773 92.7557 102.89 94.8985 104.637 96.3236C106.783 98.0747 109.419 98.6492 112.132 98.2091C112.938 98.0764 113.396 97.1056 113.207 96.374C112.979 95.5244 112.177 95.1666 111.372 95.2993C110.493 95.4384 109.559 95.3922 108.722 95.1587C108.507 95.0986 108.294 95.0302 108.091 94.9558C107.653 94.7978 108.34 95.0878 107.932 94.8847C107.846 94.8427 107.759 94.8007 107.673 94.7587C107.463 94.6466 107.264 94.5284 107.058 94.3997C106.96 94.3365 106.864 94.265 106.773 94.2041C106.728 94.1737 106.489 93.9731 106.7 94.1478C106.375 93.8698 106.066 93.5691 105.785 93.2317C105.753 93.187 105.561 92.9459 105.73 93.1718C105.666 93.0823 105.602 92.9929 105.54 92.8952C105.433 92.7316 105.329 92.5597 105.234 92.3901C105.135 92.2016 105.038 92.0048 104.957 91.8127C105.075 92.0956 104.879 91.5496 104.852 91.4529C104.805 91.27 104.766 91.0894 104.727 90.9088C104.698 90.7577 104.696 90.6679 104.711 90.8687C104.7 90.7494 104.689 90.6301 104.688 90.5048C104.647 89.6896 104.027 88.9985 103.188 88.9967C102.403 88.9921 101.639 89.6812 101.68 90.4965L101.669 90.5025Z" fill="#231F20"/>
<path d="M105.342 45.418C101.864 44.377 98.0059 44.598 94.6551 45.9907C93.8756 46.3164 93.3264 47.1996 93.6584 48.0498C93.9621 48.8187 94.8811 49.3919 95.7174 49.0464C96.4563 48.7349 97.2096 48.4912 97.9909 48.3016C98.0912 48.2758 98.2025 48.2553 98.3029 48.2295C98.14 48.2588 98.1591 48.2613 98.3463 48.2236C98.5527 48.1882 98.7672 48.1501 98.9763 48.1229C99.3675 48.0689 99.7724 48.0283 100.167 48.0097C100.561 47.991 100.969 47.9858 101.364 47.9943C101.473 47.9929 101.576 48.0025 101.688 48.0092C101.538 47.9975 101.557 48 101.745 48.0166C101.933 48.0332 102.113 48.0527 102.304 48.0775C103.121 48.1758 103.929 48.3505 104.721 48.5852C105.513 48.8199 106.489 48.1162 106.62 47.3145C106.761 46.3821 106.216 45.6789 105.35 45.4152L105.342 45.418Z" fill="#231F20"/>
<path d="M23.1577 242.939C22.8544 243.578 22.5465 244.234 22.2989 244.897C22.2046 245.139 22.1767 245.399 22.0885 245.651C21.7334 246.508 21.3594 247.368 21.1074 248.272C20.9798 248.665 20.9517 249.086 20.8762 249.485C20.7849 250.004 20.7374 250.527 20.4899 251.03C20.4106 251.186 20.1444 251.148 19.8526 250.977C19.569 250.808 19.2304 250.517 19.1787 250.19C18.9469 249.036 19.2047 247.92 19.6093 246.853C19.8748 246.222 19.888 245.502 20.0978 244.846C20.3179 244.121 20.5876 243.41 20.8657 242.702C21.0402 242.268 21.2231 241.837 21.3953 241.412C21.6572 240.761 21.9771 240.127 22.2058 239.467C22.3929 238.956 22.4331 238.396 22.6202 237.885C22.6691 237.774 22.6992 237.666 22.773 237.562C23.0829 237.219 23.3178 237.178 23.7428 237.287C23.8422 237.315 23.9357 237.332 24.0246 237.366C24.3183 237.466 24.4962 237.757 24.5921 238.15C24.6719 238.44 24.6877 238.703 24.7035 238.967C24.6719 239.208 24.6487 239.452 24.5779 239.673C24.4508 240.129 24.2573 240.566 24.0805 241.008C23.8103 241.656 23.4964 242.301 23.2299 242.968L23.1719 242.952L23.1577 242.939Z" fill="#231F20"/>
<path d="M88.4401 39.2098C83.5298 44.3876 80.5486 51.4882 79.7827 58.6529C79.5108 61.2926 79.7553 63.9066 79.9337 66.7255C79.977 67.9792 80.1105 69.2938 79.5887 70.908C79.5356 71.0986 79.4317 71.3109 79.3219 71.5125C79.2037 71.7118 79.1188 71.9203 78.9698 72.1021C78.6613 72.4716 78.3385 72.8282 77.9486 73.041C77.5674 73.3187 77.1924 73.4464 76.8067 73.58C76.6252 73.6544 76.4271 73.7242 76.2027 73.7598C75.9927 73.8084 75.7766 73.8464 75.5426 73.8526C74.6329 73.9115 73.7329 73.6158 73.0636 73.1968C72.3838 72.7839 71.8607 72.2896 71.3919 71.7926C70.4733 70.7949 69.7706 69.7592 69.0541 68.7733C68.3483 67.7814 67.6497 66.8272 66.8916 65.9904C66.1183 65.1762 65.2748 64.4854 64.3604 64.1767C63.9079 64.0058 63.4419 63.9473 62.9633 63.9656C62.4742 63.99 62.002 64.0816 61.5458 64.2759C60.6252 64.6622 59.7442 65.3544 59.0875 66.1717C58.7979 66.5375 58.5556 66.9255 58.382 67.3237C58.225 67.7265 58.0439 68.2477 57.931 68.7164C57.6877 69.6848 57.571 70.6794 57.5985 71.6697C57.6368 73.6456 58.2353 75.5991 59.3278 77.1901C60.0434 78.2115 60.9295 79.1019 61.9535 79.7538C62.9965 80.402 64.1639 80.9242 65.3752 81.2889L66.2938 81.5184L67.2309 81.6815L68.1713 81.8009C68.4821 81.8072 68.8027 81.8431 69.1159 81.8411C69.7445 81.8289 70.3719 81.7895 70.9749 81.6451C71.5816 81.5196 72.1893 81.3586 72.7584 81.0796C74.1699 80.3746 74.1524 80.4055 73.2827 81.7618C72.8306 82.4218 71.9224 83.2761 70.5797 83.8305C69.9184 84.1195 69.1527 84.3347 68.3286 84.471C67.9131 84.5516 67.4935 84.5507 67.0495 84.6055C66.6179 84.5834 66.1698 84.5566 65.7121 84.5004C64.128 84.255 62.5381 83.8383 61.0864 83.0224C60.7223 82.8226 60.3605 82.6145 60.0209 82.359C59.666 82.126 59.3287 81.8622 59.0066 81.5758C58.3413 81.015 57.8068 80.4014 57.2755 79.7441C56.2637 78.4078 55.5013 76.882 55.0457 75.281C54.609 73.6764 54.4685 72.0025 54.638 70.3704C54.7392 69.559 54.876 68.7486 55.1099 67.9741C55.2186 67.5846 55.3438 67.1997 55.4856 66.8194C55.6016 66.4677 55.8324 65.9604 56.0558 65.5761C57.0044 64.0006 58.2759 62.8367 59.8617 62.0196C61.4437 61.1835 63.545 60.9836 65.2857 61.6925C67.0309 62.3848 68.1875 63.6185 69.1709 64.7683C70.3438 66.1674 71.2891 67.6459 72.3042 68.9385C72.8129 69.5806 73.3414 70.1836 73.8784 70.6282C74.426 71.0668 74.9297 71.2788 75.3737 71.224C75.4861 71.2375 75.611 71.174 75.7409 71.1567L76.1569 70.978C76.3925 70.8382 76.5736 70.7012 76.6848 70.5267C76.9168 70.2073 77.0239 69.5673 77.0321 68.8013C77.0508 67.2612 76.8363 65.4685 76.759 63.6961C76.6723 61.7335 76.6952 59.73 76.918 57.7466C77.1514 55.7572 77.5588 53.8164 78.0823 51.9079C79.1955 48.1094 80.8391 44.4589 83.0985 41.1945C85.8497 37.192 89.5142 33.6942 93.972 31.5791C97.3424 30.0003 101.17 29.2814 104.876 29.699C108.584 30.0812 112.112 31.4585 115.201 33.3562C115.815 33.7152 116.408 34.0861 116.971 34.5022C117.549 34.8957 118.138 35.2832 118.675 35.7278C119.824 36.6023 120.773 37.4296 121.88 37.9439C122.979 38.4558 124.145 38.692 125.279 38.5348C126.416 38.3965 127.492 37.9016 128.474 37.2017C129.336 36.5758 130.079 35.8006 130.781 34.9511C132.068 33.3452 132.716 32.1143 133.253 31.3084C133.768 30.4873 134.193 30.0521 134.705 29.7215C134.943 29.5735 135.171 29.3333 135.373 29.2469C135.693 29.0948 135.901 29.5013 135.878 30.415C135.858 31.3205 135.481 32.6714 134.643 34.2332C133.381 36.5162 131.671 38.7099 129.105 40.1915C127.839 40.9192 126.291 41.4076 124.702 41.4021C123.107 41.4216 121.546 40.9326 120.234 40.1915C119.566 39.8352 118.964 39.3993 118.402 38.9478L116.941 37.7809C116.48 37.3843 115.973 37.0554 115.482 36.7039L114.731 36.1909L113.959 35.7254C111.903 34.4819 109.7 33.51 107.419 32.9451C104.035 32.0728 100.472 32.231 97.2028 33.3826C93.9136 34.5106 90.9424 36.6117 88.5124 39.2389L88.453 39.1955L88.4401 39.2098Z" fill="#231F20"/>
<path d="M114.141 60.5908C113.632 62.959 113.335 65.3683 113.408 67.7648C113.429 68.1996 113.47 68.6307 113.508 69.0701C113.567 69.4976 113.654 69.9237 113.695 70.3549C113.986 73.4106 115.064 76.3645 116.782 78.9787C117.189 79.5388 117.614 80.0951 118.068 80.6147C118.566 81.1021 119.028 81.6239 119.565 82.0685C119.917 82.3452 120.245 82.6422 120.583 82.9332C120.92 83.2325 121.299 83.4724 121.649 83.7574C122.36 84.3131 123.08 84.8712 123.808 85.4316C124.259 85.7987 124.125 85.8953 123.585 85.8786C123.31 85.8732 122.935 85.8401 122.479 85.7756C122.037 85.6968 121.47 85.646 120.996 85.3618L119.678 84.6727C119.259 84.4129 118.835 84.1426 118.423 83.858C118.011 83.5733 117.627 83.2519 117.259 82.9079C116.89 82.5639 116.496 82.2485 116.153 81.8759L115.14 80.7358C114.8 80.355 114.538 79.9158 114.24 79.5111C114.093 79.3005 113.957 79.0839 113.821 78.8672L113.474 78.1898C113.255 77.7267 112.993 77.2875 112.823 76.8111C111.91 74.5736 111.029 72.1928 110.755 69.7492C110.447 67.073 110.587 64.3963 110.972 61.7973C111.063 60.9918 111.255 60.2058 111.398 59.406C111.536 58.6227 111.793 57.7654 112.073 56.986C112.521 55.7977 113.124 54.6617 113.87 53.6193C114.608 52.5746 115.536 51.6186 116.672 50.9083C118.374 49.7039 120.754 49.403 122.761 49.9896C122.985 50.052 123.213 50.0979 123.435 50.1686C123.643 50.2536 123.852 50.3385 124.058 50.4318C124.435 50.6174 124.759 50.7702 124.988 50.9413C125.204 51.1267 125.371 51.2982 125.485 51.4641C125.714 51.796 125.741 52.1161 125.657 52.5126C125.606 52.6949 125.589 52.8865 125.517 53.0453C125.271 53.5751 124.485 53.6415 123.583 53.256C122.215 52.7492 120.894 52.488 119.798 52.7005C118.704 52.8776 117.707 53.6 116.822 54.6303C116.176 55.4061 115.61 56.3469 115.178 57.3518C114.958 57.8532 114.768 58.372 114.614 58.8918C114.467 59.3868 114.351 59.9974 114.236 60.5997L114.17 60.5812L114.141 60.5908Z" fill="#231F20"/>
<path d="M103.875 229.993C100.165 228.565 96.5273 226.97 92.9122 225.327C91.5837 224.742 90.268 224.143 88.9699 223.513C87.8177 222.968 86.6876 222.376 85.5622 221.767C84.4368 221.159 83.2998 220.591 82.1942 219.944L78.8894 218.021C77.7792 217.39 76.717 216.683 75.6326 216.023C73.6871 214.864 71.8116 213.581 69.9025 212.388C68.7096 211.573 67.5213 210.741 66.3589 209.881C65.1964 209.021 64.1405 208.002 63.1224 206.977C62.5447 206.262 62.6773 206.299 63.4706 206.529C63.8684 206.64 64.3932 206.84 65.0189 207.095C65.6491 207.333 66.3286 207.684 66.9793 208.169C68.2003 208.947 69.4213 209.726 70.6013 210.555L74.2751 212.884C76.7582 214.39 79.239 215.903 81.7904 217.357C83.2982 218.26 84.8987 219.054 86.5158 219.854C88.1177 220.676 89.7828 221.399 91.4032 222.155C94.9712 223.838 98.614 225.382 102.286 226.852C103.42 227.303 104.565 227.712 105.704 228.145C106.842 228.579 107.985 228.996 109.14 229.372C110.886 229.966 112.629 230.569 114.398 231.08C115.281 231.344 116.163 231.608 117.045 231.872C117.936 232.103 118.822 232.323 119.705 232.551C121.079 232.908 122.463 233.169 123.844 233.402L125.908 233.755L127.984 234.03C128.595 234.111 129.195 234.171 129.802 234.269C132.075 234.51 132.761 234.836 133.191 235.536C133.289 235.697 133.42 235.868 133.468 236.015C133.644 236.538 132.657 236.843 130.906 236.81C125.753 236.552 120.451 235.385 115.266 233.894C113.346 233.314 111.414 232.749 109.52 232.077L106.668 231.094L103.845 230.039L103.861 229.98L103.875 229.993Z" fill="#231F20"/>
<path d="M140.66 231.331L141.757 230.538L142.325 230.134C142.643 229.892 142.99 229.641 143.331 229.441C144.021 229.017 144.711 228.692 145.332 228.642C145.646 228.604 145.931 228.639 146.236 228.697C146.383 228.747 146.519 228.839 146.664 228.924L146.771 228.99C146.833 228.962 146.841 229.027 146.883 229.038L147.07 229.198C147.103 229.243 147.145 229.282 147.178 229.326C147.813 230.057 148.118 230.982 147.983 232.106C147.893 233.036 147.341 234.249 147.105 234.648C146.795 235.213 146.467 235.747 146.119 236.258C145.424 237.278 144.67 238.22 143.895 239.139C143.203 239.955 142.485 240.737 141.754 241.498C141.28 241.982 140.806 242.466 140.272 242.907C139.999 243.117 139.738 243.347 139.416 243.508C139.095 243.668 138.755 243.797 138.406 243.896C137.934 243.988 138.006 243.856 138.213 243.53C138.316 243.353 138.437 243.11 138.556 242.812C138.617 242.66 138.674 242.488 138.759 242.342C138.853 242.198 138.952 242.065 139.071 241.929C139.917 240.977 140.689 239.906 141.44 238.847C142.185 237.777 143.01 236.775 143.761 235.716C144.212 235.091 144.585 234.391 144.864 233.683C144.926 233.522 145.01 233.286 145.035 233.195C145.066 233.15 145.07 233.071 145.086 233.013C145.123 232.88 145.158 232.756 145.164 232.606C145.183 232.441 145.167 232.276 145.085 232.119C145.022 231.994 144.881 231.955 144.765 231.985C144.652 232.007 144.532 232.054 144.418 232.111C144.295 232.167 144.178 232.232 144.049 232.312C144.006 232.336 143.998 232.334 143.941 232.38L143.732 232.519L143.305 232.802L140.495 234.742C139.065 235.737 137.558 236.656 135.983 237.467C134.769 238.103 133.524 238.756 132.079 239.103C131.758 239.165 131.452 239.267 131.109 239.279C129.864 239.325 129.466 238.99 129.352 238.28C129.327 238.112 129.283 237.948 129.292 237.789C129.311 237.241 129.796 236.912 130.441 236.743C132.353 236.294 134.265 235.461 136.249 234.272C137.701 233.391 139.18 232.41 140.605 231.271L140.652 231.329L140.66 231.331Z" fill="#231F20"/>
<path d="M115.714 252.234C113.609 254.594 111.638 257.081 110.01 259.745C109.418 260.714 108.944 261.743 108.484 262.749C108.264 263.188 108.112 263.637 107.922 264.093C107.795 264.549 107.616 264.999 107.526 265.448C107.274 266.351 107.24 267.243 107.337 268.048C107.48 268.945 107.626 269.156 108.147 269.274C108.768 269.385 109.76 269.161 110.638 268.799C112.248 268.149 113.775 267.128 115.206 266.062C116.125 265.363 117.034 264.634 117.927 263.9C118.807 263.145 119.734 262.448 120.726 261.805C121.308 261.387 121.263 261.419 121.064 262.069C120.949 262.385 120.835 262.889 120.589 263.419C120.469 263.689 120.35 263.987 120.182 264.27C119.999 264.541 119.791 264.805 119.559 265.061C117.893 266.901 116.021 268.523 113.881 269.918C112.804 270.609 111.667 271.257 110.278 271.691C109.569 271.895 108.82 272.079 107.834 271.965C106.803 271.883 105.738 271.184 105.273 270.259C104.96 269.716 104.863 269.198 104.798 268.76C104.762 268.535 104.72 268.3 104.701 268.081L104.69 267.417C104.685 266.54 104.82 265.702 104.998 264.903C105.382 263.304 105.962 261.831 106.662 260.445C108.228 257.425 110.211 254.736 112.315 252.187C113.618 250.622 114.976 249.116 116.385 247.651C118.512 245.439 120.792 243.351 123.092 241.348C124.892 239.796 126.617 238.222 128.606 236.857C129.052 236.57 129.464 236.247 129.955 235.991C130.835 235.495 131.505 235.271 132.021 235.246C132.517 235.197 132.874 235.359 133.15 235.65C133.274 235.783 133.427 235.906 133.494 236.05C133.615 236.289 133.503 236.561 133.254 236.813C133.13 236.94 132.97 237.065 132.773 237.224C132.571 237.373 132.346 237.507 132.072 237.69C130.447 238.648 128.821 239.927 127.208 241.228C125.59 242.545 123.984 243.946 122.417 245.403C120.095 247.578 117.827 249.848 115.749 252.27L115.698 252.229L115.714 252.234Z" fill="#231F20"/>
<path d="M178.43 217.883C177.686 216.773 176.323 215.607 174.929 214.584L170.528 211.436C169.439 210.632 168.297 209.858 167.28 208.797C166.829 208.332 166.396 207.835 166.009 207.236C165.808 206.966 165.648 206.609 165.477 206.293C165.347 205.926 165.183 205.586 165.119 205.175C164.742 203.551 165.422 201.784 166.566 200.79C167.693 199.792 168.977 199.319 170.219 199.031C171.474 198.756 172.731 198.669 173.969 198.747C176.159 198.902 178.312 199.413 180.287 200.277C182.823 201.368 185.101 203.254 186.406 205.655C186.79 206.423 186.537 206.433 185.832 206.111C185.108 205.793 183.935 205.225 182.776 204.482C182.274 204.136 181.731 203.842 181.189 203.574C180.926 203.429 180.643 203.324 180.364 203.201C180.096 203.073 179.82 202.942 179.55 202.822C178.445 202.362 177.3 202.016 176.124 201.813C174.95 201.602 173.766 201.557 172.595 201.561C171.427 201.584 170.265 201.778 169.294 202.186C168.726 202.429 168.226 202.781 167.99 203.179C167.736 203.609 167.631 204.08 167.754 204.57C167.989 205.582 169.104 206.742 170.278 207.721C172.919 209.941 176.101 211.758 179.024 214.217C179.911 215.009 180.811 215.849 181.453 217.101C181.773 217.717 181.956 218.5 181.916 219.284C181.855 220.08 181.514 220.789 181.15 221.357C180.546 222.243 179.693 222.898 178.799 223.319C177.902 223.747 176.973 223.971 176.053 224.098C174.212 224.326 172.431 224.178 170.696 223.899C169.353 223.685 168.029 223.405 166.731 223.061C165.434 222.717 164.149 222.296 162.914 221.728C162.367 221.477 161.833 221.248 161.3 220.947C160.322 220.389 159.739 219.914 159.433 219.444C159.111 218.997 159.042 218.602 159.096 218.153C159.118 217.945 159.116 217.73 159.181 217.56C159.384 216.992 160.353 217.137 161.744 217.659C163.734 218.562 165.864 219.219 167.975 219.853C170.096 220.444 172.312 220.857 174.374 220.834C175.13 220.812 175.86 220.757 176.509 220.608C177.156 220.466 177.688 220.222 178.07 219.944C178.455 219.685 178.706 219.202 178.74 219.077C178.832 218.942 178.72 218.509 178.353 217.969L178.41 217.922L178.43 217.883Z" fill="#231F20"/>
<path d="M69.3474 101.817C70.1598 102.267 71.3322 102.451 72.5505 102.407C73.7794 102.356 75.066 102.099 76.3141 101.724C76.7707 101.592 77.2222 101.414 77.6406 101.227C77.8623 101.137 78.0613 101.032 78.2687 100.929L78.813 100.643C79.4195 100.294 79.8731 99.8847 80.1228 99.3737C80.3749 98.8545 80.4332 98.1651 80.3055 97.4059C80.0336 95.883 79.1584 94.2811 78.1495 92.8384C77.2538 91.5344 76.2013 90.3119 75.0926 89.1629C74.3906 88.4133 73.624 87.7349 72.9054 86.9806C72.2057 86.2227 71.5047 85.4376 70.8225 84.6488C70.3975 84.1551 70.4522 84.215 70.9655 84.4564C71.4682 84.7038 72.535 85.0104 73.5908 85.6444C73.8187 85.7883 74.0677 85.9203 74.2826 86.0785L74.9204 86.578C75.3456 86.911 75.7662 87.2606 76.1785 87.6078C77.009 88.313 77.8138 89.0466 78.5834 89.8419C79.3554 90.629 80.0817 91.4836 80.7117 92.4276C81.3499 93.3738 81.9236 94.3914 82.3373 95.5341C82.8125 96.8725 83.2142 98.5389 82.6389 100.281C82.3381 101.135 81.8049 101.862 81.1963 102.442C80.5863 102.996 79.8729 103.44 79.2531 103.74C77.8379 104.426 76.3861 104.924 74.8609 105.204C73.3416 105.495 71.7396 105.602 70.1104 105.326C69.107 105.144 68.1002 104.783 67.2064 104.176C66.9938 104.01 66.7577 103.863 66.5769 103.679L66.0391 103.109C65.6563 102.752 65.4123 102.282 65.1341 101.838C64.3761 100.457 64.1231 98.9302 64.0975 97.4849C64.0991 96.0382 64.3185 94.6434 64.5889 93.2896C65.0403 91.1913 65.5712 89.1599 66.3177 87.1885C66.484 86.7525 66.6231 86.3179 66.8225 85.8912C67.2088 85.1146 67.5534 84.648 67.866 84.36C68.2094 84.0896 68.5208 83.9978 68.8884 83.9931C69.0574 83.9956 69.2357 83.965 69.3706 83.9937C69.6179 84.0358 69.7351 84.2561 69.7752 84.6246C69.8094 84.9825 69.789 85.5039 69.6189 86.0817C69.401 86.9588 69.1168 87.8175 68.8432 88.6702C68.5756 89.5334 68.3186 90.3907 68.0758 91.261C67.6115 92.9894 67.2218 94.7387 67.1518 96.3985C67.0957 97.6245 67.2377 98.7807 67.6097 99.6884L67.7443 100.039C67.804 100.145 67.8767 100.236 67.9388 100.334C68.0629 100.529 68.1718 100.747 68.3559 100.888C68.6867 101.239 68.971 101.533 69.3917 101.722L69.3709 101.797L69.3474 101.817Z" fill="#231F20"/>
<path d="M138.954 231.24C139.398 231.122 139.857 230.982 140.3 230.802C140.46 230.74 140.599 230.627 140.762 230.556C141.352 230.328 141.951 230.102 142.543 229.838C142.801 229.713 143.045 229.576 143.303 229.451C143.627 229.283 143.945 229.103 144.336 229.079C144.455 229.067 144.533 229.268 144.562 229.517C144.583 229.764 144.569 230.099 144.438 230.25C144.187 230.511 143.958 230.786 143.668 230.991C143.369 231.167 143.048 231.327 142.7 231.454C142.276 231.595 141.958 231.935 141.57 232.175C141.149 232.433 140.698 232.673 140.241 232.903C139.962 233.039 139.674 233.173 139.381 233.297C138.935 233.485 138.46 233.621 138.02 233.82C137.668 233.962 137.354 234.223 136.99 234.408C136.915 234.449 136.837 234.508 136.748 234.537C136.428 234.626 136.305 234.493 136.174 233.903C136.14 233.769 136.115 233.637 136.092 233.496C136.016 233.028 136.084 232.627 136.242 232.475C136.704 232.005 137.17 231.841 137.701 231.632C138.089 231.49 138.496 231.344 138.93 231.197L138.954 231.24Z" fill="#231F20"/>
<g opacity="0.45">
<path d="M77.2104 156.463C77.3303 156.354 77.5502 156.558 77.6132 156.236C77.6224 156.203 77.6436 156.191 77.6542 156.185C77.7367 156.145 77.8109 156.103 77.8994 156.075C77.95 156.053 78.003 156.023 78.067 156.05C78.1927 156.112 78.2592 155.969 78.3449 155.886C78.48 155.754 78.6151 155.622 78.7961 155.646C78.8896 155.663 78.9707 155.596 79.1137 155.788C79.1376 155.83 79.1635 155.802 79.181 155.771C79.2991 155.572 79.4466 155.524 79.6239 155.528C79.8473 155.528 80.0344 155.402 80.2444 155.353C80.4167 155.312 80.5813 155.17 80.788 155.326C80.9578 155.454 81.0078 155.146 81.1414 155.148C81.2123 155.15 81.2809 155.16 81.3482 155.143C81.4072 155.124 81.4579 155.102 81.4999 155.015C81.6481 154.708 81.8687 154.654 82.0884 154.635C82.3247 154.62 82.5647 154.625 82.795 154.6C82.8493 154.597 82.8913 154.51 82.9384 154.47C83.2072 154.179 83.5723 154.343 83.8984 154.327C84.0177 154.315 84.1319 154.258 84.2366 154.171C84.3965 154.046 84.5991 154.12 84.781 154.109C85.0256 154.096 85.2835 154.133 85.5354 154.158C85.6915 154.175 86.293 154.164 86.4359 154.132C86.5492 154.11 87.0649 154.183 87.1921 154.111C87.2133 154.099 88.2321 154.098 88.2441 154.119C88.4041 154.378 88.4973 154.172 88.6336 154.227C88.675 154.239 88.7105 154.24 88.7496 154.26C88.8813 154.332 88.9285 154.515 88.9914 155.122C89.0666 155.813 89.0738 156.396 89.0268 156.82C89.0022 157.037 88.9197 157.076 88.8538 157.121C88.7197 157.217 88.6299 157.603 88.4884 157.662C88.4719 157.657 88.0089 157.716 87.5377 157.772C87.0591 157.79 86.5737 157.833 86.5326 157.884C86.5174 157.907 86.4912 157.873 86.4686 157.858C86.343 157.796 86.2726 158.08 86.1423 158.035C86.1258 158.03 86.1096 158.088 86.1063 158.132C86.0878 158.198 85.6306 158.044 85.6121 158.11C85.547 158.279 85.4641 158.256 85.3587 158.218C85.2841 158.197 85.2338 158.281 85.1702 158.317C85.149 158.329 85.1494 158.392 85.1292 158.368C84.9226 158.212 84.8085 158.493 84.6458 158.564C84.5445 158.607 84.4174 158.518 84.3134 158.507C84.2613 158.501 84.2239 158.571 84.1756 158.585C84.0977 158.608 84.0162 158.612 83.9489 158.629C83.9111 158.636 83.889 158.683 83.8489 158.699C83.8088 158.715 83.7797 158.787 83.7273 158.719C83.5962 158.548 83.5261 158.671 83.4376 158.7C83.322 158.731 83.1907 158.721 83.0691 158.74C82.9392 158.758 82.8199 158.769 82.6937 158.805C82.485 158.881 82.2679 158.955 82.0532 159.02C81.8432 159.068 81.6414 159.119 81.4313 159.168C81.2779 159.206 81.1272 159.297 80.9545 159.276C80.8339 159.26 80.7155 159.236 80.6334 159.338C80.6182 159.361 80.591 159.362 80.5648 159.328C80.321 159.081 78.7287 159.602 78.5679 159.602C78.4215 159.615 78.07 160.106 77.8812 159.598C77.7081 159.13 77.529 158.651 77.3794 158.163C77.2853 157.859 77.2064 157.534 77.1336 157.219C77.062 156.931 77.0801 156.802 77.1437 156.766C77.1861 156.742 77.162 156.476 77.2127 156.455L77.2104 156.463Z" fill="#231F20"/>
</g>
<path d="M40.4412 154.621C40.5489 154.651 40.3212 154.891 40.6538 154.787C40.6939 154.771 40.6999 154.782 40.7035 154.801C40.738 154.837 40.7831 154.868 40.807 154.91C40.8273 154.934 40.8581 154.951 40.823 155.013C40.7469 155.126 40.8957 155.105 40.9809 155.119C41.1158 155.148 41.2447 155.166 41.216 155.301C41.1976 155.367 41.2615 155.394 41.0665 155.581C41.0278 155.624 41.055 155.622 41.0821 155.621C41.2853 155.597 41.3354 155.674 41.3325 155.78C41.3287 155.922 41.4649 155.978 41.5247 156.084C41.5702 156.177 41.7134 156.208 41.5847 156.413C41.4818 156.59 41.7693 156.456 41.7817 156.54C41.7867 156.586 41.7811 156.638 41.8096 156.664C41.8299 156.687 41.8584 156.713 41.9362 156.69C42.2348 156.613 42.318 156.698 42.3755 156.813C42.4306 156.935 42.4646 157.07 42.528 157.195C42.5459 157.226 42.6261 157.195 42.6722 157.19C42.9757 157.159 42.9008 157.459 42.9881 157.627C43.0156 157.688 43.1008 157.703 43.1966 157.712C43.3385 157.715 43.324 157.863 43.3778 157.959C43.4412 158.084 43.4894 158.231 43.527 158.384C43.556 158.473 43.7164 158.795 43.7688 158.863C43.8093 158.91 43.8835 159.252 43.9899 159.255C44.0065 159.26 44.344 159.747 44.3394 159.763C44.2027 160.029 44.3935 159.921 44.3989 160.03C44.398 160.066 44.4146 160.07 44.4136 160.106C44.4084 160.22 44.2889 160.392 43.8725 160.893C43.3998 161.466 42.9677 161.927 42.6362 162.218C42.4694 162.368 42.4031 162.35 42.3404 162.35C42.2175 162.343 41.875 162.578 41.7696 162.539C41.7424 162.541 40.8449 161.531 40.7233 161.551C40.7044 161.554 40.7243 161.515 40.7206 161.496C40.7198 161.371 40.4548 161.52 40.4494 161.412C40.4541 161.395 40.401 161.425 40.3587 161.449C40.2951 161.485 40.2536 161.089 40.1946 161.108C40.0319 161.179 40.0173 161.104 40.0155 161.014C40.0175 160.943 39.9207 160.969 39.8627 160.953C39.8461 160.949 39.7931 160.978 39.8001 160.954C39.8648 160.722 39.5805 160.812 39.4655 160.744C39.3955 160.707 39.4371 160.558 39.4036 160.486C39.3879 160.446 39.3207 160.463 39.2922 160.437C39.2494 160.398 39.2195 160.345 39.1767 160.306C39.1541 160.291 39.1104 160.288 39.0855 160.281C39.0524 160.272 38.9874 160.28 39.0248 160.21C39.1383 160.028 39.0084 160.045 38.9596 159.996C38.8989 159.925 38.87 159.837 38.8282 159.762C38.7781 159.686 38.7385 159.603 38.6695 159.531C38.5495 159.417 38.4082 159.315 38.2987 159.195C38.1869 159.083 38.088 158.957 37.9868 158.84C37.9059 158.746 37.7779 158.692 37.7605 158.562C37.7505 158.47 37.7404 158.378 37.6198 158.362C37.5949 158.355 37.589 158.345 37.6088 158.306C37.7961 158.018 36.9713 157.101 36.9493 156.987C36.925 156.882 36.3066 156.826 36.8776 156.476C37.4062 156.15 37.962 155.823 38.5178 155.495C38.8676 155.298 39.2423 155.108 39.6003 154.913C39.9349 154.738 40.0717 154.696 40.1086 154.724C40.1311 154.739 40.4269 154.608 40.4472 154.631L40.4412 154.621Z" fill="#231F20"/>
<g opacity="0.45">
<path d="M26.5295 202.191C26.6249 202.137 26.7103 202.376 26.828 202.114C26.8373 202.081 26.8538 202.085 26.8644 202.079C26.9211 202.068 26.9778 202.057 27.0321 202.055C27.0676 202.055 27.11 202.032 27.1398 202.085C27.2019 202.182 27.2757 202.078 27.3439 202.025C27.4546 201.949 27.5758 201.867 27.672 201.938C27.7231 201.979 27.7866 201.943 27.8246 202.159C27.8297 202.206 27.8532 202.185 27.8661 202.171C27.9869 202.026 28.085 202.027 28.1881 202.073C28.3221 202.137 28.4635 202.079 28.6031 202.091C28.7154 202.104 28.8473 202.016 28.9442 202.213C29.0233 202.378 29.1161 202.109 29.1967 202.14C29.2381 202.152 29.2809 202.191 29.327 202.186C29.3625 202.186 29.4085 202.181 29.4459 202.112C29.6051 201.861 29.7515 201.848 29.8865 201.877C30.032 201.9 30.1825 201.969 30.3257 202C30.3589 202.009 30.4045 201.941 30.4409 201.907C30.6678 201.702 30.8596 201.943 31.0585 201.999C31.1331 202.019 31.2155 201.98 31.2921 201.93C31.4133 201.847 31.5251 201.959 31.6411 201.991C31.7986 202.035 31.9445 202.121 32.101 202.2C32.1935 202.253 32.5724 202.367 32.6646 202.357C32.7401 202.343 33.0406 202.578 33.136 202.525C33.1549 202.521 33.7861 202.724 33.7957 202.753C33.853 203.028 33.9476 202.849 34.0226 202.933C34.0428 202.956 34.07 202.955 34.0879 202.987C34.1606 203.078 34.1618 203.266 34.1086 203.841C34.0407 204.501 33.959 205.05 33.8587 205.442C33.8032 205.641 33.7525 205.662 33.6995 205.692C33.6018 205.754 33.4669 206.11 33.3678 206.144C33.3596 206.142 33.0367 206.115 32.7245 206.081C32.397 206.07 32.0831 205.947 32.042 205.998C32.0291 206.012 32.0218 205.974 32.0075 205.961C31.9325 205.878 31.836 206.128 31.7587 206.053C31.7421 206.048 31.7283 206.098 31.719 206.131C31.7028 206.189 31.4235 205.941 31.3991 205.997C31.3243 206.137 31.2709 206.104 31.2102 206.034C31.1697 205.987 31.1134 206.06 31.071 206.084C31.0604 206.09 31.036 206.146 31.0323 206.127C30.9271 205.928 30.7997 206.16 30.6735 206.197C30.5979 206.211 30.5405 206.097 30.4705 206.06C30.4373 206.05 30.3986 206.093 30.3714 206.095C30.3171 206.097 30.2697 206.075 30.2153 206.078C30.1904 206.071 30.16 206.116 30.1328 206.117C30.1033 206.127 30.0706 206.18 30.0476 206.103C30.0027 205.911 29.9312 206.008 29.8603 206.006C29.7811 206.001 29.6945 205.959 29.6199 205.939C29.5371 205.915 29.4565 205.884 29.369 205.878C29.2248 205.882 29.0558 205.879 28.9117 205.884C28.7698 205.88 28.6243 205.857 28.4847 205.845C28.3724 205.832 28.2604 205.881 28.1559 205.807C28.0883 205.761 28.0147 205.705 27.9335 205.772C27.9206 205.786 27.904 205.781 27.8884 205.741C27.7897 205.455 26.6609 205.435 26.5601 205.38C26.4629 205.344 26.1139 205.666 26.1297 205.161C26.1445 204.692 26.1616 204.215 26.1952 203.742C26.2158 203.444 26.2576 203.134 26.2888 202.83C26.3214 202.553 26.368 202.45 26.4081 202.434C26.4376 202.425 26.488 202.18 26.5235 202.181L26.5295 202.191Z" fill="#231F20"/>
</g>
<path d="M79.7577 191.439C79.8807 191.446 79.8432 191.677 80.081 191.529C80.1128 191.511 80.1187 191.522 80.1353 191.526C80.1933 191.542 80.2596 191.561 80.313 191.594C80.3545 191.605 80.3959 191.617 80.3986 191.671C80.4063 191.771 80.5326 191.735 80.6224 191.733C80.7665 191.729 80.919 191.727 80.9787 191.833C81.0063 191.894 81.0855 191.898 81.0135 192.093C81.0019 192.134 81.0291 192.133 81.0503 192.121C81.2355 192.065 81.3363 192.12 81.4066 192.22C81.4972 192.344 81.6699 192.365 81.7887 192.452C81.8931 192.526 82.0539 192.526 82.0398 192.736C82.0244 192.92 82.2632 192.736 82.3216 192.815C82.3455 192.857 82.3694 192.9 82.4168 192.922C82.4583 192.933 82.4974 192.953 82.5776 192.922C82.8734 192.79 83.0156 192.857 83.1168 192.974C83.2263 193.094 83.3229 193.228 83.443 193.342C83.4715 193.368 83.5434 193.334 83.6001 193.323C83.9294 193.263 83.9645 193.586 84.1168 193.744C84.1716 193.804 84.2756 193.816 84.3737 193.816C84.5368 193.808 84.5721 193.97 84.6613 194.066C84.7791 194.188 84.8687 194.347 84.9584 194.506C85.0122 194.602 85.2918 194.912 85.3691 194.987C85.4285 195.03 85.5833 195.404 85.7003 195.401C85.7169 195.406 86.1976 195.924 86.1906 195.949C86.066 196.236 86.278 196.116 86.2894 196.235C86.2967 196.273 86.3133 196.278 86.3206 196.315C86.3297 196.443 86.2079 196.623 85.7739 197.154C85.2731 197.765 84.8341 198.25 84.4851 198.573C84.3053 198.737 84.2472 198.721 84.1786 198.71C84.0451 198.709 83.7146 198.965 83.6091 198.927C83.6008 198.924 83.3593 198.669 83.1155 198.423C82.8611 198.182 82.6089 197.933 82.5629 197.938C82.544 197.942 82.5555 197.9 82.5602 197.884C82.5511 197.756 82.3063 197.929 82.2844 197.816C82.289 197.799 82.2337 197.837 82.1996 197.864C82.1443 197.902 82.059 197.503 82.0037 197.541C81.8553 197.625 81.8301 197.555 81.82 197.463C81.8113 197.398 81.7206 197.435 81.6626 197.419C81.646 197.414 81.599 197.455 81.6059 197.43C81.6375 197.189 81.3794 197.313 81.2597 197.262C81.1852 197.241 81.2019 197.085 81.1601 197.011C81.1421 196.979 81.0855 196.99 81.0523 196.981C81.0072 196.95 80.9691 196.895 80.924 196.865C80.9014 196.849 80.853 196.863 80.8305 196.847C80.7973 196.838 80.7383 196.857 80.7674 196.785C80.8418 196.583 80.7216 196.629 80.6645 196.578C80.5992 196.524 80.5514 196.439 80.4906 196.369C80.4299 196.298 80.3692 196.227 80.2956 196.171C80.1732 196.066 80.0273 195.98 79.9049 195.875C79.7908 195.771 79.679 195.66 79.5649 195.556C79.4793 195.479 79.3573 195.436 79.3127 195.307C79.2838 195.219 79.2549 195.131 79.1485 195.128C79.1319 195.123 79.1154 195.118 79.1269 195.077C79.2102 194.779 78.2692 193.989 78.2177 193.885C78.1616 193.798 77.7172 193.79 77.9713 193.424C78.2103 193.079 78.4575 192.737 78.7024 192.404C78.8583 192.197 79.0414 191.989 79.2139 191.787C79.3735 191.599 79.4688 191.546 79.5186 191.56C79.5517 191.569 79.7186 191.419 79.7495 191.436L79.7577 191.439Z" fill="#231F20"/>
<g opacity="0.45">
<path d="M88.0643 238.767C88.1607 238.678 88.3216 238.902 88.3717 238.594C88.381 238.561 88.3916 238.555 88.4104 238.551C88.4717 238.524 88.533 238.496 88.5943 238.469C88.6344 238.453 88.6768 238.429 88.7196 238.468C88.8134 238.548 88.867 238.42 88.9316 238.348C89.0349 238.234 89.1382 238.12 89.2767 238.168C89.3513 238.189 89.4113 238.134 89.5119 238.349C89.5358 238.392 89.5533 238.361 89.5685 238.338C89.6549 238.157 89.7728 238.119 89.8994 238.145C90.0615 238.172 90.2086 238.061 90.3657 238.043C90.4979 238.017 90.62 237.899 90.7783 238.069C90.908 238.212 90.9475 237.91 91.0433 237.919C91.093 237.933 91.151 237.949 91.2017 237.928C91.2418 237.912 91.2902 237.899 91.3133 237.816C91.4237 237.516 91.5758 237.451 91.7388 237.443C91.9125 237.429 92.0875 237.442 92.2611 237.428C92.2989 237.421 92.3303 237.34 92.3631 237.287C92.5527 236.991 92.8302 237.149 93.0679 237.162C93.1577 237.16 93.2365 237.102 93.314 237.016C93.4302 236.888 93.5844 236.975 93.7179 236.977C93.9058 236.976 94.0988 237.021 94.2834 237.063C94.3994 237.096 94.8545 237.097 94.9595 237.073C95.0374 237.05 95.4485 237.21 95.5366 237.118C95.5495 237.104 96.3214 237.123 96.3333 237.144C96.4698 237.423 96.5322 237.199 96.6367 237.273C96.6675 237.291 96.6947 237.289 96.7256 237.307C96.8277 237.389 96.8892 237.585 96.9926 238.239C97.1143 238.987 97.1785 239.622 97.179 240.068C97.1769 240.3 97.1216 240.338 97.0722 240.387C96.9735 240.485 96.9289 240.901 96.8312 240.963C96.8229 240.961 96.4521 241.009 96.0895 241.06C95.7224 241.127 95.3346 241.108 95.3078 241.172C95.3009 241.197 95.277 241.155 95.2545 241.139C95.15 241.066 95.1082 241.376 95.0097 241.312C94.9931 241.308 94.9935 241.37 94.982 241.412C94.9717 241.48 94.603 241.297 94.5868 241.355C94.5466 241.532 94.4743 241.502 94.3901 241.452C94.3284 241.417 94.2947 241.506 94.2453 241.555C94.2324 241.569 94.2245 241.629 94.2126 241.608C94.0401 241.426 93.9592 241.716 93.8343 241.779C93.7601 241.821 93.6506 241.701 93.5654 241.687C93.524 241.675 93.4972 241.739 93.4594 241.746C93.4027 241.757 93.3341 241.747 93.2752 241.766C93.2457 241.776 93.2258 241.815 93.1963 241.825C93.1645 241.843 93.1378 241.907 93.0959 241.833C92.9884 241.642 92.9288 241.759 92.8556 241.765C92.7634 241.776 92.6617 241.756 92.5659 241.747C92.4678 241.747 92.3637 241.735 92.2693 241.754C92.1053 241.797 91.9224 241.845 91.7584 241.888C91.5967 241.923 91.4313 241.94 91.2636 241.965C91.142 241.984 91.0231 242.058 90.8822 242.019C90.7911 241.993 90.6939 241.957 90.6247 242.045C90.6118 242.06 90.5929 242.063 90.5667 242.029C90.3819 241.763 89.1025 242.058 88.9842 242.034C88.8718 242.021 88.5637 242.453 88.4422 241.928C88.3281 241.44 88.2139 240.953 88.121 240.454C88.0564 240.141 88.0213 239.818 87.9696 239.491C87.9275 239.194 87.9516 239.075 87.994 239.052C88.0258 239.034 88.0183 238.772 88.0583 238.757L88.0643 238.767Z" fill="#231F20"/>
</g>
<path d="M52.8458 226.942C52.9539 227.035 52.7934 227.258 53.096 227.262C53.1314 227.263 53.1374 227.274 53.1494 227.295C53.1935 227.361 53.24 227.419 53.2818 227.493C53.3057 227.535 53.3485 227.574 53.3217 227.638C53.2787 227.76 53.4137 227.789 53.5039 227.85C53.6475 227.943 53.7804 228.043 53.7803 228.204C53.7737 228.291 53.8473 228.347 53.6805 228.497C53.644 228.532 53.6689 228.539 53.6997 228.556C53.8963 228.62 53.968 228.747 53.9891 228.896C54.0151 229.091 54.1554 229.228 54.2322 229.402C54.291 229.543 54.4465 229.658 54.3344 229.868C54.2397 230.047 54.541 230.024 54.5547 230.135C54.5657 230.191 54.5637 230.262 54.5959 230.307C54.6198 230.349 54.652 230.394 54.7349 230.417C55.0462 230.486 55.1524 230.65 55.2185 230.829C55.28 231.025 55.3309 231.227 55.403 231.416C55.4163 231.465 55.5038 231.471 55.5655 231.506C55.9057 231.664 55.8275 232.008 55.9142 232.274C55.9491 232.373 56.0347 232.45 56.1415 232.516C56.3017 232.614 56.2757 232.803 56.3322 232.953C56.3996 233.159 56.3975 233.391 56.4166 233.611C56.4234 233.747 56.5472 234.264 56.6046 234.378C56.6418 234.469 56.6648 234.931 56.7836 235.017C56.8084 235.024 57.082 235.869 57.0668 235.891C56.8376 236.104 57.0836 236.119 57.0572 236.246C57.0456 236.287 57.0659 236.311 57.0543 236.352C57.0173 236.485 56.8265 236.593 56.1994 236.855C55.4815 237.155 54.8682 237.368 54.4209 237.467C54.192 237.519 54.1372 237.459 54.0779 237.416C53.9591 237.329 53.5386 237.364 53.4599 237.261C53.4622 237.253 53.3296 236.832 53.2052 236.413C53.0726 235.992 52.9317 235.569 52.8654 235.55C52.8405 235.543 52.8769 235.509 52.8816 235.492C52.9185 235.359 52.609 235.38 52.6354 235.254C52.64 235.237 52.5774 235.238 52.5313 235.243C52.4664 235.251 52.5143 234.791 52.4434 234.789C52.2684 234.776 52.2749 234.689 52.3027 234.589C52.3235 234.515 52.224 234.487 52.173 234.446C52.1564 234.441 52.102 234.444 52.109 234.419C52.2363 234.187 51.943 234.149 51.8464 234.015C51.788 233.936 51.8628 233.797 51.8574 233.688C51.8524 233.642 51.7861 233.623 51.7704 233.583C51.7346 233.52 51.7282 233.446 51.6924 233.383C51.6744 233.351 51.633 233.339 51.6151 233.308C51.5889 233.273 51.5202 233.263 51.5825 233.2C51.7245 233.043 51.6025 233 51.5713 232.92C51.5281 232.819 51.5167 232.7 51.4947 232.586C51.4645 232.471 51.4425 232.357 51.391 232.254C51.2977 232.076 51.1901 231.885 51.0968 231.707C51.0141 231.523 50.9374 231.35 50.863 231.168C50.8019 231.035 50.6924 230.915 50.6926 230.755C50.6872 230.646 50.6924 230.531 50.5856 230.466C50.5607 230.459 50.5594 230.432 50.5852 230.403C50.7738 230.143 50.0845 228.772 50.0694 228.633C50.0438 228.501 49.5434 228.246 49.9946 228.005C50.414 227.783 50.8522 227.557 51.2941 227.349C51.5711 227.221 51.8706 227.108 52.1618 226.993C52.4235 226.887 52.5488 226.886 52.5892 226.933C52.6155 226.968 52.8656 226.903 52.8895 226.946L52.8458 226.942Z" fill="#231F20"/>
<path d="M115.151 188.887C115.261 188.846 115.322 189.078 115.463 188.858C115.473 188.825 115.497 188.832 115.506 188.834C115.56 188.832 115.625 188.823 115.677 188.828C115.71 188.838 115.753 188.814 115.785 188.858C115.841 188.946 115.918 188.86 115.993 188.818C116.109 188.752 116.226 188.687 116.33 188.761C116.381 188.802 116.451 188.776 116.488 188.965C116.495 189.003 116.516 188.991 116.529 188.977C116.645 188.848 116.754 188.843 116.857 188.89C116.991 188.954 117.135 188.887 117.277 188.891C117.4 188.898 117.521 188.816 117.633 188.99C117.727 189.132 117.805 188.886 117.888 188.909C117.929 188.921 117.974 188.951 118.02 188.946C118.058 188.939 118.096 188.931 118.131 188.87C118.261 188.629 118.401 188.606 118.543 188.61C118.693 188.616 118.847 188.641 118.999 188.639C119.035 188.64 119.064 188.567 119.092 188.53C119.268 188.285 119.497 188.456 119.706 188.443C119.788 188.439 119.848 188.384 119.912 188.313C120.007 188.196 120.141 188.26 120.252 188.247C120.407 188.236 120.574 188.247 120.738 188.266C120.836 188.267 121.239 188.263 121.333 188.245C121.407 188.238 121.769 188.286 121.842 188.217C121.842 188.217 122.029 188.215 122.209 188.212C122.389 188.208 122.568 188.205 122.577 188.207C122.747 188.398 122.766 188.233 122.871 188.272C122.904 188.281 122.923 188.277 122.954 188.295C123.066 188.344 123.146 188.473 123.334 188.919C123.55 189.426 123.692 189.876 123.756 190.224C123.786 190.403 123.735 190.46 123.691 190.519C123.607 190.63 123.622 190.991 123.532 191.091C123.532 191.091 123.437 191.145 123.293 191.212C123.149 191.279 122.972 191.399 122.773 191.442C122.373 191.563 121.961 191.662 121.937 191.718C121.93 191.743 121.895 191.706 121.879 191.702C121.759 191.651 121.72 191.917 121.607 191.876C121.59 191.871 121.593 191.926 121.581 191.967C121.565 192.025 121.153 191.901 121.139 191.951C121.098 192.1 121.004 192.083 120.918 192.041C120.854 192.014 120.806 192.09 120.75 192.128C120.737 192.143 120.732 192.195 120.709 192.18C120.527 192.031 120.425 192.27 120.275 192.326C120.184 192.364 120.076 192.271 119.985 192.245C119.944 192.234 119.903 192.285 119.863 192.301C119.798 192.309 119.727 192.307 119.653 192.314C119.624 192.323 119.598 192.352 119.558 192.368C119.52 192.375 119.485 192.437 119.449 192.373C119.351 192.212 119.28 192.308 119.19 192.31C119.081 192.315 118.971 192.293 118.867 192.282C118.753 192.277 118.649 192.266 118.54 192.271C118.347 192.289 118.148 192.331 117.958 192.341C117.776 192.353 117.59 192.346 117.402 192.347C117.26 192.343 117.113 192.391 116.977 192.335C116.879 192.299 116.785 192.255 116.689 192.309C116.668 192.321 116.651 192.316 116.634 192.284C116.494 192.049 115.062 191.962 114.939 191.892C114.827 191.843 114.349 192.085 114.413 191.629C114.471 191.199 114.539 190.762 114.616 190.328C114.665 190.056 114.743 189.774 114.811 189.498C114.881 189.249 114.933 189.157 114.979 189.152C115.015 189.153 115.086 188.931 115.129 188.935L115.151 188.887Z" fill="#231F20"/>
<path d="M144.43 13.1754C144.522 13.3888 144.175 13.4169 143.576 13.384C143.383 13.3746 142.848 13.2078 142.79 13.1289C142.673 12.9713 142.565 12.816 142.489 12.6699C142.436 12.5745 142.529 11.3767 142.565 10.958C142.582 10.5431 142.717 10.1877 142.86 9.83457C143.172 9.13531 143.454 8.41022 143.844 7.75065C143.929 7.60474 144.045 7.47637 144.19 7.37382C144.684 7.01143 145.026 6.55308 145.328 6.0477C145.378 5.96347 145.46 5.89678 145.42 5.75165C145.339 5.49687 146.394 4.24573 146.621 4.1663C147.147 3.94673 147.632 3.68013 148.188 3.51355C148.266 3.4906 148.299 3.40175 148.439 3.47652C148.769 3.63992 148.875 3.51752 149.021 3.44215C149.228 3.33921 149.445 3.26576 149.708 3.24992C149.836 3.24085 150.023 3.33778 150.18 3.41717C150.322 3.48365 150.5 3.93519 150.5 3.99783C150.495 4.17514 150.664 4.33838 150.768 4.51028C150.806 4.56559 150.848 4.63979 150.87 4.69048C150.891 4.74116 150.794 5.08925 150.712 5.41478C150.632 5.76749 150.561 6.08705 150.516 6.11924C150.511 6.13581 150.28 6.41973 150.065 6.74373C149.821 7.04192 149.584 7.37788 149.553 7.45844C149.513 7.5367 149.394 7.54808 149.297 7.57469C149.249 7.58799 148.636 8.63189 148.608 8.6687C148.411 8.82831 148.354 9.09814 147.971 9.12536C147.898 9.13173 147.876 9.17914 147.845 9.22424C147.616 9.59797 147.268 9.88499 146.954 10.2084C146.785 10.3667 146.692 10.5729 146.554 10.7487C146.528 10.7772 146.469 10.7965 146.435 10.8227C146.382 10.8526 146.323 10.8719 146.301 10.9193C146.032 11.3713 145.618 11.7651 145.458 12.2743C145.426 12.3903 144.887 12.7849 144.872 12.9327C144.852 13.0073 144.369 13.1049 144.417 13.1897L144.43 13.1754Z" fill="#231F20"/>
<path d="M149.358 22.4023C149.25 22.5685 149.085 22.326 148.876 21.857C148.812 21.7049 148.703 21.2281 148.732 21.1558C148.774 21.0066 148.832 20.8621 148.9 20.747C148.937 20.677 149.682 20.2505 149.941 20.0905C150.191 19.9282 150.452 19.858 150.719 19.7984C151.267 19.6921 151.811 19.567 152.36 19.4879C152.481 19.4682 152.604 19.4757 152.735 19.521C153.163 19.6495 153.579 19.6316 154.003 19.5533C154.07 19.5363 154.145 19.5571 154.21 19.4503C154.269 19.3684 154.582 19.3038 154.906 19.2959C155.227 19.2962 155.556 19.3344 155.626 19.3717C155.983 19.5964 156.348 19.6981 156.692 19.9371C156.745 19.9698 156.796 19.9483 156.835 20.0662C156.917 20.3482 157.03 20.3262 157.133 20.3728C157.278 20.431 157.426 20.5081 157.565 20.6183C157.63 20.6723 157.689 20.8137 157.747 20.928C157.798 21.0317 157.718 21.349 157.69 21.3858C157.611 21.4796 157.646 21.6413 157.625 21.7786C157.614 21.82 157.614 21.8826 157.603 21.9241C157.586 21.9821 156.68 22.6047 156.592 22.6336C156.559 22.687 155.378 22.8221 155.247 22.8749C155.178 22.9001 155.106 22.8356 155.045 22.8005C155.011 22.7912 154.08 22.9602 154.047 22.9509C153.854 22.9061 153.665 23.0053 153.463 22.7702C153.423 22.7232 153.382 22.7388 153.347 22.7379C153.016 22.7706 152.682 22.6865 152.337 22.6437C152.164 22.6223 151.992 22.6636 151.821 22.6694C151.794 22.6707 151.757 22.6426 151.726 22.6251C151.684 22.6135 151.639 22.5831 151.602 22.5904C151.204 22.6402 150.778 22.566 150.381 22.7056C150.293 22.7345 149.805 22.5626 149.701 22.6141C149.642 22.6334 149.377 22.336 149.339 22.406L149.358 22.4023Z" fill="#231F20"/>
</svg>
