<svg width="24" height="24" viewBox="0 0 24 24" fill="none" xmlns="http://www.w3.org/2000/svg">
<path fill-rule="evenodd" clip-rule="evenodd" d="M9.43 18H14.59L15.596 17.957C17.118 17.815 18.3993 17.1783 19.44 16.047C20.48 14.9157 21 13.5667 21 12C21.0007 10.328 20.4187 8.91 19.254 7.746C18.0893 6.582 16.6713 6 15 6H9C7.328 5.99933 5.91 6.58133 4.746 7.746C3.582 8.91067 3 10.3287 3 12C3 13.5667 3.52033 14.916 4.561 16.048C5.601 17.1787 6.882 17.8153 8.404 17.958L9.43 18ZM15 17H9C7.61733 17.0007 6.43833 16.5133 5.463 15.538C4.48767 14.5627 4 13.3833 4 12C4.00067 10.6173 4.48833 9.43833 5.463 8.463C6.43767 7.48767 7.61667 7 9 7H15C16.3827 7.00067 17.5617 7.48833 18.537 8.463C19.5123 9.43767 20 10.6167 20 12C20.0007 13.3827 19.5133 14.5617 18.538 15.537C17.5627 16.5123 16.3833 17 15 17ZM10.232 13.765C10.7193 14.255 11.3073 14.5 11.996 14.5C12.6847 14.5 13.2743 14.256 13.765 13.768C14.255 13.2807 14.5 12.6927 14.5 12.004C14.5 11.3153 14.256 10.7257 13.768 10.235C13.2807 9.745 12.6927 9.5 12.004 9.5C11.3153 9.5 10.7257 9.744 10.235 10.232C9.745 10.7193 9.5 11.3073 9.5 11.996C9.5 12.6847 9.744 13.2743 10.232 13.765ZM14.479 14.479C13.7983 15.1597 12.972 15.5 12 15.5C11.028 15.5 10.2017 15.1597 9.521 14.479C8.84033 13.7983 8.5 12.972 8.5 12C8.5 11.028 8.84033 10.2017 9.521 9.521C10.2017 8.84033 11.028 8.5 12 8.5C12.972 8.5 13.7983 8.84033 14.479 9.521C15.1597 10.2017 15.5 11.028 15.5 12C15.5 12.972 15.1597 13.7983 14.479 14.479Z" fill="#868C98"/>
</svg>
